<?xml version="1.0" encoding="UTF-8" standalone="no"?>
<!DOCTYPE svg PUBLIC "-//W3C//DTD SVG 1.1//EN"
 "http://www.w3.org/Graphics/SVG/1.1/DTD/svg11.dtd">
<!-- Generated by graphviz version 2.26.3 (20100126.1600)
 -->
<!-- Title: BackuperIndex Pages: 1 -->
<svg width="454pt" height="278pt"
 viewBox="0.00 0.00 454.00 278.00" xmlns="http://www.w3.org/2000/svg" xmlns:xlink="http://www.w3.org/1999/xlink">
<g id="graph1" class="graph" transform="scale(1 1) rotate(0) translate(4 274)">
<title>BackuperIndex</title>
<polygon fill="white" stroke="white" points="-4,5 -4,-274 451,-274 451,5 -4,5"/>
<!-- Node1 -->
<g id="node1" class="node"><title>Node1</title>
<polygon fill="#bfbfbf" stroke="black" points="119,-1 119,-129 281,-129 281,-1 119,-1"/>
<text text-anchor="middle" x="200" y="-116" font-family="Helvetica,sans-Serif" font-size="10.00">BackuperIndex</text>
<polyline fill="none" stroke="black" points="119,-108 281,-108 "/>
<text text-anchor="start" x="127" y="-95" font-family="Helvetica,sans-Serif" font-size="10.00">+ $base</text>
<text text-anchor="start" x="127" y="-82" font-family="Helvetica,sans-Serif" font-size="10.00">+ $queries</text>
<polyline fill="none" stroke="black" points="119,-74 281,-74 "/>
<text text-anchor="start" x="127" y="-61" font-family="Helvetica,sans-Serif" font-size="10.00">+ __construct()</text>
<text text-anchor="start" x="127" y="-48" font-family="Helvetica,sans-Serif" font-size="10.00">+ prepareQueries()</text>
<text text-anchor="start" x="127" y="-35" font-family="Helvetica,sans-Serif" font-size="10.00">+ checkInitializedAndInitMissing()</text>
<text text-anchor="start" x="127" y="-22" font-family="Helvetica,sans-Serif" font-size="10.00">+ load()</text>
<text text-anchor="start" x="127" y="-9" font-family="Helvetica,sans-Serif" font-size="10.00">+ __destruct()</text>
</g>
<!-- Node2 -->
<g id="node2" class="node"><title>Node2</title>
<a xlink:href="../../da/d45/a00011.html" target="_top" xlink:title="can take either string or PDO object if it is not BackuperIndex it will take PDO object, BackuperIndex will take either PDO or string, most likely string">
<polygon fill="white" stroke="black" points="0,-193 0,-269 162,-269 162,-193 0,-193"/>
<text text-anchor="middle" x="81" y="-256" font-family="Helvetica,sans-Serif" font-size="10.00">IBackuperIndex</text>
<polyline fill="none" stroke="black" points="0,-248 162,-248 "/>
<text text-anchor="middle" x="81" y="-235" font-family="Helvetica,sans-Serif" font-size="10.00"> </text>
<polyline fill="none" stroke="black" points="0,-227 162,-227 "/>
<text text-anchor="start" x="8" y="-214" font-family="Helvetica,sans-Serif" font-size="10.00">+ checkInitializedAndInitMissing()</text>
<text text-anchor="start" x="8" y="-201" font-family="Helvetica,sans-Serif" font-size="10.00">+ load()</text>
</a>
</g>
<!-- Node2&#45;&gt;Node1 -->
<g id="edge2" class="edge"><title>Node2&#45;&gt;Node1</title>
<path fill="none" stroke="midnightblue" d="M114.18,-184.716C126.488,-167.546 140.679,-147.751 153.931,-129.264"/>
<polygon fill="none" stroke="midnightblue" points="111.283,-182.75 108.301,-192.916 116.972,-186.828 111.283,-182.75"/>
</g>
<!-- Node3 -->
<g id="node4" class="node"><title>Node3</title>
<polygon fill="white" stroke="#bfbfbf" points="179.5,-199.5 179.5,-262.5 220.5,-262.5 220.5,-199.5 179.5,-199.5"/>
<text text-anchor="middle" x="200" y="-249.5" font-family="Helvetica,sans-Serif" font-size="10.00">static</text>
<polyline fill="none" stroke="#bfbfbf" points="179.5,-241.5 220.5,-241.5 "/>
<text text-anchor="middle" x="200" y="-228.5" font-family="Helvetica,sans-Serif" font-size="10.00"> </text>
<polyline fill="none" stroke="#bfbfbf" points="179.5,-220.5 220.5,-220.5 "/>
<text text-anchor="middle" x="200" y="-207.5" font-family="Helvetica,sans-Serif" font-size="10.00"> </text>
</g>
<!-- Node3&#45;&gt;Node1 -->
<g id="edge4" class="edge"><title>Node3&#45;&gt;Node1</title>
<path fill="none" stroke="#404040" d="M200,-199.386C200,-182.871 200,-161.882 200,-141.428"/>
<polygon fill="none" stroke="#404040" points="200,-141.147 196,-135.147 200,-129.147 204,-135.147 200,-141.147"/>
<text text-anchor="middle" x="262" y="-165" font-family="Helvetica,sans-Serif" font-size="10.00"> +$baseStructureBuildQuery</text>
<text text-anchor="middle" x="262" y="-152" font-family="Helvetica,sans-Serif" font-size="10.00">+$queriesTemplates</text>
</g>
<!-- Node4 -->
<g id="node6" class="node"><title>Node4</title>
<polygon fill="white" stroke="#bfbfbf" points="326.5,-199.5 326.5,-262.5 367.5,-262.5 367.5,-199.5 326.5,-199.5"/>
<text text-anchor="middle" x="347" y="-249.5" font-family="Helvetica,sans-Serif" font-size="10.00">const</text>
<polyline fill="none" stroke="#bfbfbf" points="326.5,-241.5 367.5,-241.5 "/>
<text text-anchor="middle" x="347" y="-228.5" font-family="Helvetica,sans-Serif" font-size="10.00"> </text>
<polyline fill="none" stroke="#bfbfbf" points="326.5,-220.5 367.5,-220.5 "/>
<text text-anchor="middle" x="347" y="-207.5" font-family="Helvetica,sans-Serif" font-size="10.00"> </text>
</g>
<!-- Node4&#45;&gt;Node1 -->
<g id="edge6" class="edge"><title>Node4&#45;&gt;Node1</title>
<path fill="none" stroke="#404040" d="M344.005,-199.137C341.178,-182.646 335.682,-162.903 325,-148 315.749,-135.093 303.816,-123.626 291.002,-113.646"/>
<polygon fill="none" stroke="#404040" points="290.714,-113.434 283.512,-113.087 281.062,-106.305 288.264,-106.651 290.714,-113.434"/>
<text text-anchor="middle" x="391.5" y="-165" font-family="Helvetica,sans-Serif" font-size="10.00"> +indexPrefix</text>
<text text-anchor="middle" x="391.5" y="-152" font-family="Helvetica,sans-Serif" font-size="10.00">+createTableQueryTempl</text>
</g>
</g>
</svg>
