<?xml version="1.0" encoding="UTF-8" standalone="no"?>
<!DOCTYPE svg PUBLIC "-//W3C//DTD SVG 1.1//EN"
 "http://www.w3.org/Graphics/SVG/1.1/DTD/svg11.dtd">
<!-- Generated by graphviz version 2.26.3 (20100126.1600)
 -->
<!-- Title: WebDAVUploader Pages: 1 -->
<svg width="166pt" height="238pt"
 viewBox="0.00 0.00 166.00 238.00" xmlns="http://www.w3.org/2000/svg" xmlns:xlink="http://www.w3.org/1999/xlink">
<g id="graph1" class="graph" transform="scale(1 1) rotate(0) translate(4 234)">
<title>WebDAVUploader</title>
<polygon fill="white" stroke="white" points="-4,5 -4,-234 163,-234 163,5 -4,5"/>
<!-- Node1 -->
<g id="node1" class="node"><title>Node1</title>
<polygon fill="#bfbfbf" stroke="black" points="-0.5,-0.5 -0.5,-115.5 158.5,-115.5 158.5,-0.5 -0.5,-0.5"/>
<text text-anchor="middle" x="79" y="-102.5" font-family="Helvetica,sans-Serif" font-size="10.00">WebDAVUploader</text>
<polyline fill="none" stroke="black" points="-0.5,-94.5 158.5,-94.5 "/>
<text text-anchor="start" x="7.5" y="-81.5" font-family="Helvetica,sans-Serif" font-size="10.00">+ $dir</text>
<text text-anchor="start" x="7.5" y="-68.5" font-family="Helvetica,sans-Serif" font-size="10.00">+ $webDav</text>
<text text-anchor="start" x="7.5" y="-55.5" font-family="Helvetica,sans-Serif" font-size="10.00"># $prefs</text>
<polyline fill="none" stroke="black" points="-0.5,-47.5 158.5,-47.5 "/>
<text text-anchor="start" x="7.5" y="-34.5" font-family="Helvetica,sans-Serif" font-size="10.00">+ __construct()</text>
<text text-anchor="start" x="7.5" y="-21.5" font-family="Helvetica,sans-Serif" font-size="10.00">+ verifyServerAndInitConnection()</text>
<text text-anchor="start" x="7.5" y="-8.5" font-family="Helvetica,sans-Serif" font-size="10.00">+ upload()</text>
</g>
<!-- Node2 -->
<g id="node2" class="node"><title>Node2</title>
<a xlink:href="../../d2/de7/a00014.html" target="_top" xlink:title="{IUploader\n||+ __construct()\l+ upload()\l}">
<polygon fill="white" stroke="black" points="37.5,-153 37.5,-229 120.5,-229 120.5,-153 37.5,-153"/>
<text text-anchor="middle" x="79" y="-216" font-family="Helvetica,sans-Serif" font-size="10.00">IUploader</text>
<polyline fill="none" stroke="black" points="37.5,-208 120.5,-208 "/>
<text text-anchor="middle" x="79" y="-195" font-family="Helvetica,sans-Serif" font-size="10.00"> </text>
<polyline fill="none" stroke="black" points="37.5,-187 120.5,-187 "/>
<text text-anchor="start" x="45.5" y="-174" font-family="Helvetica,sans-Serif" font-size="10.00">+ __construct()</text>
<text text-anchor="start" x="45.5" y="-161" font-family="Helvetica,sans-Serif" font-size="10.00">+ upload()</text>
</a>
</g>
<!-- Node2&#45;&gt;Node1 -->
<g id="edge2" class="edge"><title>Node2&#45;&gt;Node1</title>
<path fill="none" stroke="midnightblue" d="M79,-142.813C79,-134.014 79,-124.751 79,-115.709"/>
<polygon fill="none" stroke="midnightblue" points="75.5001,-142.888 79,-152.888 82.5001,-142.888 75.5001,-142.888"/>
</g>
</g>
</svg>
