<?xml version="1.0" encoding="UTF-8" standalone="no"?>
<!DOCTYPE svg PUBLIC "-//W3C//DTD SVG 1.1//EN"
 "http://www.w3.org/Graphics/SVG/1.1/DTD/svg11.dtd">
<!-- Generated by graphviz version 2.26.3 (20100126.1600)
 -->
<!-- Title: ExceptionTestUploader Pages: 1 -->
<svg width="124pt" height="200pt"
 viewBox="0.00 0.00 124.00 200.00" xmlns="http://www.w3.org/2000/svg" xmlns:xlink="http://www.w3.org/1999/xlink">
<g id="graph1" class="graph" transform="scale(1 1) rotate(0) translate(4 196)">
<title>ExceptionTestUploader</title>
<polygon fill="white" stroke="white" points="-4,5 -4,-196 121,-196 121,5 -4,5"/>
<!-- Node1 -->
<g id="node1" class="node"><title>Node1</title>
<polygon fill="#bfbfbf" stroke="black" points="-0.5,-1 -0.5,-77 116.5,-77 116.5,-1 -0.5,-1"/>
<text text-anchor="middle" x="58" y="-64" font-family="Helvetica,sans-Serif" font-size="10.00">ExceptionTestUploader</text>
<polyline fill="none" stroke="black" points="-0.5,-56 116.5,-56 "/>
<text text-anchor="middle" x="58" y="-43" font-family="Helvetica,sans-Serif" font-size="10.00"> </text>
<polyline fill="none" stroke="black" points="-0.5,-35 116.5,-35 "/>
<text text-anchor="start" x="7.5" y="-22" font-family="Helvetica,sans-Serif" font-size="10.00">+ __construct()</text>
<text text-anchor="start" x="7.5" y="-9" font-family="Helvetica,sans-Serif" font-size="10.00">+ upload()</text>
</g>
<!-- Node2 -->
<g id="node2" class="node"><title>Node2</title>
<a xlink:href="a00014.html" target="_top" xlink:title="{IUploader\n||+ __construct()\l+ upload()\l}">
<polygon fill="white" stroke="black" points="16.5,-115 16.5,-191 99.5,-191 99.5,-115 16.5,-115"/>
<text text-anchor="middle" x="58" y="-178" font-family="Helvetica,sans-Serif" font-size="10.00">IUploader</text>
<polyline fill="none" stroke="black" points="16.5,-170 99.5,-170 "/>
<text text-anchor="middle" x="58" y="-157" font-family="Helvetica,sans-Serif" font-size="10.00"> </text>
<polyline fill="none" stroke="black" points="16.5,-149 99.5,-149 "/>
<text text-anchor="start" x="24.5" y="-136" font-family="Helvetica,sans-Serif" font-size="10.00">+ __construct()</text>
<text text-anchor="start" x="24.5" y="-123" font-family="Helvetica,sans-Serif" font-size="10.00">+ upload()</text>
</a>
</g>
<!-- Node2&#45;&gt;Node1 -->
<g id="edge2" class="edge"><title>Node2&#45;&gt;Node1</title>
<path fill="none" stroke="midnightblue" d="M58,-104.623C58,-95.5202 58,-86.1166 58,-77.3705"/>
<polygon fill="none" stroke="midnightblue" points="54.5001,-104.722 58,-114.723 61.5001,-104.723 54.5001,-104.722"/>
</g>
</g>
</svg>
