<?xml version="1.0" encoding="UTF-8" standalone="no"?>
<!DOCTYPE svg PUBLIC "-//W3C//DTD SVG 1.1//EN"
 "http://www.w3.org/Graphics/SVG/1.1/DTD/svg11.dtd">
<!-- Generated by graphviz version 2.26.3 (20100126.1600)
 -->
<!-- Title: IFileTreeDir Pages: 1 -->
<svg width="106pt" height="200pt"
 viewBox="0.00 0.00 106.00 200.00" xmlns="http://www.w3.org/2000/svg" xmlns:xlink="http://www.w3.org/1999/xlink">
<g id="graph1" class="graph" transform="scale(1 1) rotate(0) translate(4 196)">
<title>IFileTreeDir</title>
<polygon fill="white" stroke="white" points="-4,5 -4,-196 103,-196 103,5 -4,5"/>
<!-- Node1 -->
<g id="node1" class="node"><title>Node1</title>
<polygon fill="#bfbfbf" stroke="black" points="0,-1 0,-77 98,-77 98,-1 0,-1"/>
<text text-anchor="middle" x="49" y="-64" font-family="Helvetica,sans-Serif" font-size="10.00">IFileTreeDir</text>
<polyline fill="none" stroke="black" points="0,-56 98,-56 "/>
<text text-anchor="middle" x="49" y="-43" font-family="Helvetica,sans-Serif" font-size="10.00"> </text>
<polyline fill="none" stroke="black" points="0,-35 98,-35 "/>
<text text-anchor="start" x="8" y="-22" font-family="Helvetica,sans-Serif" font-size="10.00">+ processChild()</text>
<text text-anchor="start" x="8" y="-9" font-family="Helvetica,sans-Serif" font-size="10.00">+ expandChildren()</text>
</g>
<!-- Node2 -->
<g id="node2" class="node"><title>Node2</title>
<a xlink:href="a00013.html" target="_top" xlink:title="an interface representing a node of file tree with some basic folder functionality such as hashing...">
<polygon fill="white" stroke="black" points="13,-115 13,-191 85,-191 85,-115 13,-115"/>
<text text-anchor="middle" x="49" y="-178" font-family="Helvetica,sans-Serif" font-size="10.00">IFileTreeItem</text>
<polyline fill="none" stroke="black" points="13,-170 85,-170 "/>
<text text-anchor="middle" x="49" y="-157" font-family="Helvetica,sans-Serif" font-size="10.00"> </text>
<polyline fill="none" stroke="black" points="13,-149 85,-149 "/>
<text text-anchor="start" x="21" y="-136" font-family="Helvetica,sans-Serif" font-size="10.00">+ hash()</text>
<text text-anchor="start" x="21" y="-123" font-family="Helvetica,sans-Serif" font-size="10.00">+ process()</text>
</a>
</g>
<!-- Node2&#45;&gt;Node1 -->
<g id="edge2" class="edge"><title>Node2&#45;&gt;Node1</title>
<path fill="none" stroke="midnightblue" d="M49,-104.623C49,-95.5202 49,-86.1166 49,-77.3705"/>
<polygon fill="none" stroke="midnightblue" points="45.5001,-104.722 49,-114.723 52.5001,-104.723 45.5001,-104.722"/>
</g>
</g>
</svg>
