<?xml version="1.0" encoding="UTF-8" standalone="no"?>
<!DOCTYPE svg PUBLIC "-//W3C//DTD SVG 1.1//EN"
 "http://www.w3.org/Graphics/SVG/1.1/DTD/svg11.dtd">
<!-- Generated by graphviz version 2.26.3 (20100126.1600)
 -->
<!-- Title: FileTreeBackuperIndex Pages: 1 -->
<svg width="566pt" height="628pt"
 viewBox="0.00 0.00 566.00 628.00" xmlns="http://www.w3.org/2000/svg" xmlns:xlink="http://www.w3.org/1999/xlink">
<g id="graph1" class="graph" transform="scale(1 1) rotate(0) translate(4 624)">
<title>FileTreeBackuperIndex</title>
<polygon fill="white" stroke="white" points="-4,5 -4,-624 563,-624 563,5 -4,5"/>
<!-- Node1 -->
<g id="node1" class="node"><title>Node1</title>
<polygon fill="#bfbfbf" stroke="black" points="318,-1 318,-285 458,-285 458,-1 318,-1"/>
<text text-anchor="middle" x="388" y="-272" font-family="Helvetica,sans-Serif" font-size="10.00">FileTreeBackuperIndex</text>
<polyline fill="none" stroke="black" points="318,-264 458,-264 "/>
<text text-anchor="start" x="326" y="-251" font-family="Helvetica,sans-Serif" font-size="10.00">+ $base</text>
<text text-anchor="start" x="326" y="-238" font-family="Helvetica,sans-Serif" font-size="10.00">+ $moved</text>
<text text-anchor="start" x="326" y="-225" font-family="Helvetica,sans-Serif" font-size="10.00">+ $deleted</text>
<text text-anchor="start" x="326" y="-212" font-family="Helvetica,sans-Serif" font-size="10.00">+ $changed</text>
<text text-anchor="start" x="326" y="-199" font-family="Helvetica,sans-Serif" font-size="10.00">+ $added</text>
<text text-anchor="start" x="326" y="-186" font-family="Helvetica,sans-Serif" font-size="10.00">+ $ignores</text>
<text text-anchor="start" x="326" y="-173" font-family="Helvetica,sans-Serif" font-size="10.00">+ $inodes</text>
<text text-anchor="start" x="326" y="-160" font-family="Helvetica,sans-Serif" font-size="10.00">+ $queriesTemplates</text>
<text text-anchor="start" x="326" y="-147" font-family="Helvetica,sans-Serif" font-size="10.00">+ $baseStructureBuildQuery</text>
<polyline fill="none" stroke="black" points="318,-139 458,-139 "/>
<text text-anchor="start" x="326" y="-126" font-family="Helvetica,sans-Serif" font-size="10.00">+ __construct()</text>
<text text-anchor="start" x="326" y="-113" font-family="Helvetica,sans-Serif" font-size="10.00">+ load()</text>
<text text-anchor="start" x="326" y="-100" font-family="Helvetica,sans-Serif" font-size="10.00">+ loadChildren()</text>
<text text-anchor="start" x="326" y="-87" font-family="Helvetica,sans-Serif" font-size="10.00">+ needBackup()</text>
<text text-anchor="start" x="326" y="-74" font-family="Helvetica,sans-Serif" font-size="10.00">+ save()</text>
<text text-anchor="start" x="326" y="-61" font-family="Helvetica,sans-Serif" font-size="10.00">+ saveAdded()</text>
<text text-anchor="start" x="326" y="-48" font-family="Helvetica,sans-Serif" font-size="10.00">+ saveChanged()</text>
<text text-anchor="start" x="326" y="-35" font-family="Helvetica,sans-Serif" font-size="10.00">+ saveMoved()</text>
<text text-anchor="start" x="326" y="-22" font-family="Helvetica,sans-Serif" font-size="10.00">+ saveDeleted()</text>
<text text-anchor="start" x="326" y="-9" font-family="Helvetica,sans-Serif" font-size="10.00">+ makeCommitRecord()</text>
</g>
<!-- Node2 -->
<g id="node2" class="node"><title>Node2</title>
<a xlink:href="a00002.html" target="_top" xlink:title="A class for mantaining index.">
<polygon fill="white" stroke="black" points="177,-325 177,-479 339,-479 339,-325 177,-325"/>
<text text-anchor="middle" x="258" y="-466" font-family="Helvetica,sans-Serif" font-size="10.00">BackuperIndex</text>
<polyline fill="none" stroke="black" points="177,-458 339,-458 "/>
<text text-anchor="start" x="185" y="-445" font-family="Helvetica,sans-Serif" font-size="10.00">+ $base</text>
<text text-anchor="start" x="185" y="-432" font-family="Helvetica,sans-Serif" font-size="10.00">+ $queries</text>
<text text-anchor="start" x="185" y="-419" font-family="Helvetica,sans-Serif" font-size="10.00">+ $queriesTemplates</text>
<text text-anchor="start" x="185" y="-406" font-family="Helvetica,sans-Serif" font-size="10.00">+ $baseStructureBuildQuery</text>
<polyline fill="none" stroke="black" points="177,-398 339,-398 "/>
<text text-anchor="start" x="185" y="-385" font-family="Helvetica,sans-Serif" font-size="10.00">+ __construct()</text>
<text text-anchor="start" x="185" y="-372" font-family="Helvetica,sans-Serif" font-size="10.00">+ prepareQueries()</text>
<text text-anchor="start" x="185" y="-359" font-family="Helvetica,sans-Serif" font-size="10.00">+ checkInitializedAndInitMissing()</text>
<text text-anchor="start" x="185" y="-346" font-family="Helvetica,sans-Serif" font-size="10.00">+ load()</text>
<text text-anchor="start" x="185" y="-333" font-family="Helvetica,sans-Serif" font-size="10.00">+ __destruct()</text>
</a>
</g>
<!-- Node2&#45;&gt;Node1 -->
<g id="edge2" class="edge"><title>Node2&#45;&gt;Node1</title>
<path fill="none" stroke="midnightblue" d="M301.296,-315.74C306.651,-305.072 312.227,-293.962 317.856,-282.749"/>
<polygon fill="none" stroke="midnightblue" points="298.01,-314.485 296.652,-324.993 304.266,-317.625 298.01,-314.485"/>
</g>
<!-- Node3 -->
<g id="node4" class="node"><title>Node3</title>
<a xlink:href="a00011.html" target="_top" xlink:title="{IBackuperIndex\n||+ checkInitializedAndInitMissing()\l+ load()\l}">
<polygon fill="white" stroke="black" points="0,-543 0,-619 162,-619 162,-543 0,-543"/>
<text text-anchor="middle" x="81" y="-606" font-family="Helvetica,sans-Serif" font-size="10.00">IBackuperIndex</text>
<polyline fill="none" stroke="black" points="0,-598 162,-598 "/>
<text text-anchor="middle" x="81" y="-585" font-family="Helvetica,sans-Serif" font-size="10.00"> </text>
<polyline fill="none" stroke="black" points="0,-577 162,-577 "/>
<text text-anchor="start" x="8" y="-564" font-family="Helvetica,sans-Serif" font-size="10.00">+ checkInitializedAndInitMissing()</text>
<text text-anchor="start" x="8" y="-551" font-family="Helvetica,sans-Serif" font-size="10.00">+ load()</text>
</a>
</g>
<!-- Node3&#45;&gt;Node2 -->
<g id="edge4" class="edge"><title>Node3&#45;&gt;Node2</title>
<path fill="none" stroke="midnightblue" d="M126.02,-535.471C142.893,-518.408 162.571,-498.507 181.503,-479.361"/>
<polygon fill="none" stroke="midnightblue" points="123.513,-533.028 118.971,-542.6 128.491,-537.95 123.513,-533.028"/>
</g>
<!-- Node4 -->
<g id="node6" class="node"><title>Node4</title>
<polygon fill="white" stroke="#bfbfbf" points="373.5,-549.5 373.5,-612.5 414.5,-612.5 414.5,-549.5 373.5,-549.5"/>
<text text-anchor="middle" x="394" y="-599.5" font-family="Helvetica,sans-Serif" font-size="10.00">static</text>
<polyline fill="none" stroke="#bfbfbf" points="373.5,-591.5 414.5,-591.5 "/>
<text text-anchor="middle" x="394" y="-578.5" font-family="Helvetica,sans-Serif" font-size="10.00"> </text>
<polyline fill="none" stroke="#bfbfbf" points="373.5,-570.5 414.5,-570.5 "/>
<text text-anchor="middle" x="394" y="-557.5" font-family="Helvetica,sans-Serif" font-size="10.00"> </text>
</g>
<!-- Node4&#45;&gt;Node1 -->
<g id="edge10" class="edge"><title>Node4&#45;&gt;Node1</title>
<path fill="none" stroke="#404040" d="M414.687,-564.648C425.984,-554.35 438.886,-540.001 445,-524 449.124,-513.205 445.919,-509.519 445,-498 439.719,-431.798 428.982,-359.307 418.237,-297.188"/>
<polygon fill="none" stroke="#404040" points="418.227,-297.132 413.254,-291.911 416.161,-285.312 421.134,-290.533 418.227,-297.132"/>
<text text-anchor="middle" x="500.5" y="-406" font-family="Helvetica,sans-Serif" font-size="10.00"> $queriesTemplates</text>
<text text-anchor="middle" x="500.5" y="-393" font-family="Helvetica,sans-Serif" font-size="10.00">$baseStructureBuildQuery</text>
</g>
<!-- Node4&#45;&gt;Node2 -->
<g id="edge6" class="edge"><title>Node4&#45;&gt;Node2</title>
<path fill="none" stroke="#404040" d="M373.468,-565.471C360.111,-554.74 342.852,-539.63 330,-524 321.301,-513.421 312.98,-501.672 305.284,-489.762"/>
<polygon fill="none" stroke="#404040" points="305.079,-489.436 298.498,-486.488 298.688,-479.28 305.269,-482.227 305.079,-489.436"/>
<text text-anchor="middle" x="387.5" y="-515" font-family="Helvetica,sans-Serif" font-size="10.00"> $queriesTemplates</text>
<text text-anchor="middle" x="387.5" y="-502" font-family="Helvetica,sans-Serif" font-size="10.00">$baseStructureBuildQuery</text>
</g>
<!-- Node5 -->
<g id="node8" class="node"><title>Node5</title>
<polygon fill="white" stroke="#bfbfbf" points="179.5,-549.5 179.5,-612.5 220.5,-612.5 220.5,-549.5 179.5,-549.5"/>
<text text-anchor="middle" x="200" y="-599.5" font-family="Helvetica,sans-Serif" font-size="10.00">const</text>
<polyline fill="none" stroke="#bfbfbf" points="179.5,-591.5 220.5,-591.5 "/>
<text text-anchor="middle" x="200" y="-578.5" font-family="Helvetica,sans-Serif" font-size="10.00"> </text>
<polyline fill="none" stroke="#bfbfbf" points="179.5,-570.5 220.5,-570.5 "/>
<text text-anchor="middle" x="200" y="-557.5" font-family="Helvetica,sans-Serif" font-size="10.00"> </text>
</g>
<!-- Node5&#45;&gt;Node2 -->
<g id="edge8" class="edge"><title>Node5&#45;&gt;Node2</title>
<path fill="none" stroke="#404040" d="M196.567,-549.315C195.819,-533.605 196.361,-514.509 201,-498 201.724,-495.423 202.536,-492.844 203.425,-490.271"/>
<polygon fill="none" stroke="#404040" points="203.435,-490.245 201.873,-483.205 207.771,-479.056 209.333,-486.096 203.435,-490.245"/>
<text text-anchor="middle" x="254" y="-508.5" font-family="Helvetica,sans-Serif" font-size="10.00"> createTableQueryTempl</text>
</g>
</g>
</svg>
