<?xml version="1.0" encoding="UTF-8" standalone="no"?>
<!DOCTYPE svg PUBLIC "-//W3C//DTD SVG 1.1//EN"
 "http://www.w3.org/Graphics/SVG/1.1/DTD/svg11.dtd">
<!-- Generated by graphviz version 2.26.3 (20100126.1600)
 -->
<!-- Title: FileTreeBackuperIndex Pages: 1 -->
<svg width="566pt" height="600pt"
 viewBox="0.00 0.00 566.00 600.00" xmlns="http://www.w3.org/2000/svg" xmlns:xlink="http://www.w3.org/1999/xlink">
<g id="graph1" class="graph" transform="scale(1 1) rotate(0) translate(4 596)">
<title>FileTreeBackuperIndex</title>
<polygon fill="white" stroke="white" points="-4,5 -4,-596 563,-596 563,5 -4,5"/>
<!-- Node1 -->
<g id="node1" class="node"><title>Node1</title>
<polygon fill="#bfbfbf" stroke="black" points="318,-0.5 318,-271.5 458,-271.5 458,-0.5 318,-0.5"/>
<text text-anchor="middle" x="388" y="-258.5" font-family="Helvetica,sans-Serif" font-size="10.00">FileTreeBackuperIndex</text>
<polyline fill="none" stroke="black" points="318,-250.5 458,-250.5 "/>
<text text-anchor="start" x="326" y="-237.5" font-family="Helvetica,sans-Serif" font-size="10.00">+ $base</text>
<text text-anchor="start" x="326" y="-224.5" font-family="Helvetica,sans-Serif" font-size="10.00">+ $moved</text>
<text text-anchor="start" x="326" y="-211.5" font-family="Helvetica,sans-Serif" font-size="10.00">+ $deleted</text>
<text text-anchor="start" x="326" y="-198.5" font-family="Helvetica,sans-Serif" font-size="10.00">+ $changed</text>
<text text-anchor="start" x="326" y="-185.5" font-family="Helvetica,sans-Serif" font-size="10.00">+ $added</text>
<text text-anchor="start" x="326" y="-172.5" font-family="Helvetica,sans-Serif" font-size="10.00">+ $ignores</text>
<text text-anchor="start" x="326" y="-159.5" font-family="Helvetica,sans-Serif" font-size="10.00">+ $inodes</text>
<text text-anchor="start" x="326" y="-146.5" font-family="Helvetica,sans-Serif" font-size="10.00">+ $queriesTemplates</text>
<text text-anchor="start" x="326" y="-133.5" font-family="Helvetica,sans-Serif" font-size="10.00">+ $baseStructureBuildQuery</text>
<polyline fill="none" stroke="black" points="318,-125.5 458,-125.5 "/>
<text text-anchor="start" x="326" y="-112.5" font-family="Helvetica,sans-Serif" font-size="10.00">+ load()</text>
<text text-anchor="start" x="326" y="-99.5" font-family="Helvetica,sans-Serif" font-size="10.00">+ loadChildren()</text>
<text text-anchor="start" x="326" y="-86.5" font-family="Helvetica,sans-Serif" font-size="10.00">+ needBackup()</text>
<text text-anchor="start" x="326" y="-73.5" font-family="Helvetica,sans-Serif" font-size="10.00">+ save()</text>
<text text-anchor="start" x="326" y="-60.5" font-family="Helvetica,sans-Serif" font-size="10.00">+ saveAdded()</text>
<text text-anchor="start" x="326" y="-47.5" font-family="Helvetica,sans-Serif" font-size="10.00">+ saveChanged()</text>
<text text-anchor="start" x="326" y="-34.5" font-family="Helvetica,sans-Serif" font-size="10.00">+ saveMoved()</text>
<text text-anchor="start" x="326" y="-21.5" font-family="Helvetica,sans-Serif" font-size="10.00">+ saveDeleted()</text>
<text text-anchor="start" x="326" y="-8.5" font-family="Helvetica,sans-Serif" font-size="10.00">+ makeCommitRecord()</text>
</g>
<!-- Node2 -->
<g id="node2" class="node"><title>Node2</title>
<a xlink:href="a00002.html" target="_top" xlink:title="A class for mantaining index.">
<polygon fill="white" stroke="black" points="177,-310.5 177,-451.5 339,-451.5 339,-310.5 177,-310.5"/>
<text text-anchor="middle" x="258" y="-438.5" font-family="Helvetica,sans-Serif" font-size="10.00">BackuperIndex</text>
<polyline fill="none" stroke="black" points="177,-430.5 339,-430.5 "/>
<text text-anchor="start" x="185" y="-417.5" font-family="Helvetica,sans-Serif" font-size="10.00">+ $base</text>
<text text-anchor="start" x="185" y="-404.5" font-family="Helvetica,sans-Serif" font-size="10.00">+ $queries</text>
<text text-anchor="start" x="185" y="-391.5" font-family="Helvetica,sans-Serif" font-size="10.00">+ $queriesTemplates</text>
<text text-anchor="start" x="185" y="-378.5" font-family="Helvetica,sans-Serif" font-size="10.00">+ $baseStructureBuildQuery</text>
<polyline fill="none" stroke="black" points="177,-370.5 339,-370.5 "/>
<text text-anchor="start" x="185" y="-357.5" font-family="Helvetica,sans-Serif" font-size="10.00">+ __construct()</text>
<text text-anchor="start" x="185" y="-344.5" font-family="Helvetica,sans-Serif" font-size="10.00">+ checkInitializedAndInitMissing()</text>
<text text-anchor="start" x="185" y="-331.5" font-family="Helvetica,sans-Serif" font-size="10.00">+ load()</text>
<text text-anchor="start" x="185" y="-318.5" font-family="Helvetica,sans-Serif" font-size="10.00">+ __destruct()</text>
</a>
</g>
<!-- Node2&#45;&gt;Node1 -->
<g id="edge2" class="edge"><title>Node2&#45;&gt;Node1</title>
<path fill="none" stroke="midnightblue" d="M300.177,-301.513C305.912,-290.704 311.92,-279.382 317.986,-267.95"/>
<polygon fill="none" stroke="midnightblue" points="297.022,-299.991 295.427,-310.465 303.206,-303.272 297.022,-299.991"/>
</g>
<!-- Node3 -->
<g id="node4" class="node"><title>Node3</title>
<a xlink:href="a00011.html" target="_top" xlink:title="{IBackuperIndex\n||+ checkInitializedAndInitMissing()\l+ load()\l}">
<polygon fill="white" stroke="black" points="0,-515 0,-591 162,-591 162,-515 0,-515"/>
<text text-anchor="middle" x="81" y="-578" font-family="Helvetica,sans-Serif" font-size="10.00">IBackuperIndex</text>
<polyline fill="none" stroke="black" points="0,-570 162,-570 "/>
<text text-anchor="middle" x="81" y="-557" font-family="Helvetica,sans-Serif" font-size="10.00"> </text>
<polyline fill="none" stroke="black" points="0,-549 162,-549 "/>
<text text-anchor="start" x="8" y="-536" font-family="Helvetica,sans-Serif" font-size="10.00">+ checkInitializedAndInitMissing()</text>
<text text-anchor="start" x="8" y="-523" font-family="Helvetica,sans-Serif" font-size="10.00">+ load()</text>
</a>
</g>
<!-- Node3&#45;&gt;Node2 -->
<g id="edge4" class="edge"><title>Node3&#45;&gt;Node2</title>
<path fill="none" stroke="midnightblue" d="M127.662,-507.656C145.321,-490.496 165.867,-470.53 185.353,-451.595"/>
<polygon fill="none" stroke="midnightblue" points="125.015,-505.348 120.282,-514.828 129.893,-510.369 125.015,-505.348"/>
</g>
<!-- Node4 -->
<g id="node6" class="node"><title>Node4</title>
<polygon fill="white" stroke="#bfbfbf" points="373.5,-521.5 373.5,-584.5 414.5,-584.5 414.5,-521.5 373.5,-521.5"/>
<text text-anchor="middle" x="394" y="-571.5" font-family="Helvetica,sans-Serif" font-size="10.00">static</text>
<polyline fill="none" stroke="#bfbfbf" points="373.5,-563.5 414.5,-563.5 "/>
<text text-anchor="middle" x="394" y="-550.5" font-family="Helvetica,sans-Serif" font-size="10.00"> </text>
<polyline fill="none" stroke="#bfbfbf" points="373.5,-542.5 414.5,-542.5 "/>
<text text-anchor="middle" x="394" y="-529.5" font-family="Helvetica,sans-Serif" font-size="10.00"> </text>
</g>
<!-- Node4&#45;&gt;Node1 -->
<g id="edge10" class="edge"><title>Node4&#45;&gt;Node1</title>
<path fill="none" stroke="#404040" d="M414.687,-536.648C425.984,-526.35 438.886,-512.001 445,-496 449.124,-485.205 445.975,-481.514 445,-470 439.797,-408.583 429.304,-341.488 418.723,-283.652"/>
<polygon fill="none" stroke="#404040" points="418.72,-283.635 413.695,-278.463 416.537,-271.835 421.562,-277.007 418.72,-283.635"/>
<text text-anchor="middle" x="500.5" y="-385" font-family="Helvetica,sans-Serif" font-size="10.00"> $queriesTemplates</text>
<text text-anchor="middle" x="500.5" y="-372" font-family="Helvetica,sans-Serif" font-size="10.00">$baseStructureBuildQuery</text>
</g>
<!-- Node4&#45;&gt;Node2 -->
<g id="edge6" class="edge"><title>Node4&#45;&gt;Node2</title>
<path fill="none" stroke="#404040" d="M373.308,-537.121C360.049,-526.358 342.96,-511.346 330,-496 321.125,-485.491 312.553,-473.792 304.607,-461.994"/>
<polygon fill="none" stroke="#404040" points="304.384,-461.656 297.746,-458.839 297.793,-451.628 304.431,-454.445 304.384,-461.656"/>
<text text-anchor="middle" x="387.5" y="-487" font-family="Helvetica,sans-Serif" font-size="10.00"> $queriesTemplates</text>
<text text-anchor="middle" x="387.5" y="-474" font-family="Helvetica,sans-Serif" font-size="10.00">$baseStructureBuildQuery</text>
</g>
<!-- Node5 -->
<g id="node8" class="node"><title>Node5</title>
<polygon fill="white" stroke="#bfbfbf" points="179.5,-521.5 179.5,-584.5 220.5,-584.5 220.5,-521.5 179.5,-521.5"/>
<text text-anchor="middle" x="200" y="-571.5" font-family="Helvetica,sans-Serif" font-size="10.00">const</text>
<polyline fill="none" stroke="#bfbfbf" points="179.5,-563.5 220.5,-563.5 "/>
<text text-anchor="middle" x="200" y="-550.5" font-family="Helvetica,sans-Serif" font-size="10.00"> </text>
<polyline fill="none" stroke="#bfbfbf" points="179.5,-542.5 220.5,-542.5 "/>
<text text-anchor="middle" x="200" y="-529.5" font-family="Helvetica,sans-Serif" font-size="10.00"> </text>
</g>
<!-- Node5&#45;&gt;Node2 -->
<g id="edge8" class="edge"><title>Node5&#45;&gt;Node2</title>
<path fill="none" stroke="#404040" d="M196.328,-521.245C195.521,-505.518 196.082,-486.429 201,-470 201.719,-467.597 202.524,-465.196 203.404,-462.805"/>
<polygon fill="none" stroke="#404040" points="203.411,-462.788 202.024,-455.711 208.022,-451.709 209.41,-458.785 203.411,-462.788"/>
<text text-anchor="middle" x="254" y="-480.5" font-family="Helvetica,sans-Serif" font-size="10.00"> createTableQueryTempl</text>
</g>
</g>
</svg>
