<?xml version="1.0" encoding="UTF-8" standalone="no"?>
<!DOCTYPE svg PUBLIC "-//W3C//DTD SVG 1.1//EN"
 "http://www.w3.org/Graphics/SVG/1.1/DTD/svg11.dtd">
<!-- Generated by graphviz version 2.26.3 (20100126.1600)
 -->
<!-- Title: FileTreeItem Pages: 1 -->
<svg width="134pt" height="636pt"
 viewBox="0.00 0.00 134.00 636.00" xmlns="http://www.w3.org/2000/svg" xmlns:xlink="http://www.w3.org/1999/xlink">
<g id="graph1" class="graph" transform="scale(1 1) rotate(0) translate(4 632)">
<title>FileTreeItem</title>
<polygon fill="white" stroke="white" points="-4,5 -4,-632 131,-632 131,5 -4,5"/>
<!-- Node1 -->
<g id="node1" class="node"><title>Node1</title>
<polygon fill="#bfbfbf" stroke="black" points="2.5,-359 2.5,-513 123.5,-513 123.5,-359 2.5,-359"/>
<text text-anchor="middle" x="63" y="-500" font-family="Helvetica,sans-Serif" font-size="10.00">FileTreeItem</text>
<polyline fill="none" stroke="black" points="2.5,-492 123.5,-492 "/>
<text text-anchor="start" x="10.5" y="-479" font-family="Helvetica,sans-Serif" font-size="10.00">+ $name</text>
<text text-anchor="start" x="10.5" y="-466" font-family="Helvetica,sans-Serif" font-size="10.00">+ $parent</text>
<text text-anchor="start" x="10.5" y="-453" font-family="Helvetica,sans-Serif" font-size="10.00">+ $hash</text>
<text text-anchor="start" x="10.5" y="-440" font-family="Helvetica,sans-Serif" font-size="10.00">+ $pathhash</text>
<text text-anchor="start" x="10.5" y="-427" font-family="Helvetica,sans-Serif" font-size="10.00">+ $attributesForHashing</text>
<polyline fill="none" stroke="black" points="2.5,-419 123.5,-419 "/>
<text text-anchor="start" x="10.5" y="-406" font-family="Helvetica,sans-Serif" font-size="10.00">+ showAtrs()</text>
<text text-anchor="start" x="10.5" y="-393" font-family="Helvetica,sans-Serif" font-size="10.00">+ __construct()</text>
<text text-anchor="start" x="10.5" y="-380" font-family="Helvetica,sans-Serif" font-size="10.00">+ hash()</text>
<text text-anchor="start" x="10.5" y="-367" font-family="Helvetica,sans-Serif" font-size="10.00">+ process()</text>
</g>
<!-- Node3 -->
<g id="node5" class="node"><title>Node3</title>
<a xlink:href="a00008.html" target="_top" xlink:title="a class representing a folder with some basic folder functionality such as expanding children...">
<polygon fill="white" stroke="black" points="14,-193 14,-321 112,-321 112,-193 14,-193"/>
<text text-anchor="middle" x="63" y="-308" font-family="Helvetica,sans-Serif" font-size="10.00">FileTreeDir</text>
<polyline fill="none" stroke="black" points="14,-300 112,-300 "/>
<text text-anchor="start" x="22" y="-287" font-family="Helvetica,sans-Serif" font-size="10.00">+ $children</text>
<text text-anchor="start" x="22" y="-274" font-family="Helvetica,sans-Serif" font-size="10.00">+ $path</text>
<text text-anchor="start" x="22" y="-261" font-family="Helvetica,sans-Serif" font-size="10.00"># $childrenIter</text>
<polyline fill="none" stroke="black" points="14,-253 112,-253 "/>
<text text-anchor="start" x="22" y="-240" font-family="Helvetica,sans-Serif" font-size="10.00">+ __construct()</text>
<text text-anchor="start" x="22" y="-227" font-family="Helvetica,sans-Serif" font-size="10.00">+ process()</text>
<text text-anchor="start" x="22" y="-214" font-family="Helvetica,sans-Serif" font-size="10.00">+ expandChildren()</text>
<text text-anchor="start" x="22" y="-201" font-family="Helvetica,sans-Serif" font-size="10.00">+ processChild()</text>
</a>
</g>
<!-- Node1&#45;&gt;Node3 -->
<g id="edge4" class="edge"><title>Node1&#45;&gt;Node3</title>
<path fill="none" stroke="midnightblue" d="M63,-348.71C63,-339.392 63,-330.042 63,-321.065"/>
<polygon fill="none" stroke="midnightblue" points="59.5001,-348.789 63,-358.789 66.5001,-348.789 59.5001,-348.789"/>
</g>
<!-- Node2 -->
<g id="node2" class="node"><title>Node2</title>
<a xlink:href="a00013.html" target="_top" xlink:title="an interface representing a node of file tree with some basic folder functionality such as hashing...">
<polygon fill="white" stroke="black" points="27,-551 27,-627 99,-627 99,-551 27,-551"/>
<text text-anchor="middle" x="63" y="-614" font-family="Helvetica,sans-Serif" font-size="10.00">IFileTreeItem</text>
<polyline fill="none" stroke="black" points="27,-606 99,-606 "/>
<text text-anchor="middle" x="63" y="-593" font-family="Helvetica,sans-Serif" font-size="10.00"> </text>
<polyline fill="none" stroke="black" points="27,-585 99,-585 "/>
<text text-anchor="start" x="35" y="-572" font-family="Helvetica,sans-Serif" font-size="10.00">+ hash()</text>
<text text-anchor="start" x="35" y="-559" font-family="Helvetica,sans-Serif" font-size="10.00">+ process()</text>
</a>
</g>
<!-- Node2&#45;&gt;Node1 -->
<g id="edge2" class="edge"><title>Node2&#45;&gt;Node1</title>
<path fill="none" stroke="midnightblue" d="M63,-540.742C63,-531.93 63,-522.536 63,-513.129"/>
<polygon fill="none" stroke="midnightblue" points="59.5001,-540.786 63,-550.786 66.5001,-540.786 59.5001,-540.786"/>
</g>
<!-- Node4 -->
<g id="node7" class="node"><title>Node4</title>
<a xlink:href="a00005.html" target="_top" xlink:title="a class representing a directory with backup functionality not for direct usage">
<polygon fill="white" stroke="black" points="0,-1 0,-155 126,-155 126,-1 0,-1"/>
<text text-anchor="middle" x="63" y="-142" font-family="Helvetica,sans-Serif" font-size="10.00">FileTreeBackupDir</text>
<polyline fill="none" stroke="black" points="0,-134 126,-134 "/>
<text text-anchor="start" x="8" y="-121" font-family="Helvetica,sans-Serif" font-size="10.00">+ $index</text>
<text text-anchor="start" x="8" y="-108" font-family="Helvetica,sans-Serif" font-size="10.00">+ $childrenCache</text>
<text text-anchor="start" x="8" y="-95" font-family="Helvetica,sans-Serif" font-size="10.00">+ $root</text>
<text text-anchor="start" x="8" y="-82" font-family="Helvetica,sans-Serif" font-size="10.00">+ $relPath</text>
<polyline fill="none" stroke="black" points="0,-74 126,-74 "/>
<text text-anchor="start" x="8" y="-61" font-family="Helvetica,sans-Serif" font-size="10.00">+ __construct()</text>
<text text-anchor="start" x="8" y="-48" font-family="Helvetica,sans-Serif" font-size="10.00">+ getRelPath()</text>
<text text-anchor="start" x="8" y="-35" font-family="Helvetica,sans-Serif" font-size="10.00">+ expandChildren()</text>
<text text-anchor="start" x="8" y="-22" font-family="Helvetica,sans-Serif" font-size="10.00">+ processChild()</text>
<text text-anchor="start" x="8" y="-9" font-family="Helvetica,sans-Serif" font-size="10.00">+ checkDeletedChildren()</text>
</a>
</g>
<!-- Node3&#45;&gt;Node4 -->
<g id="edge6" class="edge"><title>Node3&#45;&gt;Node4</title>
<path fill="none" stroke="midnightblue" d="M63,-182.709C63,-173.598 63,-164.271 63,-155.119"/>
<polygon fill="none" stroke="midnightblue" points="59.5001,-182.882 63,-192.882 66.5001,-182.883 59.5001,-182.882"/>
</g>
</g>
</svg>
