<?xml version="1.0" encoding="UTF-8" standalone="no"?>
<!DOCTYPE svg PUBLIC "-//W3C//DTD SVG 1.1//EN"
 "http://www.w3.org/Graphics/SVG/1.1/DTD/svg11.dtd">
<!-- Generated by graphviz version 2.26.3 (20100126.1600)
 -->
<!-- Title: Backuper Pages: 1 -->
<svg width="138pt" height="354pt"
 viewBox="0.00 0.00 138.00 354.00" xmlns="http://www.w3.org/2000/svg" xmlns:xlink="http://www.w3.org/1999/xlink">
<g id="graph1" class="graph" transform="scale(1 1) rotate(0) translate(4 350)">
<title>Backuper</title>
<polygon fill="white" stroke="white" points="-4,5 -4,-350 135,-350 135,5 -4,5"/>
<!-- Node1 -->
<g id="node1" class="node"><title>Node1</title>
<polygon fill="#bfbfbf" stroke="black" points="-0.5,-0.5 -0.5,-219.5 110.5,-219.5 110.5,-0.5 -0.5,-0.5"/>
<text text-anchor="middle" x="55" y="-206.5" font-family="Helvetica,sans-Serif" font-size="10.00">Backuper</text>
<polyline fill="none" stroke="black" points="-0.5,-198.5 110.5,-198.5 "/>
<text text-anchor="start" x="7.5" y="-185.5" font-family="Helvetica,sans-Serif" font-size="10.00">+ $index</text>
<text text-anchor="start" x="7.5" y="-172.5" font-family="Helvetica,sans-Serif" font-size="10.00">+ $roots</text>
<text text-anchor="start" x="7.5" y="-159.5" font-family="Helvetica,sans-Serif" font-size="10.00">+ $zip</text>
<text text-anchor="start" x="7.5" y="-146.5" font-family="Helvetica,sans-Serif" font-size="10.00">+ $plugins</text>
<text text-anchor="start" x="7.5" y="-133.5" font-family="Helvetica,sans-Serif" font-size="10.00">+ $archiveTempDir</text>
<text text-anchor="start" x="7.5" y="-120.5" font-family="Helvetica,sans-Serif" font-size="10.00">+ $indexFileName</text>
<polyline fill="none" stroke="black" points="-0.5,-112.5 110.5,-112.5 "/>
<text text-anchor="start" x="7.5" y="-99.5" font-family="Helvetica,sans-Serif" font-size="10.00">+ __construct()</text>
<text text-anchor="start" x="7.5" y="-86.5" font-family="Helvetica,sans-Serif" font-size="10.00">+ initPlugins()</text>
<text text-anchor="start" x="7.5" y="-73.5" font-family="Helvetica,sans-Serif" font-size="10.00">+ backupIndex()</text>
<text text-anchor="start" x="7.5" y="-60.5" font-family="Helvetica,sans-Serif" font-size="10.00">+ needBackup()</text>
<text text-anchor="start" x="7.5" y="-47.5" font-family="Helvetica,sans-Serif" font-size="10.00">+ makeBackup()</text>
<text text-anchor="start" x="7.5" y="-34.5" font-family="Helvetica,sans-Serif" font-size="10.00">+ prepareForBackup()</text>
<text text-anchor="start" x="7.5" y="-21.5" font-family="Helvetica,sans-Serif" font-size="10.00">+ makeBackups()</text>
<text text-anchor="start" x="7.5" y="-8.5" font-family="Helvetica,sans-Serif" font-size="10.00">+ save()</text>
</g>
<!-- Node2 -->
<g id="node2" class="node"><title>Node2</title>
<polygon fill="white" stroke="#bfbfbf" points="34.5,-282.5 34.5,-345.5 75.5,-345.5 75.5,-282.5 34.5,-282.5"/>
<text text-anchor="middle" x="55" y="-332.5" font-family="Helvetica,sans-Serif" font-size="10.00">static</text>
<polyline fill="none" stroke="#bfbfbf" points="34.5,-324.5 75.5,-324.5 "/>
<text text-anchor="middle" x="55" y="-311.5" font-family="Helvetica,sans-Serif" font-size="10.00"> </text>
<polyline fill="none" stroke="#bfbfbf" points="34.5,-303.5 75.5,-303.5 "/>
<text text-anchor="middle" x="55" y="-290.5" font-family="Helvetica,sans-Serif" font-size="10.00"> </text>
</g>
<!-- Node2&#45;&gt;Node1 -->
<g id="edge2" class="edge"><title>Node2&#45;&gt;Node1</title>
<path fill="none" stroke="#404040" d="M55,-282.125C55,-268.061 55,-250.548 55,-232.124"/>
<polygon fill="none" stroke="#404040" points="55.0001,-231.912 51,-225.912 55,-219.912 59,-225.912 55.0001,-231.912"/>
<text text-anchor="middle" x="92.5" y="-255" font-family="Helvetica,sans-Serif" font-size="10.00"> $archiveTempDir</text>
<text text-anchor="middle" x="92.5" y="-242" font-family="Helvetica,sans-Serif" font-size="10.00">$indexFileName</text>
</g>
</g>
</svg>
