<?xml version="1.0" encoding="UTF-8" standalone="no"?>
<!DOCTYPE svg PUBLIC "-//W3C//DTD SVG 1.1//EN"
 "http://www.w3.org/Graphics/SVG/1.1/DTD/svg11.dtd">
<!-- Generated by graphviz version 2.26.3 (20100126.1600)
 -->
<!-- Title: BackuperIndex Pages: 1 -->
<svg width="441pt" height="290pt"
 viewBox="0.00 0.00 441.00 290.00" xmlns="http://www.w3.org/2000/svg" xmlns:xlink="http://www.w3.org/1999/xlink">
<g id="graph1" class="graph" transform="scale(1 1) rotate(0) translate(4 286)">
<title>BackuperIndex</title>
<polygon fill="white" stroke="white" points="-4,5 -4,-286 438,-286 438,5 -4,5"/>
<!-- Node1 -->
<g id="node1" class="node"><title>Node1</title>
<polygon fill="#bfbfbf" stroke="black" points="119,-0.5 119,-141.5 281,-141.5 281,-0.5 119,-0.5"/>
<text text-anchor="middle" x="200" y="-128.5" font-family="Helvetica,sans-Serif" font-size="10.00">BackuperIndex</text>
<polyline fill="none" stroke="black" points="119,-120.5 281,-120.5 "/>
<text text-anchor="start" x="127" y="-107.5" font-family="Helvetica,sans-Serif" font-size="10.00">+ $base</text>
<text text-anchor="start" x="127" y="-94.5" font-family="Helvetica,sans-Serif" font-size="10.00">+ $queries</text>
<text text-anchor="start" x="127" y="-81.5" font-family="Helvetica,sans-Serif" font-size="10.00">+ $queriesTemplates</text>
<text text-anchor="start" x="127" y="-68.5" font-family="Helvetica,sans-Serif" font-size="10.00">+ $baseStructureBuildQuery</text>
<polyline fill="none" stroke="black" points="119,-60.5 281,-60.5 "/>
<text text-anchor="start" x="127" y="-47.5" font-family="Helvetica,sans-Serif" font-size="10.00">+ __construct()</text>
<text text-anchor="start" x="127" y="-34.5" font-family="Helvetica,sans-Serif" font-size="10.00">+ checkInitializedAndInitMissing()</text>
<text text-anchor="start" x="127" y="-21.5" font-family="Helvetica,sans-Serif" font-size="10.00">+ load()</text>
<text text-anchor="start" x="127" y="-8.5" font-family="Helvetica,sans-Serif" font-size="10.00">+ __destruct()</text>
</g>
<!-- Node2 -->
<g id="node2" class="node"><title>Node2</title>
<a xlink:href="a00011.html" target="_top" xlink:title="{IBackuperIndex\n||+ checkInitializedAndInitMissing()\l+ load()\l}">
<polygon fill="white" stroke="black" points="0,-205 0,-281 162,-281 162,-205 0,-205"/>
<text text-anchor="middle" x="81" y="-268" font-family="Helvetica,sans-Serif" font-size="10.00">IBackuperIndex</text>
<polyline fill="none" stroke="black" points="0,-260 162,-260 "/>
<text text-anchor="middle" x="81" y="-247" font-family="Helvetica,sans-Serif" font-size="10.00"> </text>
<polyline fill="none" stroke="black" points="0,-239 162,-239 "/>
<text text-anchor="start" x="8" y="-226" font-family="Helvetica,sans-Serif" font-size="10.00">+ checkInitializedAndInitMissing()</text>
<text text-anchor="start" x="8" y="-213" font-family="Helvetica,sans-Serif" font-size="10.00">+ load()</text>
</a>
</g>
<!-- Node2&#45;&gt;Node1 -->
<g id="edge2" class="edge"><title>Node2&#45;&gt;Node1</title>
<path fill="none" stroke="midnightblue" d="M113.33,-196.271C124.984,-179.427 138.408,-160.023 151.158,-141.595"/>
<polygon fill="none" stroke="midnightblue" points="110.221,-194.613 107.41,-204.828 115.978,-198.595 110.221,-194.613"/>
</g>
<!-- Node3 -->
<g id="node4" class="node"><title>Node3</title>
<polygon fill="white" stroke="#bfbfbf" points="179.5,-211.5 179.5,-274.5 220.5,-274.5 220.5,-211.5 179.5,-211.5"/>
<text text-anchor="middle" x="200" y="-261.5" font-family="Helvetica,sans-Serif" font-size="10.00">static</text>
<polyline fill="none" stroke="#bfbfbf" points="179.5,-253.5 220.5,-253.5 "/>
<text text-anchor="middle" x="200" y="-240.5" font-family="Helvetica,sans-Serif" font-size="10.00"> </text>
<polyline fill="none" stroke="#bfbfbf" points="179.5,-232.5 220.5,-232.5 "/>
<text text-anchor="middle" x="200" y="-219.5" font-family="Helvetica,sans-Serif" font-size="10.00"> </text>
</g>
<!-- Node3&#45;&gt;Node1 -->
<g id="edge4" class="edge"><title>Node3&#45;&gt;Node1</title>
<path fill="none" stroke="#404040" d="M200,-211.453C200,-195.076 200,-174.225 200,-153.631"/>
<polygon fill="none" stroke="#404040" points="200,-153.572 196,-147.572 200,-141.572 204,-147.572 200,-153.572"/>
<text text-anchor="middle" x="257.5" y="-177" font-family="Helvetica,sans-Serif" font-size="10.00"> $queriesTemplates</text>
<text text-anchor="middle" x="257.5" y="-164" font-family="Helvetica,sans-Serif" font-size="10.00">$baseStructureBuildQuery</text>
</g>
<!-- Node4 -->
<g id="node6" class="node"><title>Node4</title>
<polygon fill="white" stroke="#bfbfbf" points="317.5,-211.5 317.5,-274.5 358.5,-274.5 358.5,-211.5 317.5,-211.5"/>
<text text-anchor="middle" x="338" y="-261.5" font-family="Helvetica,sans-Serif" font-size="10.00">const</text>
<polyline fill="none" stroke="#bfbfbf" points="317.5,-253.5 358.5,-253.5 "/>
<text text-anchor="middle" x="338" y="-240.5" font-family="Helvetica,sans-Serif" font-size="10.00"> </text>
<polyline fill="none" stroke="#bfbfbf" points="317.5,-232.5 358.5,-232.5 "/>
<text text-anchor="middle" x="338" y="-219.5" font-family="Helvetica,sans-Serif" font-size="10.00"> </text>
</g>
<!-- Node4&#45;&gt;Node1 -->
<g id="edge6" class="edge"><title>Node4&#45;&gt;Node1</title>
<path fill="none" stroke="#404040" d="M334.588,-211.426C331.643,-195.016 326.167,-175.259 316,-160 308.834,-149.245 299.93,-139.247 290.263,-130.132"/>
<polygon fill="none" stroke="#404040" points="290.137,-130.018 282.999,-128.994 281.199,-122.011 288.337,-123.035 290.137,-130.018"/>
<text text-anchor="middle" x="380" y="-170.5" font-family="Helvetica,sans-Serif" font-size="10.00"> createTableQueryTempl</text>
</g>
</g>
</svg>
