<?xml version="1.0" encoding="UTF-8" standalone="no"?>
<!DOCTYPE svg PUBLIC "-//W3C//DTD SVG 1.1//EN"
 "http://www.w3.org/Graphics/SVG/1.1/DTD/svg11.dtd">
<!-- Generated by graphviz version 2.26.3 (20100126.1600)
 -->
<!-- Title: FileTreeBackupDir Pages: 1 -->
<svg width="264pt" height="640pt"
 viewBox="0.00 0.00 264.00 640.00" xmlns="http://www.w3.org/2000/svg" xmlns:xlink="http://www.w3.org/1999/xlink">
<g id="graph1" class="graph" transform="scale(1 1) rotate(0) translate(4 636)">
<title>FileTreeBackupDir</title>
<polygon fill="white" stroke="white" points="-4,5 -4,-636 261,-636 261,5 -4,5"/>
<!-- Node1 -->
<g id="node1" class="node"><title>Node1</title>
<polygon fill="#bfbfbf" stroke="black" points="50,-1 50,-155 176,-155 176,-1 50,-1"/>
<text text-anchor="middle" x="113" y="-142" font-family="Helvetica,sans-Serif" font-size="10.00">FileTreeBackupDir</text>
<polyline fill="none" stroke="black" points="50,-134 176,-134 "/>
<text text-anchor="start" x="58" y="-121" font-family="Helvetica,sans-Serif" font-size="10.00">+ $index</text>
<text text-anchor="start" x="58" y="-108" font-family="Helvetica,sans-Serif" font-size="10.00">+ $childrenCache</text>
<text text-anchor="start" x="58" y="-95" font-family="Helvetica,sans-Serif" font-size="10.00">+ $root</text>
<text text-anchor="start" x="58" y="-82" font-family="Helvetica,sans-Serif" font-size="10.00">+ $relPath</text>
<polyline fill="none" stroke="black" points="50,-74 176,-74 "/>
<text text-anchor="start" x="58" y="-61" font-family="Helvetica,sans-Serif" font-size="10.00">+ __construct()</text>
<text text-anchor="start" x="58" y="-48" font-family="Helvetica,sans-Serif" font-size="10.00">+ getRelPath()</text>
<text text-anchor="start" x="58" y="-35" font-family="Helvetica,sans-Serif" font-size="10.00">+ expandChildren()</text>
<text text-anchor="start" x="58" y="-22" font-family="Helvetica,sans-Serif" font-size="10.00">+ processChild()</text>
<text text-anchor="start" x="58" y="-9" font-family="Helvetica,sans-Serif" font-size="10.00">+ checkDeletedChildren()</text>
</g>
<!-- Node2 -->
<g id="node2" class="node"><title>Node2</title>
<a xlink:href="a00009.html" target="_top" xlink:title="a class representing a folder with some basic folder functionality such as expanding children...">
<polygon fill="white" stroke="black" points="64,-195 64,-323 162,-323 162,-195 64,-195"/>
<text text-anchor="middle" x="113" y="-310" font-family="Helvetica,sans-Serif" font-size="10.00">FileTreeDir</text>
<polyline fill="none" stroke="black" points="64,-302 162,-302 "/>
<text text-anchor="start" x="72" y="-289" font-family="Helvetica,sans-Serif" font-size="10.00">+ $children</text>
<text text-anchor="start" x="72" y="-276" font-family="Helvetica,sans-Serif" font-size="10.00">+ $path</text>
<text text-anchor="start" x="72" y="-263" font-family="Helvetica,sans-Serif" font-size="10.00"># $childrenIter</text>
<polyline fill="none" stroke="black" points="64,-255 162,-255 "/>
<text text-anchor="start" x="72" y="-242" font-family="Helvetica,sans-Serif" font-size="10.00">+ __construct()</text>
<text text-anchor="start" x="72" y="-229" font-family="Helvetica,sans-Serif" font-size="10.00">+ process()</text>
<text text-anchor="start" x="72" y="-216" font-family="Helvetica,sans-Serif" font-size="10.00">+ expandChildren()</text>
<text text-anchor="start" x="72" y="-203" font-family="Helvetica,sans-Serif" font-size="10.00">+ processChild()</text>
</a>
</g>
<!-- Node2&#45;&gt;Node1 -->
<g id="edge2" class="edge"><title>Node2&#45;&gt;Node1</title>
<path fill="none" stroke="midnightblue" d="M113,-184.806C113,-174.977 113,-164.883 113,-155.009"/>
<polygon fill="none" stroke="midnightblue" points="109.5,-184.931 113,-194.931 116.5,-184.931 109.5,-184.931"/>
</g>
<!-- Node3 -->
<g id="node4" class="node"><title>Node3</title>
<a xlink:href="a00010.html" target="_top" xlink:title="a class representing a file (or a folder) with some basic functionality">
<polygon fill="white" stroke="black" points="115.5,-362.5 115.5,-503.5 198.5,-503.5 198.5,-362.5 115.5,-362.5"/>
<text text-anchor="middle" x="157" y="-490.5" font-family="Helvetica,sans-Serif" font-size="10.00">FileTreeItem</text>
<polyline fill="none" stroke="black" points="115.5,-482.5 198.5,-482.5 "/>
<text text-anchor="start" x="123.5" y="-469.5" font-family="Helvetica,sans-Serif" font-size="10.00">+ $name</text>
<text text-anchor="start" x="123.5" y="-456.5" font-family="Helvetica,sans-Serif" font-size="10.00">+ $parent</text>
<text text-anchor="start" x="123.5" y="-443.5" font-family="Helvetica,sans-Serif" font-size="10.00">+ $hash</text>
<text text-anchor="start" x="123.5" y="-430.5" font-family="Helvetica,sans-Serif" font-size="10.00">+ $pathhash</text>
<polyline fill="none" stroke="black" points="115.5,-422.5 198.5,-422.5 "/>
<text text-anchor="start" x="123.5" y="-409.5" font-family="Helvetica,sans-Serif" font-size="10.00">+ showAtrs()</text>
<text text-anchor="start" x="123.5" y="-396.5" font-family="Helvetica,sans-Serif" font-size="10.00">+ __construct()</text>
<text text-anchor="start" x="123.5" y="-383.5" font-family="Helvetica,sans-Serif" font-size="10.00">+ hash()</text>
<text text-anchor="start" x="123.5" y="-370.5" font-family="Helvetica,sans-Serif" font-size="10.00">+ process()</text>
</a>
</g>
<!-- Node3&#45;&gt;Node2 -->
<g id="edge4" class="edge"><title>Node3&#45;&gt;Node2</title>
<path fill="none" stroke="midnightblue" d="M136.682,-352.652C134.183,-342.768 131.654,-332.769 129.227,-323.169"/>
<polygon fill="none" stroke="midnightblue" points="133.322,-353.642 139.167,-362.478 140.108,-351.925 133.322,-353.642"/>
</g>
<!-- Node4 -->
<g id="node6" class="node"><title>Node4</title>
<a xlink:href="a00014.html" target="_top" xlink:title="an interface representing a node of file tree with some basic folder functionality such as hashing...">
<polygon fill="white" stroke="black" points="33,-555 33,-631 105,-631 105,-555 33,-555"/>
<text text-anchor="middle" x="69" y="-618" font-family="Helvetica,sans-Serif" font-size="10.00">IFileTreeItem</text>
<polyline fill="none" stroke="black" points="33,-610 105,-610 "/>
<text text-anchor="middle" x="69" y="-597" font-family="Helvetica,sans-Serif" font-size="10.00"> </text>
<polyline fill="none" stroke="black" points="33,-589 105,-589 "/>
<text text-anchor="start" x="41" y="-576" font-family="Helvetica,sans-Serif" font-size="10.00">+ hash()</text>
<text text-anchor="start" x="41" y="-563" font-family="Helvetica,sans-Serif" font-size="10.00">+ process()</text>
</a>
</g>
<!-- Node4&#45;&gt;Node3 -->
<g id="edge6" class="edge"><title>Node4&#45;&gt;Node3</title>
<path fill="none" stroke="midnightblue" d="M94.9783,-545.767C102.258,-532.531 110.333,-517.849 118.185,-503.573"/>
<polygon fill="none" stroke="midnightblue" points="91.8307,-544.227 90.0782,-554.676 97.9642,-547.601 91.8307,-544.227"/>
</g>
<!-- Node6 -->
<g id="node10" class="node"><title>Node6</title>
<a xlink:href="a00013.html" target="_top" xlink:title="an interface representing a folder with some basic folder functionality such as expanding children...">
<polygon fill="white" stroke="black" points="0,-395 0,-471 98,-471 98,-395 0,-395"/>
<text text-anchor="middle" x="49" y="-458" font-family="Helvetica,sans-Serif" font-size="10.00">IFileTreeDir</text>
<polyline fill="none" stroke="black" points="0,-450 98,-450 "/>
<text text-anchor="middle" x="49" y="-437" font-family="Helvetica,sans-Serif" font-size="10.00"> </text>
<polyline fill="none" stroke="black" points="0,-429 98,-429 "/>
<text text-anchor="start" x="8" y="-416" font-family="Helvetica,sans-Serif" font-size="10.00">+ processChild()</text>
<text text-anchor="start" x="8" y="-403" font-family="Helvetica,sans-Serif" font-size="10.00">+ expandChildren()</text>
</a>
</g>
<!-- Node4&#45;&gt;Node6 -->
<g id="edge12" class="edge"><title>Node4&#45;&gt;Node6</title>
<path fill="none" stroke="midnightblue" d="M62.9409,-544.528C59.9937,-520.949 56.5027,-493.022 53.7514,-471.011"/>
<polygon fill="none" stroke="midnightblue" points="59.4961,-545.187 64.2095,-554.676 66.442,-544.319 59.4961,-545.187"/>
</g>
<!-- Node5 -->
<g id="node8" class="node"><title>Node5</title>
<polygon fill="white" stroke="#bfbfbf" points="136.5,-561.5 136.5,-624.5 177.5,-624.5 177.5,-561.5 136.5,-561.5"/>
<text text-anchor="middle" x="157" y="-611.5" font-family="Helvetica,sans-Serif" font-size="10.00">static</text>
<polyline fill="none" stroke="#bfbfbf" points="136.5,-603.5 177.5,-603.5 "/>
<text text-anchor="middle" x="157" y="-590.5" font-family="Helvetica,sans-Serif" font-size="10.00"> </text>
<polyline fill="none" stroke="#bfbfbf" points="136.5,-582.5 177.5,-582.5 "/>
<text text-anchor="middle" x="157" y="-569.5" font-family="Helvetica,sans-Serif" font-size="10.00"> </text>
</g>
<!-- Node5&#45;&gt;Node3 -->
<g id="edge8" class="edge"><title>Node5&#45;&gt;Node3</title>
<path fill="none" stroke="#404040" d="M157,-561.389C157,-548.181 157,-532.154 157,-515.964"/>
<polygon fill="none" stroke="#404040" points="157,-515.597 153,-509.597 157,-503.597 161,-509.597 157,-515.597"/>
<text text-anchor="middle" x="206.5" y="-526.5" font-family="Helvetica,sans-Serif" font-size="10.00"> $attributesForHashing</text>
</g>
<!-- Node6&#45;&gt;Node2 -->
<g id="edge10" class="edge"><title>Node6&#45;&gt;Node2</title>
<path fill="none" stroke="midnightblue" d="M66.5159,-385.379C73.5834,-366.164 81.8455,-343.701 89.4279,-323.087"/>
<polygon fill="none" stroke="midnightblue" points="63.2123,-384.221 63.0451,-394.815 69.782,-386.638 63.2123,-384.221"/>
</g>
</g>
</svg>
