<?xml version="1.0" encoding="UTF-8" standalone="no"?>
<!DOCTYPE svg PUBLIC "-//W3C//DTD SVG 1.1//EN"
 "http://www.w3.org/Graphics/SVG/1.1/DTD/svg11.dtd">
<!-- Generated by graphviz version 2.26.3 (20100126.1600)
 -->
<!-- Title: IUploader Pages: 1 -->
<svg width="596pt" height="226pt"
 viewBox="0.00 0.00 596.00 226.00" xmlns="http://www.w3.org/2000/svg" xmlns:xlink="http://www.w3.org/1999/xlink">
<g id="graph1" class="graph" transform="scale(1 1) rotate(0) translate(4 222)">
<title>IUploader</title>
<polygon fill="white" stroke="white" points="-4,5 -4,-222 593,-222 593,5 -4,5"/>
<!-- Node1 -->
<g id="node1" class="node"><title>Node1</title>
<polygon fill="#bfbfbf" stroke="black" points="234.5,-141 234.5,-217 317.5,-217 317.5,-141 234.5,-141"/>
<text text-anchor="middle" x="276" y="-204" font-family="Helvetica,sans-Serif" font-size="10.00">IUploader</text>
<polyline fill="none" stroke="black" points="234.5,-196 317.5,-196 "/>
<text text-anchor="middle" x="276" y="-183" font-family="Helvetica,sans-Serif" font-size="10.00"> </text>
<polyline fill="none" stroke="black" points="234.5,-175 317.5,-175 "/>
<text text-anchor="start" x="242.5" y="-162" font-family="Helvetica,sans-Serif" font-size="10.00">+ __construct()</text>
<text text-anchor="start" x="242.5" y="-149" font-family="Helvetica,sans-Serif" font-size="10.00">+ upload()</text>
</g>
<!-- Node2 -->
<g id="node3" class="node"><title>Node2</title>
<a xlink:href="a00004.html" target="_top" xlink:title="Uploads the backup to Dropbox using login (e&#45;mail) and password it is insecure to store them on the s...">
<polygon fill="white" stroke="black" points="-0.5,-1 -0.5,-103 130.5,-103 130.5,-1 -0.5,-1"/>
<text text-anchor="middle" x="65" y="-90" font-family="Helvetica,sans-Serif" font-size="10.00">DropboxSimpleUploader</text>
<polyline fill="none" stroke="black" points="-0.5,-82 130.5,-82 "/>
<text text-anchor="start" x="7.5" y="-69" font-family="Helvetica,sans-Serif" font-size="10.00">+ $dir</text>
<text text-anchor="start" x="7.5" y="-56" font-family="Helvetica,sans-Serif" font-size="10.00">+ $dropbox</text>
<polyline fill="none" stroke="black" points="-0.5,-48 130.5,-48 "/>
<text text-anchor="start" x="7.5" y="-35" font-family="Helvetica,sans-Serif" font-size="10.00">+ __construct()</text>
<text text-anchor="start" x="7.5" y="-22" font-family="Helvetica,sans-Serif" font-size="10.00">+ checkServerRequisites()</text>
<text text-anchor="start" x="7.5" y="-9" font-family="Helvetica,sans-Serif" font-size="10.00">+ upload()</text>
</a>
</g>
<!-- Node1&#45;&gt;Node2 -->
<g id="edge2" class="edge"><title>Node1&#45;&gt;Node2</title>
<path fill="none" stroke="midnightblue" d="M225.261,-152.962C199.096,-139.101 166.904,-121.366 139,-104 136.2,-102.258 133.362,-100.451 130.511,-98.603"/>
<polygon fill="none" stroke="midnightblue" points="223.769,-156.132 234.248,-157.696 227.032,-149.939 223.769,-156.132"/>
</g>
<!-- Node3 -->
<g id="node5" class="node"><title>Node3</title>
<a xlink:href="a00005.html" target="_top" xlink:title="This plugin is for testing exceptions in plugins initialization phase.">
<polygon fill="white" stroke="black" points="147.5,-14 147.5,-90 264.5,-90 264.5,-14 147.5,-14"/>
<text text-anchor="middle" x="206" y="-77" font-family="Helvetica,sans-Serif" font-size="10.00">ExceptionTestUploader</text>
<polyline fill="none" stroke="black" points="147.5,-69 264.5,-69 "/>
<text text-anchor="middle" x="206" y="-56" font-family="Helvetica,sans-Serif" font-size="10.00"> </text>
<polyline fill="none" stroke="black" points="147.5,-48 264.5,-48 "/>
<text text-anchor="start" x="155.5" y="-35" font-family="Helvetica,sans-Serif" font-size="10.00">+ __construct()</text>
<text text-anchor="start" x="155.5" y="-22" font-family="Helvetica,sans-Serif" font-size="10.00">+ upload()</text>
</a>
</g>
<!-- Node1&#45;&gt;Node3 -->
<g id="edge4" class="edge"><title>Node1&#45;&gt;Node3</title>
<path fill="none" stroke="midnightblue" d="M250.1,-132.009C242.485,-118.195 234.254,-103.261 226.987,-90.0773"/>
<polygon fill="none" stroke="midnightblue" points="247.105,-133.828 254.998,-140.896 253.236,-130.449 247.105,-133.828"/>
</g>
<!-- Node4 -->
<g id="node7" class="node"><title>Node4</title>
<a xlink:href="a00017.html" target="_top" xlink:title="Uploads the backup to SugarSync using login (e&#45;mail) and password also you will need accessKeyId and ...">
<polygon fill="white" stroke="black" points="281.5,-1 281.5,-103 412.5,-103 412.5,-1 281.5,-1"/>
<text text-anchor="middle" x="347" y="-90" font-family="Helvetica,sans-Serif" font-size="10.00">SugarSyncUploader</text>
<polyline fill="none" stroke="black" points="281.5,-82 412.5,-82 "/>
<text text-anchor="start" x="289.5" y="-69" font-family="Helvetica,sans-Serif" font-size="10.00">+ $dir</text>
<text text-anchor="start" x="289.5" y="-56" font-family="Helvetica,sans-Serif" font-size="10.00">+ $sugar</text>
<polyline fill="none" stroke="black" points="281.5,-48 412.5,-48 "/>
<text text-anchor="start" x="289.5" y="-35" font-family="Helvetica,sans-Serif" font-size="10.00">+ __construct()</text>
<text text-anchor="start" x="289.5" y="-22" font-family="Helvetica,sans-Serif" font-size="10.00">+ checkServerRequisites()</text>
<text text-anchor="start" x="289.5" y="-9" font-family="Helvetica,sans-Serif" font-size="10.00">+ upload()</text>
</a>
</g>
<!-- Node1&#45;&gt;Node4 -->
<g id="edge6" class="edge"><title>Node1&#45;&gt;Node4</title>
<path fill="none" stroke="midnightblue" d="M302.232,-132.077C307.484,-122.683 313.028,-112.767 318.357,-103.235"/>
<polygon fill="none" stroke="midnightblue" points="299.127,-130.459 297.302,-140.896 305.237,-133.875 299.127,-130.459"/>
</g>
<!-- Node5 -->
<g id="node9" class="node"><title>Node5</title>
<a xlink:href="a00018.html" target="_top" xlink:title="Uploads the backup to any WebDAV server using login and password it is insecure to store login and pa...">
<polygon fill="white" stroke="black" points="429.5,-1 429.5,-103 588.5,-103 588.5,-1 429.5,-1"/>
<text text-anchor="middle" x="509" y="-90" font-family="Helvetica,sans-Serif" font-size="10.00">WebDAVUploader</text>
<polyline fill="none" stroke="black" points="429.5,-82 588.5,-82 "/>
<text text-anchor="start" x="437.5" y="-69" font-family="Helvetica,sans-Serif" font-size="10.00">+ $dir</text>
<text text-anchor="start" x="437.5" y="-56" font-family="Helvetica,sans-Serif" font-size="10.00">+ $webDav</text>
<polyline fill="none" stroke="black" points="429.5,-48 588.5,-48 "/>
<text text-anchor="start" x="437.5" y="-35" font-family="Helvetica,sans-Serif" font-size="10.00">+ __construct()</text>
<text text-anchor="start" x="437.5" y="-22" font-family="Helvetica,sans-Serif" font-size="10.00">+ verifyServerAndInitConnection()</text>
<text text-anchor="start" x="437.5" y="-9" font-family="Helvetica,sans-Serif" font-size="10.00">+ upload()</text>
</a>
</g>
<!-- Node1&#45;&gt;Node5 -->
<g id="edge8" class="edge"><title>Node1&#45;&gt;Node5</title>
<path fill="none" stroke="midnightblue" d="M326.778,-153.619C354.773,-139.405 390.033,-121.14 421,-104 423.795,-102.453 426.631,-100.867 429.491,-99.254"/>
<polygon fill="none" stroke="midnightblue" points="324.919,-150.637 317.579,-158.277 328.082,-156.882 324.919,-150.637"/>
</g>
</g>
</svg>
