<?xml version="1.0" encoding="UTF-8" standalone="no"?>
<!DOCTYPE svg PUBLIC "-//W3C//DTD SVG 1.1//EN"
 "http://www.w3.org/Graphics/SVG/1.1/DTD/svg11.dtd">
<!-- Generated by graphviz version 2.26.3 (20100126.1600)
 -->
<!-- Title: MySQLBackuper Pages: 1 -->
<svg width="188pt" height="330pt"
 viewBox="0.00 0.00 188.00 330.00" xmlns="http://www.w3.org/2000/svg" xmlns:xlink="http://www.w3.org/1999/xlink">
<g id="graph1" class="graph" transform="scale(1 1) rotate(0) translate(4 326)">
<title>MySQLBackuper</title>
<polygon fill="white" stroke="white" points="-4,5 -4,-326 185,-326 185,5 -4,5"/>
<!-- Node1 -->
<g id="node1" class="node"><title>Node1</title>
<polygon fill="#bfbfbf" stroke="black" points="45.5,-1 45.5,-155 156.5,-155 156.5,-1 45.5,-1"/>
<text text-anchor="middle" x="101" y="-142" font-family="Helvetica,sans-Serif" font-size="10.00">MySQLBackuper</text>
<polyline fill="none" stroke="black" points="45.5,-134 156.5,-134 "/>
<text text-anchor="start" x="53.5" y="-121" font-family="Helvetica,sans-Serif" font-size="10.00">+ $db</text>
<text text-anchor="start" x="53.5" y="-108" font-family="Helvetica,sans-Serif" font-size="10.00">+ baseDir</text>
<text text-anchor="start" x="53.5" y="-95" font-family="Helvetica,sans-Serif" font-size="10.00">+ baseName</text>
<text text-anchor="start" x="53.5" y="-82" font-family="Helvetica,sans-Serif" font-size="10.00">+ $bases</text>
<polyline fill="none" stroke="black" points="45.5,-74 156.5,-74 "/>
<text text-anchor="start" x="53.5" y="-61" font-family="Helvetica,sans-Serif" font-size="10.00">+ __construct()</text>
<text text-anchor="start" x="53.5" y="-48" font-family="Helvetica,sans-Serif" font-size="10.00">+ prepareForBackup()</text>
<text text-anchor="start" x="53.5" y="-35" font-family="Helvetica,sans-Serif" font-size="10.00">+ makeBackup()</text>
<text text-anchor="start" x="53.5" y="-22" font-family="Helvetica,sans-Serif" font-size="10.00">+ needBackup()</text>
<text text-anchor="start" x="53.5" y="-9" font-family="Helvetica,sans-Serif" font-size="10.00">+ dumpDB()</text>
</g>
<!-- Node2 -->
<g id="node2" class="node"><title>Node2</title>
<a xlink:href="a00010.html" target="_top" xlink:title="{IBackuper\n||+ __construct()\l+ makeBackup()\l+ prepareForBackup()\l+ needBackup()\l}">
<polygon fill="white" stroke="black" points="-0.5,-219 -0.5,-321 110.5,-321 110.5,-219 -0.5,-219"/>
<text text-anchor="middle" x="55" y="-308" font-family="Helvetica,sans-Serif" font-size="10.00">IBackuper</text>
<polyline fill="none" stroke="black" points="-0.5,-300 110.5,-300 "/>
<text text-anchor="middle" x="55" y="-287" font-family="Helvetica,sans-Serif" font-size="10.00"> </text>
<polyline fill="none" stroke="black" points="-0.5,-279 110.5,-279 "/>
<text text-anchor="start" x="7.5" y="-266" font-family="Helvetica,sans-Serif" font-size="10.00">+ __construct()</text>
<text text-anchor="start" x="7.5" y="-253" font-family="Helvetica,sans-Serif" font-size="10.00">+ makeBackup()</text>
<text text-anchor="start" x="7.5" y="-240" font-family="Helvetica,sans-Serif" font-size="10.00">+ prepareForBackup()</text>
<text text-anchor="start" x="7.5" y="-227" font-family="Helvetica,sans-Serif" font-size="10.00">+ needBackup()</text>
</a>
</g>
<!-- Node2&#45;&gt;Node1 -->
<g id="edge2" class="edge"><title>Node2&#45;&gt;Node1</title>
<path fill="none" stroke="midnightblue" d="M69.6293,-208.939C73.7307,-191.82 78.2434,-172.984 82.5365,-155.065"/>
<polygon fill="none" stroke="midnightblue" points="66.193,-208.259 67.2667,-218.8 73.0004,-209.89 66.193,-208.259"/>
</g>
<!-- Node3 -->
<g id="node4" class="node"><title>Node3</title>
<polygon fill="white" stroke="#bfbfbf" points="127.5,-238.5 127.5,-301.5 168.5,-301.5 168.5,-238.5 127.5,-238.5"/>
<text text-anchor="middle" x="148" y="-288.5" font-family="Helvetica,sans-Serif" font-size="10.00">const</text>
<polyline fill="none" stroke="#bfbfbf" points="127.5,-280.5 168.5,-280.5 "/>
<text text-anchor="middle" x="148" y="-267.5" font-family="Helvetica,sans-Serif" font-size="10.00"> </text>
<polyline fill="none" stroke="#bfbfbf" points="127.5,-259.5 168.5,-259.5 "/>
<text text-anchor="middle" x="148" y="-246.5" font-family="Helvetica,sans-Serif" font-size="10.00"> </text>
</g>
<!-- Node3&#45;&gt;Node1 -->
<g id="edge4" class="edge"><title>Node3&#45;&gt;Node1</title>
<path fill="none" stroke="#404040" d="M140.239,-238.295C135.467,-218.802 129.093,-192.763 122.872,-167.349"/>
<polygon fill="none" stroke="#404040" points="122.788,-167.006 117.476,-162.129 119.935,-155.35 125.247,-160.227 122.788,-167.006"/>
<text text-anchor="middle" x="155" y="-191" font-family="Helvetica,sans-Serif" font-size="10.00"> baseName</text>
<text text-anchor="middle" x="155" y="-178" font-family="Helvetica,sans-Serif" font-size="10.00">baseDir</text>
</g>
</g>
</svg>
