<?xml version="1.0" encoding="UTF-8" standalone="no"?>
<!DOCTYPE svg PUBLIC "-//W3C//DTD SVG 1.1//EN"
 "http://www.w3.org/Graphics/SVG/1.1/DTD/svg11.dtd">
<!-- Generated by graphviz version 2.26.3 (20100126.1600)
 -->
<!-- Title: IBackuperIndex Pages: 1 -->
<svg width="170pt" height="586pt"
 viewBox="0.00 0.00 170.00 586.00" xmlns="http://www.w3.org/2000/svg" xmlns:xlink="http://www.w3.org/1999/xlink">
<g id="graph1" class="graph" transform="scale(1 1) rotate(0) translate(4 582)">
<title>IBackuperIndex</title>
<polygon fill="white" stroke="white" points="-4,5 -4,-582 167,-582 167,5 -4,5"/>
<!-- Node1 -->
<g id="node1" class="node"><title>Node1</title>
<polygon fill="#bfbfbf" stroke="black" points="0,-501 0,-577 162,-577 162,-501 0,-501"/>
<text text-anchor="middle" x="81" y="-564" font-family="Helvetica,sans-Serif" font-size="10.00">IBackuperIndex</text>
<polyline fill="none" stroke="black" points="0,-556 162,-556 "/>
<text text-anchor="middle" x="81" y="-543" font-family="Helvetica,sans-Serif" font-size="10.00"> </text>
<polyline fill="none" stroke="black" points="0,-535 162,-535 "/>
<text text-anchor="start" x="8" y="-522" font-family="Helvetica,sans-Serif" font-size="10.00">+ checkInitializedAndInitMissing()</text>
<text text-anchor="start" x="8" y="-509" font-family="Helvetica,sans-Serif" font-size="10.00">+ load()</text>
</g>
<!-- Node2 -->
<g id="node3" class="node"><title>Node2</title>
<a xlink:href="a00002.html" target="_top" xlink:title="A class for mantaining index.">
<polygon fill="white" stroke="black" points="0,-309 0,-463 162,-463 162,-309 0,-309"/>
<text text-anchor="middle" x="81" y="-450" font-family="Helvetica,sans-Serif" font-size="10.00">BackuperIndex</text>
<polyline fill="none" stroke="black" points="0,-442 162,-442 "/>
<text text-anchor="start" x="8" y="-429" font-family="Helvetica,sans-Serif" font-size="10.00">+ $base</text>
<text text-anchor="start" x="8" y="-416" font-family="Helvetica,sans-Serif" font-size="10.00">+ $queries</text>
<text text-anchor="start" x="8" y="-403" font-family="Helvetica,sans-Serif" font-size="10.00">+ createTableQueryTempl</text>
<text text-anchor="start" x="8" y="-390" font-family="Helvetica,sans-Serif" font-size="10.00">+ $queriesTemplates</text>
<text text-anchor="start" x="8" y="-377" font-family="Helvetica,sans-Serif" font-size="10.00">+ $baseStructureBuildQuery</text>
<polyline fill="none" stroke="black" points="0,-369 162,-369 "/>
<text text-anchor="start" x="8" y="-356" font-family="Helvetica,sans-Serif" font-size="10.00">+ __construct()</text>
<text text-anchor="start" x="8" y="-343" font-family="Helvetica,sans-Serif" font-size="10.00">+ checkInitializedAndInitMissing()</text>
<text text-anchor="start" x="8" y="-330" font-family="Helvetica,sans-Serif" font-size="10.00">+ load()</text>
<text text-anchor="start" x="8" y="-317" font-family="Helvetica,sans-Serif" font-size="10.00">+ __destruct()</text>
</a>
</g>
<!-- Node1&#45;&gt;Node2 -->
<g id="edge2" class="edge"><title>Node1&#45;&gt;Node2</title>
<path fill="none" stroke="midnightblue" d="M81,-490.742C81,-481.93 81,-472.536 81,-463.129"/>
<polygon fill="none" stroke="midnightblue" points="77.5001,-490.786 81,-500.786 84.5001,-490.786 77.5001,-490.786"/>
</g>
<!-- Node3 -->
<g id="node5" class="node"><title>Node3</title>
<a xlink:href="a00007.html" target="_top" xlink:title="{FileTreeBackuperIndex\n|+ $base\l+ $moved\l+ $deleted\l+ $changed\l+ $added\l+ $ignores\l+ $inodes\l+ $queriesTemplates\l+ $baseStructureBuildQuery\l|+ load()\l+ loadChildren()\l+ needBackup()\l+ save()\l+ saveAdded()\l+ saveChanged()\l+ saveMoved()\l+ saveDeleted()\l+ makeCommitRecord()\l}">
<polygon fill="white" stroke="black" points="11,-0.5 11,-271.5 151,-271.5 151,-0.5 11,-0.5"/>
<text text-anchor="middle" x="81" y="-258.5" font-family="Helvetica,sans-Serif" font-size="10.00">FileTreeBackuperIndex</text>
<polyline fill="none" stroke="black" points="11,-250.5 151,-250.5 "/>
<text text-anchor="start" x="19" y="-237.5" font-family="Helvetica,sans-Serif" font-size="10.00">+ $base</text>
<text text-anchor="start" x="19" y="-224.5" font-family="Helvetica,sans-Serif" font-size="10.00">+ $moved</text>
<text text-anchor="start" x="19" y="-211.5" font-family="Helvetica,sans-Serif" font-size="10.00">+ $deleted</text>
<text text-anchor="start" x="19" y="-198.5" font-family="Helvetica,sans-Serif" font-size="10.00">+ $changed</text>
<text text-anchor="start" x="19" y="-185.5" font-family="Helvetica,sans-Serif" font-size="10.00">+ $added</text>
<text text-anchor="start" x="19" y="-172.5" font-family="Helvetica,sans-Serif" font-size="10.00">+ $ignores</text>
<text text-anchor="start" x="19" y="-159.5" font-family="Helvetica,sans-Serif" font-size="10.00">+ $inodes</text>
<text text-anchor="start" x="19" y="-146.5" font-family="Helvetica,sans-Serif" font-size="10.00">+ $queriesTemplates</text>
<text text-anchor="start" x="19" y="-133.5" font-family="Helvetica,sans-Serif" font-size="10.00">+ $baseStructureBuildQuery</text>
<polyline fill="none" stroke="black" points="11,-125.5 151,-125.5 "/>
<text text-anchor="start" x="19" y="-112.5" font-family="Helvetica,sans-Serif" font-size="10.00">+ load()</text>
<text text-anchor="start" x="19" y="-99.5" font-family="Helvetica,sans-Serif" font-size="10.00">+ loadChildren()</text>
<text text-anchor="start" x="19" y="-86.5" font-family="Helvetica,sans-Serif" font-size="10.00">+ needBackup()</text>
<text text-anchor="start" x="19" y="-73.5" font-family="Helvetica,sans-Serif" font-size="10.00">+ save()</text>
<text text-anchor="start" x="19" y="-60.5" font-family="Helvetica,sans-Serif" font-size="10.00">+ saveAdded()</text>
<text text-anchor="start" x="19" y="-47.5" font-family="Helvetica,sans-Serif" font-size="10.00">+ saveChanged()</text>
<text text-anchor="start" x="19" y="-34.5" font-family="Helvetica,sans-Serif" font-size="10.00">+ saveMoved()</text>
<text text-anchor="start" x="19" y="-21.5" font-family="Helvetica,sans-Serif" font-size="10.00">+ saveDeleted()</text>
<text text-anchor="start" x="19" y="-8.5" font-family="Helvetica,sans-Serif" font-size="10.00">+ makeCommitRecord()</text>
</a>
</g>
<!-- Node2&#45;&gt;Node3 -->
<g id="edge4" class="edge"><title>Node2&#45;&gt;Node3</title>
<path fill="none" stroke="midnightblue" d="M81,-298.754C81,-289.949 81,-280.868 81,-271.71"/>
<polygon fill="none" stroke="midnightblue" points="77.5001,-298.952 81,-308.952 84.5001,-298.952 77.5001,-298.952"/>
</g>
</g>
</svg>
