<?xml version="1.0" encoding="UTF-8" standalone="no"?>
<!DOCTYPE svg PUBLIC "-//W3C//DTD SVG 1.1//EN"
 "http://www.w3.org/Graphics/SVG/1.1/DTD/svg11.dtd">
<!-- Generated by graphviz version 2.26.3 (20100126.1600)
 -->
<!-- Title: IBackuper Pages: 1 -->
<svg width="246pt" height="342pt"
 viewBox="0.00 0.00 246.00 342.00" xmlns="http://www.w3.org/2000/svg" xmlns:xlink="http://www.w3.org/1999/xlink">
<g id="graph1" class="graph" transform="scale(1 1) rotate(0) translate(4 338)">
<title>IBackuper</title>
<polygon fill="white" stroke="white" points="-4,5 -4,-338 243,-338 243,5 -4,5"/>
<!-- Node1 -->
<g id="node1" class="node"><title>Node1</title>
<polygon fill="#bfbfbf" stroke="black" points="63.5,-231 63.5,-333 174.5,-333 174.5,-231 63.5,-231"/>
<text text-anchor="middle" x="119" y="-320" font-family="Helvetica,sans-Serif" font-size="10.00">IBackuper</text>
<polyline fill="none" stroke="black" points="63.5,-312 174.5,-312 "/>
<text text-anchor="middle" x="119" y="-299" font-family="Helvetica,sans-Serif" font-size="10.00"> </text>
<polyline fill="none" stroke="black" points="63.5,-291 174.5,-291 "/>
<text text-anchor="start" x="71.5" y="-278" font-family="Helvetica,sans-Serif" font-size="10.00">+ __construct()</text>
<text text-anchor="start" x="71.5" y="-265" font-family="Helvetica,sans-Serif" font-size="10.00">+ makeBackup()</text>
<text text-anchor="start" x="71.5" y="-252" font-family="Helvetica,sans-Serif" font-size="10.00">+ prepareForBackup()</text>
<text text-anchor="start" x="71.5" y="-239" font-family="Helvetica,sans-Serif" font-size="10.00">+ needBackup()</text>
</g>
<!-- Node2 -->
<g id="node3" class="node"><title>Node2</title>
<a xlink:href="a00006.html" target="_top" xlink:title="a class representing a plugin for backuping file tree takes array of adresses of roots of the backup...">
<polygon fill="white" stroke="black" points="-0.5,-0.5 -0.5,-193.5 110.5,-193.5 110.5,-0.5 -0.5,-0.5"/>
<text text-anchor="middle" x="55" y="-180.5" font-family="Helvetica,sans-Serif" font-size="10.00">FileTreeBackuper</text>
<polyline fill="none" stroke="black" points="-0.5,-172.5 110.5,-172.5 "/>
<text text-anchor="start" x="7.5" y="-159.5" font-family="Helvetica,sans-Serif" font-size="10.00">+ $index</text>
<text text-anchor="start" x="7.5" y="-146.5" font-family="Helvetica,sans-Serif" font-size="10.00">+ $roots</text>
<text text-anchor="start" x="7.5" y="-133.5" font-family="Helvetica,sans-Serif" font-size="10.00">+ filesDir</text>
<text text-anchor="start" x="7.5" y="-120.5" font-family="Helvetica,sans-Serif" font-size="10.00">+ patchesDir</text>
<text text-anchor="start" x="7.5" y="-107.5" font-family="Helvetica,sans-Serif" font-size="10.00">+ $zip</text>
<polyline fill="none" stroke="black" points="-0.5,-99.5 110.5,-99.5 "/>
<text text-anchor="start" x="7.5" y="-86.5" font-family="Helvetica,sans-Serif" font-size="10.00">+ __construct()</text>
<text text-anchor="start" x="7.5" y="-73.5" font-family="Helvetica,sans-Serif" font-size="10.00">+ prepareForBackup()</text>
<text text-anchor="start" x="7.5" y="-60.5" font-family="Helvetica,sans-Serif" font-size="10.00">+ makeBackup()</text>
<text text-anchor="start" x="7.5" y="-47.5" font-family="Helvetica,sans-Serif" font-size="10.00">+ needBackup()</text>
<text text-anchor="start" x="7.5" y="-34.5" font-family="Helvetica,sans-Serif" font-size="10.00">&#45; detectMoved()</text>
<text text-anchor="start" x="7.5" y="-21.5" font-family="Helvetica,sans-Serif" font-size="10.00">&#45; archivateAdded()</text>
<text text-anchor="start" x="7.5" y="-8.5" font-family="Helvetica,sans-Serif" font-size="10.00">&#45; archivateChanged()</text>
</a>
</g>
<!-- Node1&#45;&gt;Node2 -->
<g id="edge2" class="edge"><title>Node1&#45;&gt;Node2</title>
<path fill="none" stroke="midnightblue" d="M98.0539,-221.453C94.9607,-212.511 91.7103,-203.116 88.4399,-193.662"/>
<polygon fill="none" stroke="midnightblue" points="94.7652,-222.652 101.342,-230.958 101.381,-220.363 94.7652,-222.652"/>
</g>
<!-- Node3 -->
<g id="node5" class="node"><title>Node3</title>
<a xlink:href="a00015.html" target="_top" xlink:title="Makes backup of MySQL database in format similar to mysqldump.">
<polygon fill="white" stroke="black" points="127.5,-20 127.5,-174 238.5,-174 238.5,-20 127.5,-20"/>
<text text-anchor="middle" x="183" y="-161" font-family="Helvetica,sans-Serif" font-size="10.00">MySQLBackuper</text>
<polyline fill="none" stroke="black" points="127.5,-153 238.5,-153 "/>
<text text-anchor="start" x="135.5" y="-140" font-family="Helvetica,sans-Serif" font-size="10.00">+ $db</text>
<text text-anchor="start" x="135.5" y="-127" font-family="Helvetica,sans-Serif" font-size="10.00">+ baseDir</text>
<text text-anchor="start" x="135.5" y="-114" font-family="Helvetica,sans-Serif" font-size="10.00">+ baseName</text>
<text text-anchor="start" x="135.5" y="-101" font-family="Helvetica,sans-Serif" font-size="10.00">+ $bases</text>
<polyline fill="none" stroke="black" points="127.5,-93 238.5,-93 "/>
<text text-anchor="start" x="135.5" y="-80" font-family="Helvetica,sans-Serif" font-size="10.00">+ __construct()</text>
<text text-anchor="start" x="135.5" y="-67" font-family="Helvetica,sans-Serif" font-size="10.00">+ prepareForBackup()</text>
<text text-anchor="start" x="135.5" y="-54" font-family="Helvetica,sans-Serif" font-size="10.00">+ makeBackup()</text>
<text text-anchor="start" x="135.5" y="-41" font-family="Helvetica,sans-Serif" font-size="10.00">+ needBackup()</text>
<text text-anchor="start" x="135.5" y="-28" font-family="Helvetica,sans-Serif" font-size="10.00">+ dumpDB()</text>
</a>
</g>
<!-- Node1&#45;&gt;Node3 -->
<g id="edge4" class="edge"><title>Node1&#45;&gt;Node3</title>
<path fill="none" stroke="midnightblue" d="M140.006,-221.28C145.208,-206.243 150.851,-189.93 156.286,-174.222"/>
<polygon fill="none" stroke="midnightblue" points="136.619,-220.363 136.658,-230.958 143.235,-222.652 136.619,-220.363"/>
</g>
</g>
</svg>
