<?xml version="1.0" encoding="UTF-8" standalone="no"?>
<!DOCTYPE svg PUBLIC "-//W3C//DTD SVG 1.1//EN"
 "http://www.w3.org/Graphics/SVG/1.1/DTD/svg11.dtd">
<!-- Generated by graphviz version 2.26.3 (20100126.1600)
 -->
<!-- Title: BackuperIndex Pages: 1 -->
<svg width="170pt" height="612pt"
 viewBox="0.00 0.00 170.00 612.00" xmlns="http://www.w3.org/2000/svg" xmlns:xlink="http://www.w3.org/1999/xlink">
<g id="graph1" class="graph" transform="scale(1 1) rotate(0) translate(4 608)">
<title>BackuperIndex</title>
<polygon fill="white" stroke="white" points="-4,5 -4,-608 167,-608 167,5 -4,5"/>
<!-- Node1 -->
<g id="node1" class="node"><title>Node1</title>
<polygon fill="#bfbfbf" stroke="black" points="0,-322.5 0,-489.5 162,-489.5 162,-322.5 0,-322.5"/>
<text text-anchor="middle" x="81" y="-476.5" font-family="Helvetica,sans-Serif" font-size="10.00">BackuperIndex</text>
<polyline fill="none" stroke="black" points="0,-468.5 162,-468.5 "/>
<text text-anchor="start" x="8" y="-455.5" font-family="Helvetica,sans-Serif" font-size="10.00">+ $base</text>
<text text-anchor="start" x="8" y="-442.5" font-family="Helvetica,sans-Serif" font-size="10.00">+ $queries</text>
<text text-anchor="start" x="8" y="-429.5" font-family="Helvetica,sans-Serif" font-size="10.00">+ createTableQueryTempl</text>
<text text-anchor="start" x="8" y="-416.5" font-family="Helvetica,sans-Serif" font-size="10.00">+ $queriesTemplates</text>
<text text-anchor="start" x="8" y="-403.5" font-family="Helvetica,sans-Serif" font-size="10.00">+ $baseStructureBuildQuery</text>
<polyline fill="none" stroke="black" points="0,-395.5 162,-395.5 "/>
<text text-anchor="start" x="8" y="-382.5" font-family="Helvetica,sans-Serif" font-size="10.00">+ __construct()</text>
<text text-anchor="start" x="8" y="-369.5" font-family="Helvetica,sans-Serif" font-size="10.00">+ prepareQueries()</text>
<text text-anchor="start" x="8" y="-356.5" font-family="Helvetica,sans-Serif" font-size="10.00">+ checkInitializedAndInitMissing()</text>
<text text-anchor="start" x="8" y="-343.5" font-family="Helvetica,sans-Serif" font-size="10.00">+ load()</text>
<text text-anchor="start" x="8" y="-330.5" font-family="Helvetica,sans-Serif" font-size="10.00">+ __destruct()</text>
</g>
<!-- Node3 -->
<g id="node5" class="node"><title>Node3</title>
<a xlink:href="a00007.html" target="_top" xlink:title="{FileTreeBackuperIndex\n|+ $base\l+ $moved\l+ $deleted\l+ $changed\l+ $added\l+ $ignores\l+ $inodes\l+ $queriesTemplates\l+ $baseStructureBuildQuery\l|+ __construct()\l+ load()\l+ loadChildren()\l+ needBackup()\l+ save()\l+ saveAdded()\l+ saveChanged()\l+ saveMoved()\l+ saveDeleted()\l+ makeCommitRecord()\l}">
<polygon fill="white" stroke="black" points="11,-1 11,-285 151,-285 151,-1 11,-1"/>
<text text-anchor="middle" x="81" y="-272" font-family="Helvetica,sans-Serif" font-size="10.00">FileTreeBackuperIndex</text>
<polyline fill="none" stroke="black" points="11,-264 151,-264 "/>
<text text-anchor="start" x="19" y="-251" font-family="Helvetica,sans-Serif" font-size="10.00">+ $base</text>
<text text-anchor="start" x="19" y="-238" font-family="Helvetica,sans-Serif" font-size="10.00">+ $moved</text>
<text text-anchor="start" x="19" y="-225" font-family="Helvetica,sans-Serif" font-size="10.00">+ $deleted</text>
<text text-anchor="start" x="19" y="-212" font-family="Helvetica,sans-Serif" font-size="10.00">+ $changed</text>
<text text-anchor="start" x="19" y="-199" font-family="Helvetica,sans-Serif" font-size="10.00">+ $added</text>
<text text-anchor="start" x="19" y="-186" font-family="Helvetica,sans-Serif" font-size="10.00">+ $ignores</text>
<text text-anchor="start" x="19" y="-173" font-family="Helvetica,sans-Serif" font-size="10.00">+ $inodes</text>
<text text-anchor="start" x="19" y="-160" font-family="Helvetica,sans-Serif" font-size="10.00">+ $queriesTemplates</text>
<text text-anchor="start" x="19" y="-147" font-family="Helvetica,sans-Serif" font-size="10.00">+ $baseStructureBuildQuery</text>
<polyline fill="none" stroke="black" points="11,-139 151,-139 "/>
<text text-anchor="start" x="19" y="-126" font-family="Helvetica,sans-Serif" font-size="10.00">+ __construct()</text>
<text text-anchor="start" x="19" y="-113" font-family="Helvetica,sans-Serif" font-size="10.00">+ load()</text>
<text text-anchor="start" x="19" y="-100" font-family="Helvetica,sans-Serif" font-size="10.00">+ loadChildren()</text>
<text text-anchor="start" x="19" y="-87" font-family="Helvetica,sans-Serif" font-size="10.00">+ needBackup()</text>
<text text-anchor="start" x="19" y="-74" font-family="Helvetica,sans-Serif" font-size="10.00">+ save()</text>
<text text-anchor="start" x="19" y="-61" font-family="Helvetica,sans-Serif" font-size="10.00">+ saveAdded()</text>
<text text-anchor="start" x="19" y="-48" font-family="Helvetica,sans-Serif" font-size="10.00">+ saveChanged()</text>
<text text-anchor="start" x="19" y="-35" font-family="Helvetica,sans-Serif" font-size="10.00">+ saveMoved()</text>
<text text-anchor="start" x="19" y="-22" font-family="Helvetica,sans-Serif" font-size="10.00">+ saveDeleted()</text>
<text text-anchor="start" x="19" y="-9" font-family="Helvetica,sans-Serif" font-size="10.00">+ makeCommitRecord()</text>
</a>
</g>
<!-- Node1&#45;&gt;Node3 -->
<g id="edge4" class="edge"><title>Node1&#45;&gt;Node3</title>
<path fill="none" stroke="midnightblue" d="M81,-312.265C81,-303.507 81,-294.504 81,-285.432"/>
<polygon fill="none" stroke="midnightblue" points="77.5001,-312.424 81,-322.424 84.5001,-312.424 77.5001,-312.424"/>
</g>
<!-- Node2 -->
<g id="node2" class="node"><title>Node2</title>
<a xlink:href="a00011.html" target="_top" xlink:title="{IBackuperIndex\n||+ checkInitializedAndInitMissing()\l+ load()\l}">
<polygon fill="white" stroke="black" points="0,-527 0,-603 162,-603 162,-527 0,-527"/>
<text text-anchor="middle" x="81" y="-590" font-family="Helvetica,sans-Serif" font-size="10.00">IBackuperIndex</text>
<polyline fill="none" stroke="black" points="0,-582 162,-582 "/>
<text text-anchor="middle" x="81" y="-569" font-family="Helvetica,sans-Serif" font-size="10.00"> </text>
<polyline fill="none" stroke="black" points="0,-561 162,-561 "/>
<text text-anchor="start" x="8" y="-548" font-family="Helvetica,sans-Serif" font-size="10.00">+ checkInitializedAndInitMissing()</text>
<text text-anchor="start" x="8" y="-535" font-family="Helvetica,sans-Serif" font-size="10.00">+ load()</text>
</a>
</g>
<!-- Node2&#45;&gt;Node1 -->
<g id="edge2" class="edge"><title>Node2&#45;&gt;Node1</title>
<path fill="none" stroke="midnightblue" d="M81,-516.762C81,-508.174 81,-499.008 81,-489.764"/>
<polygon fill="none" stroke="midnightblue" points="77.5001,-516.916 81,-526.916 84.5001,-516.916 77.5001,-516.916"/>
</g>
</g>
</svg>
