<?xml version="1.0" encoding="UTF-8" standalone="no"?>
<!DOCTYPE svg PUBLIC "-//W3C//DTD SVG 1.1//EN"
 "http://www.w3.org/Graphics/SVG/1.1/DTD/svg11.dtd">
<!-- Generated by graphviz version 2.26.3 (20100126.1600)
 -->
<!-- Title: DropboxSimpleUploader Pages: 1 -->
<svg width="138pt" height="226pt"
 viewBox="0.00 0.00 138.00 226.00" xmlns="http://www.w3.org/2000/svg" xmlns:xlink="http://www.w3.org/1999/xlink">
<g id="graph1" class="graph" transform="scale(1 1) rotate(0) translate(4 222)">
<title>DropboxSimpleUploader</title>
<polygon fill="white" stroke="white" points="-4,5 -4,-222 135,-222 135,5 -4,5"/>
<!-- Node1 -->
<g id="node1" class="node"><title>Node1</title>
<polygon fill="#bfbfbf" stroke="black" points="-0.5,-1 -0.5,-103 130.5,-103 130.5,-1 -0.5,-1"/>
<text text-anchor="middle" x="65" y="-90" font-family="Helvetica,sans-Serif" font-size="10.00">DropboxSimpleUploader</text>
<polyline fill="none" stroke="black" points="-0.5,-82 130.5,-82 "/>
<text text-anchor="start" x="7.5" y="-69" font-family="Helvetica,sans-Serif" font-size="10.00">+ $dir</text>
<text text-anchor="start" x="7.5" y="-56" font-family="Helvetica,sans-Serif" font-size="10.00">+ $dropbox</text>
<polyline fill="none" stroke="black" points="-0.5,-48 130.5,-48 "/>
<text text-anchor="start" x="7.5" y="-35" font-family="Helvetica,sans-Serif" font-size="10.00">+ __construct()</text>
<text text-anchor="start" x="7.5" y="-22" font-family="Helvetica,sans-Serif" font-size="10.00">+ checkServerRequisites()</text>
<text text-anchor="start" x="7.5" y="-9" font-family="Helvetica,sans-Serif" font-size="10.00">+ upload()</text>
</g>
<!-- Node2 -->
<g id="node2" class="node"><title>Node2</title>
<a xlink:href="a00014.html" target="_top" xlink:title="{IUploader\n||+ __construct()\l+ upload()\l}">
<polygon fill="white" stroke="black" points="23.5,-141 23.5,-217 106.5,-217 106.5,-141 23.5,-141"/>
<text text-anchor="middle" x="65" y="-204" font-family="Helvetica,sans-Serif" font-size="10.00">IUploader</text>
<polyline fill="none" stroke="black" points="23.5,-196 106.5,-196 "/>
<text text-anchor="middle" x="65" y="-183" font-family="Helvetica,sans-Serif" font-size="10.00"> </text>
<polyline fill="none" stroke="black" points="23.5,-175 106.5,-175 "/>
<text text-anchor="start" x="31.5" y="-162" font-family="Helvetica,sans-Serif" font-size="10.00">+ __construct()</text>
<text text-anchor="start" x="31.5" y="-149" font-family="Helvetica,sans-Serif" font-size="10.00">+ upload()</text>
</a>
</g>
<!-- Node2&#45;&gt;Node1 -->
<g id="edge2" class="edge"><title>Node2&#45;&gt;Node1</title>
<path fill="none" stroke="midnightblue" d="M65,-130.621C65,-121.662 65,-112.276 65,-103.235"/>
<polygon fill="none" stroke="midnightblue" points="61.5001,-130.896 65,-140.896 68.5001,-130.896 61.5001,-130.896"/>
</g>
</g>
</svg>
