<?xml version="1.0" encoding="UTF-8" standalone="no"?>
<!DOCTYPE svg PUBLIC "-//W3C//DTD SVG 1.1//EN"
 "http://www.w3.org/Graphics/SVG/1.1/DTD/svg11.dtd">
<!-- Generated by graphviz version 2.26.3 (20100126.1600)
 -->
<!-- Title: Graphical Class Hierarchy Pages: 1 -->
<svg width="224pt" height="150pt"
 viewBox="0.00 0.00 224.00 150.00" xmlns="http://www.w3.org/2000/svg" xmlns:xlink="http://www.w3.org/1999/xlink">
<g id="graph1" class="graph" transform="scale(1 1) rotate(0) translate(4 146)">
<title>Graphical Class Hierarchy</title>
<polygon fill="white" stroke="white" points="-4,5 -4,-146 221,-146 221,5 -4,5"/>
<!-- Node1 -->
<g id="node1" class="node"><title>Node1</title>
<a xlink:href="a00014.html" target="_top" xlink:title="IUploader">
<polygon fill="white" stroke="black" points="0.5,-60.5 0.5,-81.5 57.5,-81.5 57.5,-60.5 0.5,-60.5"/>
<text text-anchor="middle" x="29" y="-68.5" font-family="Helvetica,sans-Serif" font-size="10.00">IUploader</text>
</a>
</g>
<!-- Node2 -->
<g id="node3" class="node"><title>Node2</title>
<a xlink:href="a00003.html" target="_top" xlink:title="Uploads the backup to Dropbox using login (e&#45;mail) and password it is insecure to store them on the s...">
<polygon fill="white" stroke="black" points="94.5,-120.5 94.5,-141.5 215.5,-141.5 215.5,-120.5 94.5,-120.5"/>
<text text-anchor="middle" x="155" y="-128.5" font-family="Helvetica,sans-Serif" font-size="10.00">DropboxSimpleUploader</text>
</a>
</g>
<!-- Node1&#45;&gt;Node2 -->
<g id="edge2" class="edge"><title>Node1&#45;&gt;Node2</title>
<path fill="none" stroke="midnightblue" d="M52.4713,-87.3012C64.5102,-95.1751 79.6317,-104.337 94,-111 101.583,-114.517 109.958,-117.689 118.011,-120.418"/>
<polygon fill="midnightblue" stroke="midnightblue" points="54.1888,-84.2393 43.9296,-81.5936 50.2997,-90.0596 54.1888,-84.2393"/>
</g>
<!-- Node3 -->
<g id="node5" class="node"><title>Node3</title>
<a xlink:href="a00004.html" target="_top" xlink:title="This plugin is for testing exceptions in plugins initialization phase.">
<polygon fill="white" stroke="black" points="96.5,-80.5 96.5,-101.5 213.5,-101.5 213.5,-80.5 96.5,-80.5"/>
<text text-anchor="middle" x="155" y="-88.5" font-family="Helvetica,sans-Serif" font-size="10.00">ExceptionTestUploader</text>
</a>
</g>
<!-- Node1&#45;&gt;Node3 -->
<g id="edge4" class="edge"><title>Node1&#45;&gt;Node3</title>
<path fill="none" stroke="midnightblue" d="M67.5094,-77.1126C76.6454,-78.5628 86.5951,-80.1421 96.402,-81.6987"/>
<polygon fill="midnightblue" stroke="midnightblue" points="68.0164,-73.6493 57.5914,-75.5383 66.919,-80.5628 68.0164,-73.6493"/>
</g>
<!-- Node4 -->
<g id="node7" class="node"><title>Node4</title>
<a xlink:href="a00016.html" target="_top" xlink:title="Uploads the backup to SugarSync using login (e&#45;mail) and password also you will need accessKeyId and ...">
<polygon fill="white" stroke="black" points="103.5,-40.5 103.5,-61.5 206.5,-61.5 206.5,-40.5 103.5,-40.5"/>
<text text-anchor="middle" x="155" y="-48.5" font-family="Helvetica,sans-Serif" font-size="10.00">SugarSyncUploader</text>
</a>
</g>
<!-- Node1&#45;&gt;Node4 -->
<g id="edge6" class="edge"><title>Node1&#45;&gt;Node4</title>
<path fill="none" stroke="midnightblue" d="M67.5928,-64.8742C78.9214,-63.076 91.4956,-61.0801 103.494,-59.1756"/>
<polygon fill="midnightblue" stroke="midnightblue" points="66.919,-61.4372 57.5914,-66.4617 68.0164,-68.3507 66.919,-61.4372"/>
</g>
<!-- Node5 -->
<g id="node9" class="node"><title>Node5</title>
<a xlink:href="a00017.html" target="_top" xlink:title="Uploads the backup to any WebDAV server using login and password it is insecure to store login and pa...">
<polygon fill="white" stroke="black" points="107.5,-0.5 107.5,-21.5 202.5,-21.5 202.5,-0.5 107.5,-0.5"/>
<text text-anchor="middle" x="155" y="-8.5" font-family="Helvetica,sans-Serif" font-size="10.00">WebDAVUploader</text>
</a>
</g>
<!-- Node1&#45;&gt;Node5 -->
<g id="edge8" class="edge"><title>Node1&#45;&gt;Node5</title>
<path fill="none" stroke="midnightblue" d="M52.4713,-54.6988C64.5102,-46.8249 79.6317,-37.6635 94,-31 101.583,-27.4833 109.958,-24.3106 118.011,-21.5821"/>
<polygon fill="midnightblue" stroke="midnightblue" points="50.2997,-51.9404 43.9296,-60.4064 54.1888,-57.7607 50.2997,-51.9404"/>
</g>
</g>
</svg>
