<?xml version="1.0" encoding="UTF-8" standalone="no"?>
<!DOCTYPE svg PUBLIC "-//W3C//DTD SVG 1.1//EN"
 "http://www.w3.org/Graphics/SVG/1.1/DTD/svg11.dtd">
<!-- Generated by graphviz version 2.26.3 (20100126.1600)
 -->
<!-- Title: Graphical Class Hierarchy Pages: 1 -->
<svg width="362pt" height="30pt"
 viewBox="0.00 0.00 362.00 30.00" xmlns="http://www.w3.org/2000/svg" xmlns:xlink="http://www.w3.org/1999/xlink">
<g id="graph1" class="graph" transform="scale(1 1) rotate(0) translate(4 26)">
<title>Graphical Class Hierarchy</title>
<polygon fill="white" stroke="white" points="-4,5 -4,-26 359,-26 359,5 -4,5"/>
<!-- Node1 -->
<g id="node1" class="node"><title>Node1</title>
<a xlink:href="da/d45/a00011.html" target="_top" xlink:title="IBackuperIndex">
<polygon fill="white" stroke="black" points="0.5,-0.5 0.5,-21.5 83.5,-21.5 83.5,-0.5 0.5,-0.5"/>
<text text-anchor="middle" x="42" y="-8.5" font-family="Helvetica,sans-Serif" font-size="10.00">IBackuperIndex</text>
</a>
</g>
<!-- Node2 -->
<g id="node3" class="node"><title>Node2</title>
<a xlink:href="d7/d46/a00002.html" target="_top" xlink:title="A class for mantaining index.">
<polygon fill="white" stroke="black" points="120.5,-0.5 120.5,-21.5 201.5,-21.5 201.5,-0.5 120.5,-0.5"/>
<text text-anchor="middle" x="161" y="-8.5" font-family="Helvetica,sans-Serif" font-size="10.00">BackuperIndex</text>
</a>
</g>
<!-- Node1&#45;&gt;Node2 -->
<g id="edge2" class="edge"><title>Node1&#45;&gt;Node2</title>
<path fill="none" stroke="midnightblue" d="M93.889,-11C102.768,-11 111.876,-11 120.406,-11"/>
<polygon fill="midnightblue" stroke="midnightblue" points="93.6205,-7.5001 83.6204,-11 93.6204,-14.5001 93.6205,-7.5001"/>
</g>
<!-- Node3 -->
<g id="node5" class="node"><title>Node3</title>
<a xlink:href="de/d5e/a00007.html" target="_top" xlink:title="FileTreeBackuperIndex">
<polygon fill="white" stroke="black" points="238,-0.5 238,-21.5 354,-21.5 354,-0.5 238,-0.5"/>
<text text-anchor="middle" x="296" y="-8.5" font-family="Helvetica,sans-Serif" font-size="10.00">FileTreeBackuperIndex</text>
</a>
</g>
<!-- Node2&#45;&gt;Node3 -->
<g id="edge4" class="edge"><title>Node2&#45;&gt;Node3</title>
<path fill="none" stroke="midnightblue" d="M211.604,-11C220.069,-11 228.914,-11 237.557,-11"/>
<polygon fill="midnightblue" stroke="midnightblue" points="211.504,-7.5001 201.504,-11 211.504,-14.5001 211.504,-7.5001"/>
</g>
</g>
</svg>
