<?xml version="1.0" encoding="UTF-8" standalone="no"?>
<!DOCTYPE svg PUBLIC "-//W3C//DTD SVG 1.1//EN"
 "http://www.w3.org/Graphics/SVG/1.1/DTD/svg11.dtd">
<!-- Generated by graphviz version 2.26.3 (20100126.1600)
 -->
<!-- Title: IFileTreeItem Pages: 1 -->
<svg width="244pt" height="636pt"
 viewBox="0.00 0.00 244.00 636.00" xmlns="http://www.w3.org/2000/svg" xmlns:xlink="http://www.w3.org/1999/xlink">
<g id="graph1" class="graph" transform="scale(1 1) rotate(0) translate(4 632)">
<title>IFileTreeItem</title>
<polygon fill="white" stroke="white" points="-4,5 -4,-632 241,-632 241,5 -4,5"/>
<!-- Node1 -->
<g id="node1" class="node"><title>Node1</title>
<polygon fill="#bfbfbf" stroke="black" points="87,-551 87,-627 159,-627 159,-551 87,-551"/>
<text text-anchor="middle" x="123" y="-614" font-family="Helvetica,sans-Serif" font-size="10.00">IFileTreeItem</text>
<polyline fill="none" stroke="black" points="87,-606 159,-606 "/>
<text text-anchor="middle" x="123" y="-593" font-family="Helvetica,sans-Serif" font-size="10.00"> </text>
<polyline fill="none" stroke="black" points="87,-585 159,-585 "/>
<text text-anchor="start" x="95" y="-572" font-family="Helvetica,sans-Serif" font-size="10.00">+ hash()</text>
<text text-anchor="start" x="95" y="-559" font-family="Helvetica,sans-Serif" font-size="10.00">+ process()</text>
</g>
<!-- Node2 -->
<g id="node3" class="node"><title>Node2</title>
<a xlink:href="../../da/da0/a00009.html" target="_top" xlink:title="a class representing a file (or a folder) with some basic functionality">
<polygon fill="white" stroke="black" points="-0.5,-359 -0.5,-513 120.5,-513 120.5,-359 -0.5,-359"/>
<text text-anchor="middle" x="60" y="-500" font-family="Helvetica,sans-Serif" font-size="10.00">FileTreeItem</text>
<polyline fill="none" stroke="black" points="-0.5,-492 120.5,-492 "/>
<text text-anchor="start" x="7.5" y="-479" font-family="Helvetica,sans-Serif" font-size="10.00">+ $name</text>
<text text-anchor="start" x="7.5" y="-466" font-family="Helvetica,sans-Serif" font-size="10.00">+ $parent</text>
<text text-anchor="start" x="7.5" y="-453" font-family="Helvetica,sans-Serif" font-size="10.00">+ $hash</text>
<text text-anchor="start" x="7.5" y="-440" font-family="Helvetica,sans-Serif" font-size="10.00">+ $pathhash</text>
<text text-anchor="start" x="7.5" y="-427" font-family="Helvetica,sans-Serif" font-size="10.00">+ $attributesForHashing</text>
<polyline fill="none" stroke="black" points="-0.5,-419 120.5,-419 "/>
<text text-anchor="start" x="7.5" y="-406" font-family="Helvetica,sans-Serif" font-size="10.00">+ showAtrs()</text>
<text text-anchor="start" x="7.5" y="-393" font-family="Helvetica,sans-Serif" font-size="10.00">+ __construct()</text>
<text text-anchor="start" x="7.5" y="-380" font-family="Helvetica,sans-Serif" font-size="10.00">+ hash()</text>
<text text-anchor="start" x="7.5" y="-367" font-family="Helvetica,sans-Serif" font-size="10.00">+ process()</text>
</a>
</g>
<!-- Node1&#45;&gt;Node2 -->
<g id="edge2" class="edge"><title>Node1&#45;&gt;Node2</title>
<path fill="none" stroke="midnightblue" d="M103.366,-541.316C99.6687,-532.338 95.7165,-522.74 91.7588,-513.129"/>
<polygon fill="none" stroke="midnightblue" points="100.221,-542.872 107.265,-550.786 106.694,-540.207 100.221,-542.872"/>
</g>
<!-- Node5 -->
<g id="node9" class="node"><title>Node5</title>
<a xlink:href="../../df/d86/a00012.html" target="_top" xlink:title="an interface representing a folder with some basic folder functionality such as expanding children...">
<polygon fill="white" stroke="black" points="138,-398 138,-474 236,-474 236,-398 138,-398"/>
<text text-anchor="middle" x="187" y="-461" font-family="Helvetica,sans-Serif" font-size="10.00">IFileTreeDir</text>
<polyline fill="none" stroke="black" points="138,-453 236,-453 "/>
<text text-anchor="middle" x="187" y="-440" font-family="Helvetica,sans-Serif" font-size="10.00"> </text>
<polyline fill="none" stroke="black" points="138,-432 236,-432 "/>
<text text-anchor="start" x="146" y="-419" font-family="Helvetica,sans-Serif" font-size="10.00">+ processChild()</text>
<text text-anchor="start" x="146" y="-406" font-family="Helvetica,sans-Serif" font-size="10.00">+ expandChildren()</text>
</a>
</g>
<!-- Node1&#45;&gt;Node5 -->
<g id="edge8" class="edge"><title>Node1&#45;&gt;Node5</title>
<path fill="none" stroke="midnightblue" d="M142.887,-541.457C151.927,-519.846 162.48,-494.618 170.997,-474.257"/>
<polygon fill="none" stroke="midnightblue" points="139.615,-540.21 138.985,-550.786 146.073,-542.912 139.615,-540.21"/>
</g>
<!-- Node3 -->
<g id="node5" class="node"><title>Node3</title>
<a xlink:href="../../d4/dee/a00008.html" target="_top" xlink:title="a class representing a folder with some basic folder functionality such as expanding children...">
<polygon fill="white" stroke="black" points="74,-193 74,-321 172,-321 172,-193 74,-193"/>
<text text-anchor="middle" x="123" y="-308" font-family="Helvetica,sans-Serif" font-size="10.00">FileTreeDir</text>
<polyline fill="none" stroke="black" points="74,-300 172,-300 "/>
<text text-anchor="start" x="82" y="-287" font-family="Helvetica,sans-Serif" font-size="10.00">+ $children</text>
<text text-anchor="start" x="82" y="-274" font-family="Helvetica,sans-Serif" font-size="10.00">+ $path</text>
<text text-anchor="start" x="82" y="-261" font-family="Helvetica,sans-Serif" font-size="10.00"># $childrenIter</text>
<polyline fill="none" stroke="black" points="74,-253 172,-253 "/>
<text text-anchor="start" x="82" y="-240" font-family="Helvetica,sans-Serif" font-size="10.00">+ __construct()</text>
<text text-anchor="start" x="82" y="-227" font-family="Helvetica,sans-Serif" font-size="10.00">+ process()</text>
<text text-anchor="start" x="82" y="-214" font-family="Helvetica,sans-Serif" font-size="10.00">+ expandChildren()</text>
<text text-anchor="start" x="82" y="-201" font-family="Helvetica,sans-Serif" font-size="10.00">+ processChild()</text>
</a>
</g>
<!-- Node2&#45;&gt;Node3 -->
<g id="edge4" class="edge"><title>Node2&#45;&gt;Node3</title>
<path fill="none" stroke="midnightblue" d="M90.5129,-349.305C93.8616,-339.79 97.2252,-330.233 100.452,-321.065"/>
<polygon fill="none" stroke="midnightblue" points="87.1933,-348.194 87.1748,-358.789 93.7963,-350.518 87.1933,-348.194"/>
</g>
<!-- Node4 -->
<g id="node7" class="node"><title>Node4</title>
<a xlink:href="../../dd/dad/a00005.html" target="_top" xlink:title="a class representing a directory with backup functionality not for direct usage">
<polygon fill="white" stroke="black" points="60,-1 60,-155 186,-155 186,-1 60,-1"/>
<text text-anchor="middle" x="123" y="-142" font-family="Helvetica,sans-Serif" font-size="10.00">FileTreeBackupDir</text>
<polyline fill="none" stroke="black" points="60,-134 186,-134 "/>
<text text-anchor="start" x="68" y="-121" font-family="Helvetica,sans-Serif" font-size="10.00">+ $index</text>
<text text-anchor="start" x="68" y="-108" font-family="Helvetica,sans-Serif" font-size="10.00">+ $childrenCache</text>
<text text-anchor="start" x="68" y="-95" font-family="Helvetica,sans-Serif" font-size="10.00">+ $root</text>
<text text-anchor="start" x="68" y="-82" font-family="Helvetica,sans-Serif" font-size="10.00">+ $relPath</text>
<polyline fill="none" stroke="black" points="60,-74 186,-74 "/>
<text text-anchor="start" x="68" y="-61" font-family="Helvetica,sans-Serif" font-size="10.00">+ __construct()</text>
<text text-anchor="start" x="68" y="-48" font-family="Helvetica,sans-Serif" font-size="10.00">+ getRelPath()</text>
<text text-anchor="start" x="68" y="-35" font-family="Helvetica,sans-Serif" font-size="10.00">+ expandChildren()</text>
<text text-anchor="start" x="68" y="-22" font-family="Helvetica,sans-Serif" font-size="10.00">+ processChild()</text>
<text text-anchor="start" x="68" y="-9" font-family="Helvetica,sans-Serif" font-size="10.00">+ checkDeletedChildren()</text>
</a>
</g>
<!-- Node3&#45;&gt;Node4 -->
<g id="edge6" class="edge"><title>Node3&#45;&gt;Node4</title>
<path fill="none" stroke="midnightblue" d="M123,-182.709C123,-173.598 123,-164.271 123,-155.119"/>
<polygon fill="none" stroke="midnightblue" points="119.5,-182.882 123,-192.882 126.5,-182.883 119.5,-182.882"/>
</g>
<!-- Node5&#45;&gt;Node3 -->
<g id="edge10" class="edge"><title>Node5&#45;&gt;Node3</title>
<path fill="none" stroke="midnightblue" d="M169.882,-388.124C162.519,-367.531 153.804,-343.154 145.897,-321.04"/>
<polygon fill="none" stroke="midnightblue" points="166.608,-389.362 173.27,-397.6 173.199,-387.005 166.608,-389.362"/>
</g>
</g>
</svg>
