<?xml version="1.0" encoding="UTF-8" standalone="no"?>
<!DOCTYPE svg PUBLIC "-//W3C//DTD SVG 1.1//EN"
 "http://www.w3.org/Graphics/SVG/1.1/DTD/svg11.dtd">
<!-- Generated by graphviz version 2.26.3 (20100126.1600)
 -->
<!-- Title: FileTreeBackuperIndex Pages: 1 -->
<svg width="170pt" height="652pt"
 viewBox="0.00 0.00 170.00 652.00" xmlns="http://www.w3.org/2000/svg" xmlns:xlink="http://www.w3.org/1999/xlink">
<g id="graph1" class="graph" transform="scale(1 1) rotate(0) translate(4 648)">
<title>FileTreeBackuperIndex</title>
<polygon fill="white" stroke="white" points="-4,5 -4,-648 167,-648 167,5 -4,5"/>
<!-- Node1 -->
<g id="node1" class="node"><title>Node1</title>
<polygon fill="#bfbfbf" stroke="black" points="11,-1 11,-311 151,-311 151,-1 11,-1"/>
<text text-anchor="middle" x="81" y="-298" font-family="Helvetica,sans-Serif" font-size="10.00">FileTreeBackuperIndex</text>
<polyline fill="none" stroke="black" points="11,-290 151,-290 "/>
<text text-anchor="start" x="19" y="-277" font-family="Helvetica,sans-Serif" font-size="10.00">+ $base</text>
<text text-anchor="start" x="19" y="-264" font-family="Helvetica,sans-Serif" font-size="10.00">+ indexPrefix</text>
<text text-anchor="start" x="19" y="-251" font-family="Helvetica,sans-Serif" font-size="10.00">+ $moved</text>
<text text-anchor="start" x="19" y="-238" font-family="Helvetica,sans-Serif" font-size="10.00">+ $deleted</text>
<text text-anchor="start" x="19" y="-225" font-family="Helvetica,sans-Serif" font-size="10.00">+ $changed</text>
<text text-anchor="start" x="19" y="-212" font-family="Helvetica,sans-Serif" font-size="10.00">+ $added</text>
<text text-anchor="start" x="19" y="-199" font-family="Helvetica,sans-Serif" font-size="10.00">+ $ignores</text>
<text text-anchor="start" x="19" y="-186" font-family="Helvetica,sans-Serif" font-size="10.00">+ $inodes</text>
<text text-anchor="start" x="19" y="-173" font-family="Helvetica,sans-Serif" font-size="10.00">+ $queriesTemplates</text>
<text text-anchor="start" x="19" y="-160" font-family="Helvetica,sans-Serif" font-size="10.00">+ $baseStructureBuildQuery</text>
<polyline fill="none" stroke="black" points="11,-152 151,-152 "/>
<text text-anchor="start" x="19" y="-139" font-family="Helvetica,sans-Serif" font-size="10.00">+ __construct()</text>
<text text-anchor="start" x="19" y="-126" font-family="Helvetica,sans-Serif" font-size="10.00">+ load()</text>
<text text-anchor="start" x="19" y="-113" font-family="Helvetica,sans-Serif" font-size="10.00">+ checkIsIgnored()</text>
<text text-anchor="start" x="19" y="-100" font-family="Helvetica,sans-Serif" font-size="10.00">+ loadChildren()</text>
<text text-anchor="start" x="19" y="-87" font-family="Helvetica,sans-Serif" font-size="10.00">+ needBackup()</text>
<text text-anchor="start" x="19" y="-74" font-family="Helvetica,sans-Serif" font-size="10.00">+ save()</text>
<text text-anchor="start" x="19" y="-61" font-family="Helvetica,sans-Serif" font-size="10.00">+ saveAdded()</text>
<text text-anchor="start" x="19" y="-48" font-family="Helvetica,sans-Serif" font-size="10.00">+ saveChanged()</text>
<text text-anchor="start" x="19" y="-35" font-family="Helvetica,sans-Serif" font-size="10.00">+ saveMoved()</text>
<text text-anchor="start" x="19" y="-22" font-family="Helvetica,sans-Serif" font-size="10.00">+ saveDeleted()</text>
<text text-anchor="start" x="19" y="-9" font-family="Helvetica,sans-Serif" font-size="10.00">+ makeCommitRecord()</text>
</g>
<!-- Node2 -->
<g id="node2" class="node"><title>Node2</title>
<a xlink:href="../../d7/d46/a00002.html" target="_top" xlink:title="A class for mantaining index.">
<polygon fill="white" stroke="black" points="0,-349 0,-529 162,-529 162,-349 0,-349"/>
<text text-anchor="middle" x="81" y="-516" font-family="Helvetica,sans-Serif" font-size="10.00">BackuperIndex</text>
<polyline fill="none" stroke="black" points="0,-508 162,-508 "/>
<text text-anchor="start" x="8" y="-495" font-family="Helvetica,sans-Serif" font-size="10.00">+ $base</text>
<text text-anchor="start" x="8" y="-482" font-family="Helvetica,sans-Serif" font-size="10.00">+ $queries</text>
<text text-anchor="start" x="8" y="-469" font-family="Helvetica,sans-Serif" font-size="10.00">+ createTableQueryTempl</text>
<text text-anchor="start" x="8" y="-456" font-family="Helvetica,sans-Serif" font-size="10.00">+ indexPrefix</text>
<text text-anchor="start" x="8" y="-443" font-family="Helvetica,sans-Serif" font-size="10.00">+ $queriesTemplates</text>
<text text-anchor="start" x="8" y="-430" font-family="Helvetica,sans-Serif" font-size="10.00">+ $baseStructureBuildQuery</text>
<polyline fill="none" stroke="black" points="0,-422 162,-422 "/>
<text text-anchor="start" x="8" y="-409" font-family="Helvetica,sans-Serif" font-size="10.00">+ __construct()</text>
<text text-anchor="start" x="8" y="-396" font-family="Helvetica,sans-Serif" font-size="10.00">+ prepareQueries()</text>
<text text-anchor="start" x="8" y="-383" font-family="Helvetica,sans-Serif" font-size="10.00">+ checkInitializedAndInitMissing()</text>
<text text-anchor="start" x="8" y="-370" font-family="Helvetica,sans-Serif" font-size="10.00">+ load()</text>
<text text-anchor="start" x="8" y="-357" font-family="Helvetica,sans-Serif" font-size="10.00">+ __destruct()</text>
</a>
</g>
<!-- Node2&#45;&gt;Node1 -->
<g id="edge2" class="edge"><title>Node2&#45;&gt;Node1</title>
<path fill="none" stroke="midnightblue" d="M81,-338.673C81,-329.713 81,-320.511 81,-311.23"/>
<polygon fill="none" stroke="midnightblue" points="77.5001,-338.679 81,-348.679 84.5001,-338.679 77.5001,-338.679"/>
</g>
<!-- Node3 -->
<g id="node4" class="node"><title>Node3</title>
<a xlink:href="../../da/d45/a00011.html" target="_top" xlink:title="can take either string or PDO object if it is not BackuperIndex it will take PDO object, BackuperIndex will take either PDO or string, most likely string">
<polygon fill="white" stroke="black" points="0,-567 0,-643 162,-643 162,-567 0,-567"/>
<text text-anchor="middle" x="81" y="-630" font-family="Helvetica,sans-Serif" font-size="10.00">IBackuperIndex</text>
<polyline fill="none" stroke="black" points="0,-622 162,-622 "/>
<text text-anchor="middle" x="81" y="-609" font-family="Helvetica,sans-Serif" font-size="10.00"> </text>
<polyline fill="none" stroke="black" points="0,-601 162,-601 "/>
<text text-anchor="start" x="8" y="-588" font-family="Helvetica,sans-Serif" font-size="10.00">+ checkInitializedAndInitMissing()</text>
<text text-anchor="start" x="8" y="-575" font-family="Helvetica,sans-Serif" font-size="10.00">+ load()</text>
</a>
</g>
<!-- Node3&#45;&gt;Node2 -->
<g id="edge4" class="edge"><title>Node3&#45;&gt;Node2</title>
<path fill="none" stroke="midnightblue" d="M81,-556.666C81,-547.986 81,-538.688 81,-529.265"/>
<polygon fill="none" stroke="midnightblue" points="77.5001,-556.916 81,-566.916 84.5001,-556.916 77.5001,-556.916"/>
</g>
</g>
</svg>
