<?xml version="1.0" encoding="UTF-8" standalone="no"?>
<!DOCTYPE svg PUBLIC "-//W3C//DTD SVG 1.1//EN"
 "http://www.w3.org/Graphics/SVG/1.1/DTD/svg11.dtd">
<!-- Generated by graphviz version 2.26.3 (20100126.1600)
 -->
<!-- Title: FileTreeItem Pages: 1 -->
<svg width="208pt" height="278pt"
 viewBox="0.00 0.00 208.00 278.00" xmlns="http://www.w3.org/2000/svg" xmlns:xlink="http://www.w3.org/1999/xlink">
<g id="graph1" class="graph" transform="scale(1 1) rotate(0) translate(4 274)">
<title>FileTreeItem</title>
<polygon fill="white" stroke="white" points="-4,5 -4,-274 205,-274 205,5 -4,5"/>
<!-- Node1 -->
<g id="node1" class="node"><title>Node1</title>
<polygon fill="#bfbfbf" stroke="black" points="31.5,-0.5 31.5,-141.5 114.5,-141.5 114.5,-0.5 31.5,-0.5"/>
<text text-anchor="middle" x="73" y="-128.5" font-family="Helvetica,sans-Serif" font-size="10.00">FileTreeItem</text>
<polyline fill="none" stroke="black" points="31.5,-120.5 114.5,-120.5 "/>
<text text-anchor="start" x="39.5" y="-107.5" font-family="Helvetica,sans-Serif" font-size="10.00">+ $name</text>
<text text-anchor="start" x="39.5" y="-94.5" font-family="Helvetica,sans-Serif" font-size="10.00">+ $parent</text>
<text text-anchor="start" x="39.5" y="-81.5" font-family="Helvetica,sans-Serif" font-size="10.00">+ $hash</text>
<text text-anchor="start" x="39.5" y="-68.5" font-family="Helvetica,sans-Serif" font-size="10.00">+ $pathhash</text>
<polyline fill="none" stroke="black" points="31.5,-60.5 114.5,-60.5 "/>
<text text-anchor="start" x="39.5" y="-47.5" font-family="Helvetica,sans-Serif" font-size="10.00">+ showAtrs()</text>
<text text-anchor="start" x="39.5" y="-34.5" font-family="Helvetica,sans-Serif" font-size="10.00">+ __construct()</text>
<text text-anchor="start" x="39.5" y="-21.5" font-family="Helvetica,sans-Serif" font-size="10.00">+ hash()</text>
<text text-anchor="start" x="39.5" y="-8.5" font-family="Helvetica,sans-Serif" font-size="10.00">+ process()</text>
</g>
<!-- Node2 -->
<g id="node2" class="node"><title>Node2</title>
<a xlink:href="../../d7/dd4/a00013.html" target="_top" xlink:title="an interface representing a node of file tree with some basic folder functionality such as hashing...">
<polygon fill="white" stroke="black" points="0,-193 0,-269 72,-269 72,-193 0,-193"/>
<text text-anchor="middle" x="36" y="-256" font-family="Helvetica,sans-Serif" font-size="10.00">IFileTreeItem</text>
<polyline fill="none" stroke="black" points="0,-248 72,-248 "/>
<text text-anchor="middle" x="36" y="-235" font-family="Helvetica,sans-Serif" font-size="10.00"> </text>
<polyline fill="none" stroke="black" points="0,-227 72,-227 "/>
<text text-anchor="start" x="8" y="-214" font-family="Helvetica,sans-Serif" font-size="10.00">+ hash()</text>
<text text-anchor="start" x="8" y="-201" font-family="Helvetica,sans-Serif" font-size="10.00">+ process()</text>
</a>
</g>
<!-- Node2&#45;&gt;Node1 -->
<g id="edge2" class="edge"><title>Node2&#45;&gt;Node1</title>
<path fill="none" stroke="midnightblue" d="M47.1884,-182.618C50.1792,-169.685 53.4739,-155.437 56.68,-141.573"/>
<polygon fill="none" stroke="midnightblue" points="43.7055,-182.145 44.8624,-192.676 50.5255,-183.722 43.7055,-182.145"/>
</g>
<!-- Node3 -->
<g id="node4" class="node"><title>Node3</title>
<polygon fill="white" stroke="#bfbfbf" points="89.5,-199.5 89.5,-262.5 130.5,-262.5 130.5,-199.5 89.5,-199.5"/>
<text text-anchor="middle" x="110" y="-249.5" font-family="Helvetica,sans-Serif" font-size="10.00">static</text>
<polyline fill="none" stroke="#bfbfbf" points="89.5,-241.5 130.5,-241.5 "/>
<text text-anchor="middle" x="110" y="-228.5" font-family="Helvetica,sans-Serif" font-size="10.00"> </text>
<polyline fill="none" stroke="#bfbfbf" points="89.5,-220.5 130.5,-220.5 "/>
<text text-anchor="middle" x="110" y="-207.5" font-family="Helvetica,sans-Serif" font-size="10.00"> </text>
</g>
<!-- Node3&#45;&gt;Node1 -->
<g id="edge4" class="edge"><title>Node3&#45;&gt;Node1</title>
<path fill="none" stroke="#404040" d="M102.69,-199.389C99.6056,-186.051 95.8566,-169.839 92.0754,-153.488"/>
<polygon fill="none" stroke="#404040" points="92.0292,-153.288 86.7802,-148.344 89.3255,-141.597 94.5745,-146.541 92.0292,-153.288"/>
<text text-anchor="middle" x="147.5" y="-164.5" font-family="Helvetica,sans-Serif" font-size="10.00"> +$attributesForHashing</text>
</g>
</g>
</svg>
