<?xml version="1.0" encoding="UTF-8" standalone="no"?>
<!DOCTYPE svg PUBLIC "-//W3C//DTD SVG 1.1//EN"
 "http://www.w3.org/Graphics/SVG/1.1/DTD/svg11.dtd">
<!-- Generated by graphviz version 2.26.3 (20100126.1600)
 -->
<!-- Title: IUploader Pages: 1 -->
<svg width="596pt" height="238pt"
 viewBox="0.00 0.00 596.00 238.00" xmlns="http://www.w3.org/2000/svg" xmlns:xlink="http://www.w3.org/1999/xlink">
<g id="graph1" class="graph" transform="scale(1 1) rotate(0) translate(4 234)">
<title>IUploader</title>
<polygon fill="white" stroke="white" points="-4,5 -4,-234 593,-234 593,5 -4,5"/>
<!-- Node1 -->
<g id="node1" class="node"><title>Node1</title>
<polygon fill="#bfbfbf" stroke="black" points="234.5,-153 234.5,-229 317.5,-229 317.5,-153 234.5,-153"/>
<text text-anchor="middle" x="276" y="-216" font-family="Helvetica,sans-Serif" font-size="10.00">IUploader</text>
<polyline fill="none" stroke="black" points="234.5,-208 317.5,-208 "/>
<text text-anchor="middle" x="276" y="-195" font-family="Helvetica,sans-Serif" font-size="10.00"> </text>
<polyline fill="none" stroke="black" points="234.5,-187 317.5,-187 "/>
<text text-anchor="start" x="242.5" y="-174" font-family="Helvetica,sans-Serif" font-size="10.00">+ __construct()</text>
<text text-anchor="start" x="242.5" y="-161" font-family="Helvetica,sans-Serif" font-size="10.00">+ upload()</text>
</g>
<!-- Node2 -->
<g id="node3" class="node"><title>Node2</title>
<a xlink:href="../../d1/d7c/a00003.html" target="_top" xlink:title="Uploads the backup to Dropbox using login (e&#45;mail) and password it is insecure to store them on the s...">
<polygon fill="white" stroke="black" points="-0.5,-7 -0.5,-109 130.5,-109 130.5,-7 -0.5,-7"/>
<text text-anchor="middle" x="65" y="-96" font-family="Helvetica,sans-Serif" font-size="10.00">DropboxSimpleUploader</text>
<polyline fill="none" stroke="black" points="-0.5,-88 130.5,-88 "/>
<text text-anchor="start" x="7.5" y="-75" font-family="Helvetica,sans-Serif" font-size="10.00">+ $dir</text>
<text text-anchor="start" x="7.5" y="-62" font-family="Helvetica,sans-Serif" font-size="10.00">+ $dropbox</text>
<polyline fill="none" stroke="black" points="-0.5,-54 130.5,-54 "/>
<text text-anchor="start" x="7.5" y="-41" font-family="Helvetica,sans-Serif" font-size="10.00">+ __construct()</text>
<text text-anchor="start" x="7.5" y="-28" font-family="Helvetica,sans-Serif" font-size="10.00">+ checkServerRequisites()</text>
<text text-anchor="start" x="7.5" y="-15" font-family="Helvetica,sans-Serif" font-size="10.00">+ upload()</text>
</a>
</g>
<!-- Node1&#45;&gt;Node2 -->
<g id="edge2" class="edge"><title>Node1&#45;&gt;Node2</title>
<path fill="none" stroke="midnightblue" d="M225.166,-165.715C198.846,-151.993 166.542,-134.156 139,-116 135.729,-113.844 132.421,-111.582 129.112,-109.254"/>
<polygon fill="none" stroke="midnightblue" points="223.719,-168.906 234.209,-170.39 226.934,-162.688 223.719,-168.906"/>
</g>
<!-- Node3 -->
<g id="node5" class="node"><title>Node3</title>
<a xlink:href="../../d0/d0b/a00004.html" target="_top" xlink:title="This plugin is for testing exceptions in plugins initialization phase.">
<polygon fill="white" stroke="black" points="147.5,-20 147.5,-96 264.5,-96 264.5,-20 147.5,-20"/>
<text text-anchor="middle" x="206" y="-83" font-family="Helvetica,sans-Serif" font-size="10.00">ExceptionTestUploader</text>
<polyline fill="none" stroke="black" points="147.5,-75 264.5,-75 "/>
<text text-anchor="middle" x="206" y="-62" font-family="Helvetica,sans-Serif" font-size="10.00"> </text>
<polyline fill="none" stroke="black" points="147.5,-54 264.5,-54 "/>
<text text-anchor="start" x="155.5" y="-41" font-family="Helvetica,sans-Serif" font-size="10.00">+ __construct()</text>
<text text-anchor="start" x="155.5" y="-28" font-family="Helvetica,sans-Serif" font-size="10.00">+ upload()</text>
</a>
</g>
<!-- Node1&#45;&gt;Node3 -->
<g id="edge4" class="edge"><title>Node1&#45;&gt;Node3</title>
<path fill="none" stroke="midnightblue" d="M251.201,-143.882C242.962,-128.229 233.898,-111.005 226.062,-96.118"/>
<polygon fill="none" stroke="midnightblue" points="248.186,-145.668 255.941,-152.888 254.381,-142.408 248.186,-145.668"/>
</g>
<!-- Node4 -->
<g id="node7" class="node"><title>Node4</title>
<a xlink:href="../../d7/d7a/a00016.html" target="_top" xlink:title="Uploads the backup to SugarSync using login (e&#45;mail) and password also you will need accessKeyId and ...">
<polygon fill="white" stroke="black" points="281.5,-7 281.5,-109 412.5,-109 412.5,-7 281.5,-7"/>
<text text-anchor="middle" x="347" y="-96" font-family="Helvetica,sans-Serif" font-size="10.00">SugarSyncUploader</text>
<polyline fill="none" stroke="black" points="281.5,-88 412.5,-88 "/>
<text text-anchor="start" x="289.5" y="-75" font-family="Helvetica,sans-Serif" font-size="10.00">+ $dir</text>
<text text-anchor="start" x="289.5" y="-62" font-family="Helvetica,sans-Serif" font-size="10.00">+ $sugar</text>
<polyline fill="none" stroke="black" points="281.5,-54 412.5,-54 "/>
<text text-anchor="start" x="289.5" y="-41" font-family="Helvetica,sans-Serif" font-size="10.00">+ __construct()</text>
<text text-anchor="start" x="289.5" y="-28" font-family="Helvetica,sans-Serif" font-size="10.00">+ checkServerRequisites()</text>
<text text-anchor="start" x="289.5" y="-15" font-family="Helvetica,sans-Serif" font-size="10.00">+ upload()</text>
</a>
</g>
<!-- Node1&#45;&gt;Node4 -->
<g id="edge6" class="edge"><title>Node1&#45;&gt;Node4</title>
<path fill="none" stroke="midnightblue" d="M301.087,-144.007C307.135,-132.676 313.626,-120.517 319.768,-109.013"/>
<polygon fill="none" stroke="midnightblue" points="297.968,-142.418 296.346,-152.888 304.143,-145.714 297.968,-142.418"/>
</g>
<!-- Node5 -->
<g id="node9" class="node"><title>Node5</title>
<a xlink:href="../../d4/d51/a00017.html" target="_top" xlink:title="{WebDAVUploader\n|+ $dir\l+ $webDav\l# $prefs\l|+ __construct()\l+ verifyServerAndInitConnection()\l+ upload()\l}">
<polygon fill="white" stroke="black" points="429.5,-0.5 429.5,-115.5 588.5,-115.5 588.5,-0.5 429.5,-0.5"/>
<text text-anchor="middle" x="509" y="-102.5" font-family="Helvetica,sans-Serif" font-size="10.00">WebDAVUploader</text>
<polyline fill="none" stroke="black" points="429.5,-94.5 588.5,-94.5 "/>
<text text-anchor="start" x="437.5" y="-81.5" font-family="Helvetica,sans-Serif" font-size="10.00">+ $dir</text>
<text text-anchor="start" x="437.5" y="-68.5" font-family="Helvetica,sans-Serif" font-size="10.00">+ $webDav</text>
<text text-anchor="start" x="437.5" y="-55.5" font-family="Helvetica,sans-Serif" font-size="10.00"># $prefs</text>
<polyline fill="none" stroke="black" points="429.5,-47.5 588.5,-47.5 "/>
<text text-anchor="start" x="437.5" y="-34.5" font-family="Helvetica,sans-Serif" font-size="10.00">+ __construct()</text>
<text text-anchor="start" x="437.5" y="-21.5" font-family="Helvetica,sans-Serif" font-size="10.00">+ verifyServerAndInitConnection()</text>
<text text-anchor="start" x="437.5" y="-8.5" font-family="Helvetica,sans-Serif" font-size="10.00">+ upload()</text>
</a>
</g>
<!-- Node1&#45;&gt;Node5 -->
<g id="edge8" class="edge"><title>Node1&#45;&gt;Node5</title>
<path fill="none" stroke="midnightblue" d="M326.813,-166.364C354.959,-152.309 390.353,-133.958 421,-116 423.684,-114.427 426.399,-112.808 429.13,-111.155"/>
<polygon fill="none" stroke="midnightblue" points="324.961,-163.375 317.563,-170.959 328.076,-169.645 324.961,-163.375"/>
</g>
</g>
</svg>
