<?xml version="1.0" encoding="UTF-8" standalone="no"?>
<!DOCTYPE svg PUBLIC "-//W3C//DTD SVG 1.1//EN"
 "http://www.w3.org/Graphics/SVG/1.1/DTD/svg11.dtd">
<!-- Generated by graphviz version 2.26.3 (20100126.1600)
 -->
<!-- Title: Backuper Pages: 1 -->
<svg width="212pt" height="380pt"
 viewBox="0.00 0.00 212.00 380.00" xmlns="http://www.w3.org/2000/svg" xmlns:xlink="http://www.w3.org/1999/xlink">
<g id="graph1" class="graph" transform="scale(1 1) rotate(0) translate(4 376)">
<title>Backuper</title>
<polygon fill="white" stroke="white" points="-4,5 -4,-376 209,-376 209,5 -4,5"/>
<!-- Node1 -->
<g id="node1" class="node"><title>Node1</title>
<polygon fill="#bfbfbf" stroke="black" points="9.5,-0.5 9.5,-245.5 152.5,-245.5 152.5,-0.5 9.5,-0.5"/>
<text text-anchor="middle" x="81" y="-232.5" font-family="Helvetica,sans-Serif" font-size="10.00">Backuper</text>
<polyline fill="none" stroke="black" points="9.5,-224.5 152.5,-224.5 "/>
<text text-anchor="start" x="17.5" y="-211.5" font-family="Helvetica,sans-Serif" font-size="10.00">+ $index</text>
<text text-anchor="start" x="17.5" y="-198.5" font-family="Helvetica,sans-Serif" font-size="10.00">+ $arch</text>
<text text-anchor="start" x="17.5" y="-185.5" font-family="Helvetica,sans-Serif" font-size="10.00">+ $archiveFormat</text>
<text text-anchor="start" x="17.5" y="-172.5" font-family="Helvetica,sans-Serif" font-size="10.00">+ $archiveCompression</text>
<text text-anchor="start" x="17.5" y="-159.5" font-family="Helvetica,sans-Serif" font-size="10.00">+ $archiveFileExtension</text>
<text text-anchor="start" x="17.5" y="-146.5" font-family="Helvetica,sans-Serif" font-size="10.00">+ $plugins</text>
<polyline fill="none" stroke="black" points="9.5,-138.5 152.5,-138.5 "/>
<text text-anchor="start" x="17.5" y="-125.5" font-family="Helvetica,sans-Serif" font-size="10.00">+ __construct()</text>
<text text-anchor="start" x="17.5" y="-112.5" font-family="Helvetica,sans-Serif" font-size="10.00">+ determineArchiveFormatBy</text>
<text text-anchor="start" x="17.5" y="-99.5" font-family="Helvetica,sans-Serif" font-size="10.00">String()</text>
<text text-anchor="start" x="17.5" y="-86.5" font-family="Helvetica,sans-Serif" font-size="10.00">+ initPlugins()</text>
<text text-anchor="start" x="17.5" y="-73.5" font-family="Helvetica,sans-Serif" font-size="10.00">+ backupIndex()</text>
<text text-anchor="start" x="17.5" y="-60.5" font-family="Helvetica,sans-Serif" font-size="10.00">+ needBackup()</text>
<text text-anchor="start" x="17.5" y="-47.5" font-family="Helvetica,sans-Serif" font-size="10.00">+ makeBackup()</text>
<text text-anchor="start" x="17.5" y="-34.5" font-family="Helvetica,sans-Serif" font-size="10.00">+ prepareForBackup()</text>
<text text-anchor="start" x="17.5" y="-21.5" font-family="Helvetica,sans-Serif" font-size="10.00">+ makeBackups()</text>
<text text-anchor="start" x="17.5" y="-8.5" font-family="Helvetica,sans-Serif" font-size="10.00">+ save()</text>
</g>
<!-- Node2 -->
<g id="node2" class="node"><title>Node2</title>
<polygon fill="white" stroke="#bfbfbf" points="-0.5,-308.5 -0.5,-371.5 40.5,-371.5 40.5,-308.5 -0.5,-308.5"/>
<text text-anchor="middle" x="20" y="-358.5" font-family="Helvetica,sans-Serif" font-size="10.00">const</text>
<polyline fill="none" stroke="#bfbfbf" points="-0.5,-350.5 40.5,-350.5 "/>
<text text-anchor="middle" x="20" y="-337.5" font-family="Helvetica,sans-Serif" font-size="10.00"> </text>
<polyline fill="none" stroke="#bfbfbf" points="-0.5,-329.5 40.5,-329.5 "/>
<text text-anchor="middle" x="20" y="-316.5" font-family="Helvetica,sans-Serif" font-size="10.00"> </text>
</g>
<!-- Node2&#45;&gt;Node1 -->
<g id="edge2" class="edge"><title>Node2&#45;&gt;Node1</title>
<path fill="none" stroke="#404040" d="M17.6915,-308.268C17.3898,-294.524 17.9791,-278.332 21,-264 21.4634,-261.802 21.9615,-259.595 22.4915,-257.382"/>
<polygon fill="none" stroke="#404040" points="22.5603,-257.121 20.2192,-250.301 25.6146,-245.516 27.9557,-252.337 22.5603,-257.121"/>
<text text-anchor="middle" x="71" y="-274.5" font-family="Helvetica,sans-Serif" font-size="10.00"> +defaultArchiveFormat</text>
</g>
<!-- Node3 -->
<g id="node4" class="node"><title>Node3</title>
<polygon fill="white" stroke="#bfbfbf" points="122.5,-308.5 122.5,-371.5 163.5,-371.5 163.5,-308.5 122.5,-308.5"/>
<text text-anchor="middle" x="143" y="-358.5" font-family="Helvetica,sans-Serif" font-size="10.00">static</text>
<polyline fill="none" stroke="#bfbfbf" points="122.5,-350.5 163.5,-350.5 "/>
<text text-anchor="middle" x="143" y="-337.5" font-family="Helvetica,sans-Serif" font-size="10.00"> </text>
<polyline fill="none" stroke="#bfbfbf" points="122.5,-329.5 163.5,-329.5 "/>
<text text-anchor="middle" x="143" y="-316.5" font-family="Helvetica,sans-Serif" font-size="10.00"> </text>
</g>
<!-- Node3&#45;&gt;Node1 -->
<g id="edge4" class="edge"><title>Node3&#45;&gt;Node1</title>
<path fill="none" stroke="#404040" d="M133.985,-308.446C129.933,-294.265 124.849,-276.47 119.443,-257.552"/>
<polygon fill="none" stroke="#404040" points="119.433,-257.516 113.939,-252.846 116.137,-245.978 121.631,-250.648 119.433,-257.516"/>
<text text-anchor="middle" x="166" y="-281" font-family="Helvetica,sans-Serif" font-size="10.00"> +$backupsDir</text>
<text text-anchor="middle" x="166" y="-268" font-family="Helvetica,sans-Serif" font-size="10.00">+$indexFileName</text>
</g>
</g>
</svg>
