<?xml version="1.0" encoding="UTF-8" standalone="no"?>
<!DOCTYPE svg PUBLIC "-//W3C//DTD SVG 1.1//EN"
 "http://www.w3.org/Graphics/SVG/1.1/DTD/svg11.dtd">
<!-- Generated by graphviz version 2.26.3 (20100126.1600)
 -->
<!-- Title: FileTreeBackuper Pages: 1 -->
<svg width="118pt" height="342pt"
 viewBox="0.00 0.00 118.00 342.00" xmlns="http://www.w3.org/2000/svg" xmlns:xlink="http://www.w3.org/1999/xlink">
<g id="graph1" class="graph" transform="scale(1 1) rotate(0) translate(4 338)">
<title>FileTreeBackuper</title>
<polygon fill="white" stroke="white" points="-4,5 -4,-338 115,-338 115,5 -4,5"/>
<!-- Node1 -->
<g id="node1" class="node"><title>Node1</title>
<polygon fill="#bfbfbf" stroke="black" points="-0.5,-0.5 -0.5,-193.5 110.5,-193.5 110.5,-0.5 -0.5,-0.5"/>
<text text-anchor="middle" x="55" y="-180.5" font-family="Helvetica,sans-Serif" font-size="10.00">FileTreeBackuper</text>
<polyline fill="none" stroke="black" points="-0.5,-172.5 110.5,-172.5 "/>
<text text-anchor="start" x="7.5" y="-159.5" font-family="Helvetica,sans-Serif" font-size="10.00">+ $index</text>
<text text-anchor="start" x="7.5" y="-146.5" font-family="Helvetica,sans-Serif" font-size="10.00">+ $roots</text>
<text text-anchor="start" x="7.5" y="-133.5" font-family="Helvetica,sans-Serif" font-size="10.00">+ filesDir</text>
<text text-anchor="start" x="7.5" y="-120.5" font-family="Helvetica,sans-Serif" font-size="10.00">+ patchesDir</text>
<text text-anchor="start" x="7.5" y="-107.5" font-family="Helvetica,sans-Serif" font-size="10.00">+ $zip</text>
<polyline fill="none" stroke="black" points="-0.5,-99.5 110.5,-99.5 "/>
<text text-anchor="start" x="7.5" y="-86.5" font-family="Helvetica,sans-Serif" font-size="10.00">+ __construct()</text>
<text text-anchor="start" x="7.5" y="-73.5" font-family="Helvetica,sans-Serif" font-size="10.00">+ prepareForBackup()</text>
<text text-anchor="start" x="7.5" y="-60.5" font-family="Helvetica,sans-Serif" font-size="10.00">+ makeBackup()</text>
<text text-anchor="start" x="7.5" y="-47.5" font-family="Helvetica,sans-Serif" font-size="10.00">+ needBackup()</text>
<text text-anchor="start" x="7.5" y="-34.5" font-family="Helvetica,sans-Serif" font-size="10.00">&#45; detectMoved()</text>
<text text-anchor="start" x="7.5" y="-21.5" font-family="Helvetica,sans-Serif" font-size="10.00">&#45; archivateAdded()</text>
<text text-anchor="start" x="7.5" y="-8.5" font-family="Helvetica,sans-Serif" font-size="10.00">&#45; archivateChanged()</text>
</g>
<!-- Node2 -->
<g id="node2" class="node"><title>Node2</title>
<a xlink:href="../../d7/dec/a00010.html" target="_top" xlink:title="{IBackuper\n||+ __construct()\l+ makeBackup()\l+ prepareForBackup()\l+ needBackup()\l}">
<polygon fill="white" stroke="black" points="-0.5,-231 -0.5,-333 110.5,-333 110.5,-231 -0.5,-231"/>
<text text-anchor="middle" x="55" y="-320" font-family="Helvetica,sans-Serif" font-size="10.00">IBackuper</text>
<polyline fill="none" stroke="black" points="-0.5,-312 110.5,-312 "/>
<text text-anchor="middle" x="55" y="-299" font-family="Helvetica,sans-Serif" font-size="10.00"> </text>
<polyline fill="none" stroke="black" points="-0.5,-291 110.5,-291 "/>
<text text-anchor="start" x="7.5" y="-278" font-family="Helvetica,sans-Serif" font-size="10.00">+ __construct()</text>
<text text-anchor="start" x="7.5" y="-265" font-family="Helvetica,sans-Serif" font-size="10.00">+ makeBackup()</text>
<text text-anchor="start" x="7.5" y="-252" font-family="Helvetica,sans-Serif" font-size="10.00">+ prepareForBackup()</text>
<text text-anchor="start" x="7.5" y="-239" font-family="Helvetica,sans-Serif" font-size="10.00">+ needBackup()</text>
</a>
</g>
<!-- Node2&#45;&gt;Node1 -->
<g id="edge2" class="edge"><title>Node2&#45;&gt;Node1</title>
<path fill="none" stroke="midnightblue" d="M55,-220.881C55,-212.112 55,-202.915 55,-193.662"/>
<polygon fill="none" stroke="midnightblue" points="51.5001,-220.958 55,-230.958 58.5001,-220.958 51.5001,-220.958"/>
</g>
</g>
</svg>
