<?xml version="1.0" encoding="UTF-8" standalone="no"?>
<!DOCTYPE svg PUBLIC "-//W3C//DTD SVG 1.1//EN"
 "http://www.w3.org/Graphics/SVG/1.1/DTD/svg11.dtd">
<!-- Generated by graphviz version 2.26.3 (20100126.1600)
 -->
<!-- Title: IFileTreeDir Pages: 1 -->
<!--zoomable 558 -->
<svg id="main" version="1.1" xmlns="http://www.w3.org/2000/svg" xmlns:xlink="http://www.w3.org/1999/xlink" xml:space="preserve" onload="init(evt)">
<style type="text/css"><![CDATA[
.edge:hover path { stroke: red; }
.edge:hover polygon { stroke: red; fill: red; }
]]></style>
<script type="text/javascript"><![CDATA[
var edges = document.getElementsByTagName('g');
for (var i=0;i<edges.length;i++) {
  if (edges[i].id.substr(0,4)=='edge') {
    edges[i].setAttribute('class','edge');
  }
}
]]></script>
        <defs>
                <circle id="rim" cx="0" cy="0" r="7"/>
                <circle id="rim2" cx="0" cy="0" r="3.5"/>
                <g id="zoomPlus">
                        <use xlink:href="#rim" fill="#404040">
                                <set attributeName="fill" to="#808080" begin="zoomplus.mouseover" end="zoomplus.mouseout"/>
                        </use>
                        <path d="M-4,0h8M0,-4v8" fill="none" stroke="white" stroke-width="1.5" pointer-events="none"/>
                </g>
                <g id="zoomMin">
                        <use xlink:href="#rim" fill="#404040">
                                <set attributeName="fill" to="#808080" begin="zoomminus.mouseover" end="zoomminus.mouseout"/>
                        </use>
                        <path d="M-4,0h8" fill="none" stroke="white" stroke-width="1.5" pointer-events="none"/>
                </g>
                <g id="dirArrow">
                        <path fill="none" stroke="white" stroke-width="1.5" d="M0,-3.0v7 M-2.5,-0.5L0,-3.0L2.5,-0.5"/>
                </g>
               <g id="resetDef">
                       <use xlink:href="#rim2" fill="#404040">
                               <set attributeName="fill" to="#808080" begin="reset.mouseover" end="reset.mouseout"/>
                       </use>
               </g>
        </defs>

<script type="text/javascript">
var viewWidth = 134;
var viewHeight = 558;
var sectionId = 'dynsection-0';
</script>
<script xlink:href="../../svgpan.js"/>
<svg id="graph" class="graph">
<g id="viewport">
<title>IFileTreeDir</title>
<polygon fill="white" stroke="white" points="-4,5 -4,-554 131,-554 131,5 -4,5"/>
<!-- Node1 -->
<g id="node1" class="node"><title>Node1</title>
<polygon fill="#bfbfbf" stroke="black" points="14,-359 14,-435 112,-435 112,-359 14,-359"/>
<text text-anchor="middle" x="63" y="-422" font-family="Helvetica,sans-Serif" font-size="10.00">IFileTreeDir</text>
<polyline fill="none" stroke="black" points="14,-414 112,-414 "/>
<text text-anchor="middle" x="63" y="-401" font-family="Helvetica,sans-Serif" font-size="10.00"> </text>
<polyline fill="none" stroke="black" points="14,-393 112,-393 "/>
<text text-anchor="start" x="22" y="-380" font-family="Helvetica,sans-Serif" font-size="10.00">+ processChild()</text>
<text text-anchor="start" x="22" y="-367" font-family="Helvetica,sans-Serif" font-size="10.00">+ expandChildren()</text>
</g>
<!-- Node3 -->
<g id="node5" class="node"><title>Node3</title>
<a xlink:href="../../d4/dee/a00008.html" target="_top" xlink:title="a class representing a folder with some basic folder functionality such as expanding children...">
<polygon fill="white" stroke="black" points="14,-193 14,-321 112,-321 112,-193 14,-193"/>
<text text-anchor="middle" x="63" y="-308" font-family="Helvetica,sans-Serif" font-size="10.00">FileTreeDir</text>
<polyline fill="none" stroke="black" points="14,-300 112,-300 "/>
<text text-anchor="start" x="22" y="-287" font-family="Helvetica,sans-Serif" font-size="10.00">+ $children</text>
<text text-anchor="start" x="22" y="-274" font-family="Helvetica,sans-Serif" font-size="10.00">+ $path</text>
<text text-anchor="start" x="22" y="-261" font-family="Helvetica,sans-Serif" font-size="10.00"># $childrenIter</text>
<polyline fill="none" stroke="black" points="14,-253 112,-253 "/>
<text text-anchor="start" x="22" y="-240" font-family="Helvetica,sans-Serif" font-size="10.00">+ __construct()</text>
<text text-anchor="start" x="22" y="-227" font-family="Helvetica,sans-Serif" font-size="10.00">+ process()</text>
<text text-anchor="start" x="22" y="-214" font-family="Helvetica,sans-Serif" font-size="10.00">+ expandChildren()</text>
<text text-anchor="start" x="22" y="-201" font-family="Helvetica,sans-Serif" font-size="10.00">+ processChild()</text>
</a>
</g>
<!-- Node1&#45;&gt;Node3 -->
<g id="edge4" class="edge"><title>Node1&#45;&gt;Node3</title>
<path fill="none" stroke="midnightblue" d="M63,-348.593C63,-339.711 63,-330.315 63,-321.059"/>
<polygon fill="none" stroke="midnightblue" points="59.5001,-348.744 63,-358.744 66.5001,-348.744 59.5001,-348.744"/>
</g>
<!-- Node2 -->
<g id="node2" class="node"><title>Node2</title>
<a xlink:href="../../d7/dd4/a00013.html" target="_top" xlink:title="an interface representing a node of file tree with some basic folder functionality such as hashing...">
<polygon fill="white" stroke="black" points="27,-473 27,-549 99,-549 99,-473 27,-473"/>
<text text-anchor="middle" x="63" y="-536" font-family="Helvetica,sans-Serif" font-size="10.00">IFileTreeItem</text>
<polyline fill="none" stroke="black" points="27,-528 99,-528 "/>
<text text-anchor="middle" x="63" y="-515" font-family="Helvetica,sans-Serif" font-size="10.00"> </text>
<polyline fill="none" stroke="black" points="27,-507 99,-507 "/>
<text text-anchor="start" x="35" y="-494" font-family="Helvetica,sans-Serif" font-size="10.00">+ hash()</text>
<text text-anchor="start" x="35" y="-481" font-family="Helvetica,sans-Serif" font-size="10.00">+ process()</text>
</a>
</g>
<!-- Node2&#45;&gt;Node1 -->
<g id="edge2" class="edge"><title>Node2&#45;&gt;Node1</title>
<path fill="none" stroke="midnightblue" d="M63,-462.623C63,-453.52 63,-444.117 63,-435.371"/>
<polygon fill="none" stroke="midnightblue" points="59.5001,-462.722 63,-472.723 66.5001,-462.723 59.5001,-462.722"/>
</g>
<!-- Node4 -->
<g id="node7" class="node"><title>Node4</title>
<a xlink:href="../../dd/dad/a00005.html" target="_top" xlink:title="a class representing a directory with backup functionality not for direct usage">
<polygon fill="white" stroke="black" points="0,-1 0,-155 126,-155 126,-1 0,-1"/>
<text text-anchor="middle" x="63" y="-142" font-family="Helvetica,sans-Serif" font-size="10.00">FileTreeBackupDir</text>
<polyline fill="none" stroke="black" points="0,-134 126,-134 "/>
<text text-anchor="start" x="8" y="-121" font-family="Helvetica,sans-Serif" font-size="10.00">+ $index</text>
<text text-anchor="start" x="8" y="-108" font-family="Helvetica,sans-Serif" font-size="10.00">+ $childrenCache</text>
<text text-anchor="start" x="8" y="-95" font-family="Helvetica,sans-Serif" font-size="10.00">+ $root</text>
<text text-anchor="start" x="8" y="-82" font-family="Helvetica,sans-Serif" font-size="10.00">+ $relPath</text>
<polyline fill="none" stroke="black" points="0,-74 126,-74 "/>
<text text-anchor="start" x="8" y="-61" font-family="Helvetica,sans-Serif" font-size="10.00">+ __construct()</text>
<text text-anchor="start" x="8" y="-48" font-family="Helvetica,sans-Serif" font-size="10.00">+ getRelPath()</text>
<text text-anchor="start" x="8" y="-35" font-family="Helvetica,sans-Serif" font-size="10.00">+ expandChildren()</text>
<text text-anchor="start" x="8" y="-22" font-family="Helvetica,sans-Serif" font-size="10.00">+ processChild()</text>
<text text-anchor="start" x="8" y="-9" font-family="Helvetica,sans-Serif" font-size="10.00">+ checkDeletedChildren()</text>
</a>
</g>
<!-- Node3&#45;&gt;Node4 -->
<g id="edge6" class="edge"><title>Node3&#45;&gt;Node4</title>
<path fill="none" stroke="midnightblue" d="M63,-182.709C63,-173.598 63,-164.271 63,-155.119"/>
<polygon fill="none" stroke="midnightblue" points="59.5001,-182.882 63,-192.882 66.5001,-182.883 59.5001,-182.882"/>
</g>
</g>
</svg>
        <g id="navigator" transform="translate(0 0)" fill="#404254">
                <rect fill="#f2f5e9" fill-opacity="0.5" stroke="#606060" stroke-width=".5" x="0" y="0" width="60" height="60"/>
                <use id="zoomplus" xlink:href="#zoomPlus" x="17" y="9" onmousedown="handleZoom(evt,'in')"/>
                <use id="zoomminus" xlink:href="#zoomMin" x="42" y="9" onmousedown="handleZoom(evt,'out')"/>
                <use id="reset" xlink:href="#resetDef" x="30" y="36" onmousedown="handleReset()"/>
                <g id="arrowUp" xlink:href="#dirArrow" transform="translate(30 24)" onmousedown="handlePan(0,-1)">
                  <use xlink:href="#rim" fill="#404040">
                        <set attributeName="fill" to="#808080" begin="arrowUp.mouseover" end="arrowUp.mouseout"/>
                  </use>
                  <path fill="none" stroke="white" stroke-width="1.5" d="M0,-3.0v7 M-2.5,-0.5L0,-3.0L2.5,-0.5"/>
                </g>
                <g id="arrowRight" xlink:href="#dirArrow" transform="rotate(90) translate(36 -43)" onmousedown="handlePan(1,0)">
                  <use xlink:href="#rim" fill="#404040">
                        <set attributeName="fill" to="#808080" begin="arrowRight.mouseover" end="arrowRight.mouseout"/>
                  </use>
                  <path fill="none" stroke="white" stroke-width="1.5" d="M0,-3.0v7 M-2.5,-0.5L0,-3.0L2.5,-0.5"/>
                </g>
                <g id="arrowDown" xlink:href="#dirArrow" transform="rotate(180) translate(-30 -48)" onmousedown="handlePan(0,1)">
                  <use xlink:href="#rim" fill="#404040">
                        <set attributeName="fill" to="#808080" begin="arrowDown.mouseover" end="arrowDown.mouseout"/>
                  </use>
                  <path fill="none" stroke="white" stroke-width="1.5" d="M0,-3.0v7 M-2.5,-0.5L0,-3.0L2.5,-0.5"/>
                </g>
                <g id="arrowLeft" xlink:href="#dirArrow" transform="rotate(270) translate(-36 17)" onmousedown="handlePan(-1,0)">
                  <use xlink:href="#rim" fill="#404040">
                        <set attributeName="fill" to="#808080" begin="arrowLeft.mouseover" end="arrowLeft.mouseout"/>
                  </use>
                  <path fill="none" stroke="white" stroke-width="1.5" d="M0,-3.0v7 M-2.5,-0.5L0,-3.0L2.5,-0.5"/>
                </g>
        </g>
        <svg viewBox="0 0 15 15" width="100%" height="30px" preserveAspectRatio="xMaxYMin meet">
         <g id="arrow_out" transform="scale(0.3 0.3)">
          <a xlink:href="a00052_org.svg" target="_base">
           <rect id="button" ry="5" rx="5" y="6" x="6" height="38" width="38"
                fill="#f2f5e9" fill-opacity="0.5" stroke="#606060" stroke-width="1.0"/>
           <path id="arrow"
             d="M 11.500037,31.436501 C 11.940474,20.09759 22.043105,11.32322 32.158766,21.979434 L 37.068811,17.246167 C 37.068811,17.246167 37.088388,32 37.088388,32 L 22.160133,31.978069 C 22.160133,31.978069 26.997745,27.140456 26.997745,27.140456 C 18.528582,18.264221 13.291696,25.230495 11.500037,31.436501 z"
             style="fill:#404040;"/>
          </a>
         </g>
        </svg>
</svg>
