<?xml version="1.0" encoding="UTF-8" standalone="no"?>
<!DOCTYPE svg PUBLIC "-//W3C//DTD SVG 1.1//EN"
 "http://www.w3.org/Graphics/SVG/1.1/DTD/svg11.dtd">
<!-- Generated by graphviz version 2.26.3 (20100126.1600)
 -->
<!-- Title: BackuperIndex Pages: 1 -->
<svg width="441pt" height="304pt"
 viewBox="0.00 0.00 441.00 304.00" xmlns="http://www.w3.org/2000/svg" xmlns:xlink="http://www.w3.org/1999/xlink">
<g id="graph1" class="graph" transform="scale(1 1) rotate(0) translate(4 300)">
<title>BackuperIndex</title>
<polygon fill="white" stroke="white" points="-4,5 -4,-300 438,-300 438,5 -4,5"/>
<!-- Node1 -->
<g id="node1" class="node"><title>Node1</title>
<polygon fill="#bfbfbf" stroke="black" points="119,-1 119,-155 281,-155 281,-1 119,-1"/>
<text text-anchor="middle" x="200" y="-142" font-family="Helvetica,sans-Serif" font-size="10.00">BackuperIndex</text>
<polyline fill="none" stroke="black" points="119,-134 281,-134 "/>
<text text-anchor="start" x="127" y="-121" font-family="Helvetica,sans-Serif" font-size="10.00">+ $base</text>
<text text-anchor="start" x="127" y="-108" font-family="Helvetica,sans-Serif" font-size="10.00">+ $queries</text>
<text text-anchor="start" x="127" y="-95" font-family="Helvetica,sans-Serif" font-size="10.00">+ $queriesTemplates</text>
<text text-anchor="start" x="127" y="-82" font-family="Helvetica,sans-Serif" font-size="10.00">+ $baseStructureBuildQuery</text>
<polyline fill="none" stroke="black" points="119,-74 281,-74 "/>
<text text-anchor="start" x="127" y="-61" font-family="Helvetica,sans-Serif" font-size="10.00">+ __construct()</text>
<text text-anchor="start" x="127" y="-48" font-family="Helvetica,sans-Serif" font-size="10.00">+ prepareQueries()</text>
<text text-anchor="start" x="127" y="-35" font-family="Helvetica,sans-Serif" font-size="10.00">+ checkInitializedAndInitMissing()</text>
<text text-anchor="start" x="127" y="-22" font-family="Helvetica,sans-Serif" font-size="10.00">+ load()</text>
<text text-anchor="start" x="127" y="-9" font-family="Helvetica,sans-Serif" font-size="10.00">+ __destruct()</text>
</g>
<!-- Node2 -->
<g id="node2" class="node"><title>Node2</title>
<a xlink:href="../../da/d45/a00011.html" target="_top" xlink:title="{IBackuperIndex\n||+ checkInitializedAndInitMissing()\l+ load()\l}">
<polygon fill="white" stroke="black" points="0,-219 0,-295 162,-295 162,-219 0,-219"/>
<text text-anchor="middle" x="81" y="-282" font-family="Helvetica,sans-Serif" font-size="10.00">IBackuperIndex</text>
<polyline fill="none" stroke="black" points="0,-274 162,-274 "/>
<text text-anchor="middle" x="81" y="-261" font-family="Helvetica,sans-Serif" font-size="10.00"> </text>
<polyline fill="none" stroke="black" points="0,-253 162,-253 "/>
<text text-anchor="start" x="8" y="-240" font-family="Helvetica,sans-Serif" font-size="10.00">+ checkInitializedAndInitMissing()</text>
<text text-anchor="start" x="8" y="-227" font-family="Helvetica,sans-Serif" font-size="10.00">+ load()</text>
</a>
</g>
<!-- Node2&#45;&gt;Node1 -->
<g id="edge2" class="edge"><title>Node2&#45;&gt;Node1</title>
<path fill="none" stroke="midnightblue" d="M112.183,-210.094C123.32,-193.342 136.183,-173.994 148.57,-155.361"/>
<polygon fill="none" stroke="midnightblue" points="109.15,-208.335 106.528,-218.6 114.979,-212.21 109.15,-208.335"/>
</g>
<!-- Node3 -->
<g id="node4" class="node"><title>Node3</title>
<polygon fill="white" stroke="#bfbfbf" points="179.5,-225.5 179.5,-288.5 220.5,-288.5 220.5,-225.5 179.5,-225.5"/>
<text text-anchor="middle" x="200" y="-275.5" font-family="Helvetica,sans-Serif" font-size="10.00">static</text>
<polyline fill="none" stroke="#bfbfbf" points="179.5,-267.5 220.5,-267.5 "/>
<text text-anchor="middle" x="200" y="-254.5" font-family="Helvetica,sans-Serif" font-size="10.00"> </text>
<polyline fill="none" stroke="#bfbfbf" points="179.5,-246.5 220.5,-246.5 "/>
<text text-anchor="middle" x="200" y="-233.5" font-family="Helvetica,sans-Serif" font-size="10.00"> </text>
</g>
<!-- Node3&#45;&gt;Node1 -->
<g id="edge4" class="edge"><title>Node3&#45;&gt;Node1</title>
<path fill="none" stroke="#404040" d="M200,-225.41C200,-209.05 200,-188.165 200,-167.295"/>
<polygon fill="none" stroke="#404040" points="200,-167.043 196,-161.043 200,-155.043 204,-161.043 200,-167.043"/>
<text text-anchor="middle" x="257.5" y="-191" font-family="Helvetica,sans-Serif" font-size="10.00"> $queriesTemplates</text>
<text text-anchor="middle" x="257.5" y="-178" font-family="Helvetica,sans-Serif" font-size="10.00">$baseStructureBuildQuery</text>
</g>
<!-- Node4 -->
<g id="node6" class="node"><title>Node4</title>
<polygon fill="white" stroke="#bfbfbf" points="317.5,-225.5 317.5,-288.5 358.5,-288.5 358.5,-225.5 317.5,-225.5"/>
<text text-anchor="middle" x="338" y="-275.5" font-family="Helvetica,sans-Serif" font-size="10.00">const</text>
<polyline fill="none" stroke="#bfbfbf" points="317.5,-267.5 358.5,-267.5 "/>
<text text-anchor="middle" x="338" y="-254.5" font-family="Helvetica,sans-Serif" font-size="10.00"> </text>
<polyline fill="none" stroke="#bfbfbf" points="317.5,-246.5 358.5,-246.5 "/>
<text text-anchor="middle" x="338" y="-233.5" font-family="Helvetica,sans-Serif" font-size="10.00"> </text>
</g>
<!-- Node4&#45;&gt;Node1 -->
<g id="edge6" class="edge"><title>Node4&#45;&gt;Node1</title>
<path fill="none" stroke="#404040" d="M334.285,-225.175C331.259,-208.887 325.803,-189.319 316,-174 308.753,-162.675 299.735,-152.026 289.951,-142.238"/>
<polygon fill="none" stroke="#404040" points="289.859,-142.15 282.758,-140.899 281.181,-133.862 288.283,-135.113 289.859,-142.15"/>
<text text-anchor="middle" x="380" y="-184.5" font-family="Helvetica,sans-Serif" font-size="10.00"> createTableQueryTempl</text>
</g>
</g>
</svg>
