<?xml version="1.0" encoding="UTF-8" standalone="no"?>
<!DOCTYPE svg PUBLIC "-//W3C//DTD SVG 1.1//EN"
 "http://www.w3.org/Graphics/SVG/1.1/DTD/svg11.dtd">
<!-- Generated by graphviz version 2.26.3 (20100126.1600)
 -->
<!-- Title: FileTreeBackuperIndex Pages: 1 -->
<!--zoomable 588 -->
<svg id="main" version="1.1" xmlns="http://www.w3.org/2000/svg" xmlns:xlink="http://www.w3.org/1999/xlink" xml:space="preserve" onload="init(evt)">
<style type="text/css"><![CDATA[
.edge:hover path { stroke: red; }
.edge:hover polygon { stroke: red; fill: red; }
]]></style>
<script type="text/javascript"><![CDATA[
var edges = document.getElementsByTagName('g');
for (var i=0;i<edges.length;i++) {
  if (edges[i].id.substr(0,4)=='edge') {
    edges[i].setAttribute('class','edge');
  }
}
]]></script>
        <defs>
                <circle id="rim" cx="0" cy="0" r="7"/>
                <circle id="rim2" cx="0" cy="0" r="3.5"/>
                <g id="zoomPlus">
                        <use xlink:href="#rim" fill="#404040">
                                <set attributeName="fill" to="#808080" begin="zoomplus.mouseover" end="zoomplus.mouseout"/>
                        </use>
                        <path d="M-4,0h8M0,-4v8" fill="none" stroke="white" stroke-width="1.5" pointer-events="none"/>
                </g>
                <g id="zoomMin">
                        <use xlink:href="#rim" fill="#404040">
                                <set attributeName="fill" to="#808080" begin="zoomminus.mouseover" end="zoomminus.mouseout"/>
                        </use>
                        <path d="M-4,0h8" fill="none" stroke="white" stroke-width="1.5" pointer-events="none"/>
                </g>
                <g id="dirArrow">
                        <path fill="none" stroke="white" stroke-width="1.5" d="M0,-3.0v7 M-2.5,-0.5L0,-3.0L2.5,-0.5"/>
                </g>
               <g id="resetDef">
                       <use xlink:href="#rim2" fill="#404040">
                               <set attributeName="fill" to="#808080" begin="reset.mouseover" end="reset.mouseout"/>
                       </use>
               </g>
        </defs>

<script type="text/javascript">
var viewWidth = 405;
var viewHeight = 588;
var sectionId = 'dynsection-1';
</script>
<script xlink:href="../../svgpan.js"/>
<svg id="graph" class="graph">
<g id="viewport">
<title>FileTreeBackuperIndex</title>
<polygon fill="white" stroke="white" points="-4,5 -4,-584 402.417,-584 402.417,5 -4,5"/>
<!-- Node1 -->
<g id="node1" class="node"><title>Node1</title>
<polygon fill="#bfbfbf" stroke="black" points="171.417,-0.5 171.417,-271.5 291.417,-271.5 291.417,-0.5 171.417,-0.5"/>
<text text-anchor="middle" x="231.417" y="-258.5" font-family="Helvetica,sans-Serif" font-size="10.00">FileTreeBackuperIndex</text>
<polyline fill="none" stroke="black" points="171.417,-250.5 291.417,-250.5 "/>
<text text-anchor="start" x="179.417" y="-237.5" font-family="Helvetica,sans-Serif" font-size="10.00">+ $base</text>
<text text-anchor="start" x="179.417" y="-224.5" font-family="Helvetica,sans-Serif" font-size="10.00">+ $moved</text>
<text text-anchor="start" x="179.417" y="-211.5" font-family="Helvetica,sans-Serif" font-size="10.00">+ $deleted</text>
<text text-anchor="start" x="179.417" y="-198.5" font-family="Helvetica,sans-Serif" font-size="10.00">+ $changed</text>
<text text-anchor="start" x="179.417" y="-185.5" font-family="Helvetica,sans-Serif" font-size="10.00">+ $added</text>
<text text-anchor="start" x="179.417" y="-172.5" font-family="Helvetica,sans-Serif" font-size="10.00">+ $ignores</text>
<text text-anchor="start" x="179.417" y="-159.5" font-family="Helvetica,sans-Serif" font-size="10.00">+ $inodes</text>
<polyline fill="none" stroke="black" points="171.417,-151.5 291.417,-151.5 "/>
<text text-anchor="start" x="179.417" y="-138.5" font-family="Helvetica,sans-Serif" font-size="10.00">+ __construct()</text>
<text text-anchor="start" x="179.417" y="-125.5" font-family="Helvetica,sans-Serif" font-size="10.00">+ load()</text>
<text text-anchor="start" x="179.417" y="-112.5" font-family="Helvetica,sans-Serif" font-size="10.00">+ checkIsIgnored()</text>
<text text-anchor="start" x="179.417" y="-99.5" font-family="Helvetica,sans-Serif" font-size="10.00">+ loadChildren()</text>
<text text-anchor="start" x="179.417" y="-86.5" font-family="Helvetica,sans-Serif" font-size="10.00">+ needBackup()</text>
<text text-anchor="start" x="179.417" y="-73.5" font-family="Helvetica,sans-Serif" font-size="10.00">+ save()</text>
<text text-anchor="start" x="179.417" y="-60.5" font-family="Helvetica,sans-Serif" font-size="10.00">+ saveAdded()</text>
<text text-anchor="start" x="179.417" y="-47.5" font-family="Helvetica,sans-Serif" font-size="10.00">+ saveChanged()</text>
<text text-anchor="start" x="179.417" y="-34.5" font-family="Helvetica,sans-Serif" font-size="10.00">+ saveMoved()</text>
<text text-anchor="start" x="179.417" y="-21.5" font-family="Helvetica,sans-Serif" font-size="10.00">+ saveDeleted()</text>
<text text-anchor="start" x="179.417" y="-8.5" font-family="Helvetica,sans-Serif" font-size="10.00">+ makeCommitRecord()</text>
</g>
<!-- Node2 -->
<g id="node2" class="node"><title>Node2</title>
<a xlink:href="../../d7/d46/a00002.html" target="_top" xlink:title="A class for mantaining index.">
<polygon fill="white" stroke="black" points="150.417,-311 150.417,-439 312.417,-439 312.417,-311 150.417,-311"/>
<text text-anchor="middle" x="231.417" y="-426" font-family="Helvetica,sans-Serif" font-size="10.00">BackuperIndex</text>
<polyline fill="none" stroke="black" points="150.417,-418 312.417,-418 "/>
<text text-anchor="start" x="158.417" y="-405" font-family="Helvetica,sans-Serif" font-size="10.00">+ $base</text>
<text text-anchor="start" x="158.417" y="-392" font-family="Helvetica,sans-Serif" font-size="10.00">+ $queries</text>
<polyline fill="none" stroke="black" points="150.417,-384 312.417,-384 "/>
<text text-anchor="start" x="158.417" y="-371" font-family="Helvetica,sans-Serif" font-size="10.00">+ __construct()</text>
<text text-anchor="start" x="158.417" y="-358" font-family="Helvetica,sans-Serif" font-size="10.00">+ prepareQueries()</text>
<text text-anchor="start" x="158.417" y="-345" font-family="Helvetica,sans-Serif" font-size="10.00">+ checkInitializedAndInitMissing()</text>
<text text-anchor="start" x="158.417" y="-332" font-family="Helvetica,sans-Serif" font-size="10.00">+ load()</text>
<text text-anchor="start" x="158.417" y="-319" font-family="Helvetica,sans-Serif" font-size="10.00">+ __destruct()</text>
</a>
</g>
<!-- Node2&#45;&gt;Node1 -->
<g id="edge2" class="edge"><title>Node2&#45;&gt;Node1</title>
<path fill="none" stroke="midnightblue" d="M231.417,-300.946C231.417,-291.553 231.417,-281.72 231.417,-271.732"/>
<polygon fill="none" stroke="midnightblue" points="227.917,-300.952 231.417,-310.952 234.917,-300.952 227.917,-300.952"/>
</g>
<!-- Node3 -->
<g id="node4" class="node"><title>Node3</title>
<a xlink:href="../../da/d45/a00011.html" target="_top" xlink:title="can take either string or PDO object if it is not BackuperIndex it will take PDO object, BackuperIndex will take either PDO or string, most likely string">
<polygon fill="white" stroke="black" points="117.417,-503 117.417,-579 279.417,-579 279.417,-503 117.417,-503"/>
<text text-anchor="middle" x="198.417" y="-566" font-family="Helvetica,sans-Serif" font-size="10.00">IBackuperIndex</text>
<polyline fill="none" stroke="black" points="117.417,-558 279.417,-558 "/>
<text text-anchor="middle" x="198.417" y="-545" font-family="Helvetica,sans-Serif" font-size="10.00"> </text>
<polyline fill="none" stroke="black" points="117.417,-537 279.417,-537 "/>
<text text-anchor="start" x="125.417" y="-524" font-family="Helvetica,sans-Serif" font-size="10.00">+ checkInitializedAndInitMissing()</text>
<text text-anchor="start" x="125.417" y="-511" font-family="Helvetica,sans-Serif" font-size="10.00">+ load()</text>
</a>
</g>
<!-- Node3&#45;&gt;Node2 -->
<g id="edge4" class="edge"><title>Node3&#45;&gt;Node2</title>
<path fill="none" stroke="midnightblue" d="M206.023,-493.025C207.98,-481.528 210.171,-469.308 212.417,-458 213.626,-451.91 214.95,-445.585 216.319,-439.265"/>
<polygon fill="none" stroke="midnightblue" points="202.569,-492.46 204.368,-502.901 209.472,-493.617 202.569,-492.46"/>
</g>
<!-- Node4 -->
<g id="node6" class="node"><title>Node4</title>
<polygon fill="white" stroke="#bfbfbf" points="8.9167,-509.5 8.9167,-572.5 49.9167,-572.5 49.9167,-509.5 8.9167,-509.5"/>
<text text-anchor="middle" x="29.4167" y="-559.5" font-family="Helvetica,sans-Serif" font-size="10.00">static</text>
<polyline fill="none" stroke="#bfbfbf" points="8.9167,-551.5 49.9167,-551.5 "/>
<text text-anchor="middle" x="29.4167" y="-538.5" font-family="Helvetica,sans-Serif" font-size="10.00"> </text>
<polyline fill="none" stroke="#bfbfbf" points="8.9167,-530.5 49.9167,-530.5 "/>
<text text-anchor="middle" x="29.4167" y="-517.5" font-family="Helvetica,sans-Serif" font-size="10.00"> </text>
</g>
<!-- Node4&#45;&gt;Node1 -->
<g id="edge10" class="edge"><title>Node4&#45;&gt;Node1</title>
<path fill="none" stroke="#404040" d="M18.6609,-509.27C4.91071,-462.959 -13.6378,-375.274 17.4167,-310 46.9451,-247.934 110.639,-200.765 160.902,-171.301"/>
<polygon fill="none" stroke="#404040" points="160.994,-171.249 164.212,-164.795 171.407,-165.284 168.189,-171.737 160.994,-171.249"/>
<text text-anchor="middle" x="79.4167" y="-379" font-family="Helvetica,sans-Serif" font-size="10.00"> +$baseStructureBuildQuery</text>
<text text-anchor="middle" x="79.4167" y="-366" font-family="Helvetica,sans-Serif" font-size="10.00">+$queriesTemplates</text>
</g>
<!-- Node4&#45;&gt;Node2 -->
<g id="edge6" class="edge"><title>Node4&#45;&gt;Node2</title>
<path fill="none" stroke="#404040" d="M42.3441,-509.115C50.8363,-491.791 63.5199,-471.261 80.4167,-458 100.983,-441.86 112.939,-451.501 136.417,-440 137.418,-439.51 138.42,-439.01 139.424,-438.501"/>
<polygon fill="none" stroke="#404040" points="139.607,-438.403 143.009,-432.045 150.187,-432.741 146.784,-439.099 139.607,-438.403"/>
<text text-anchor="middle" x="142.417" y="-475" font-family="Helvetica,sans-Serif" font-size="10.00"> +$baseStructureBuildQuery</text>
<text text-anchor="middle" x="142.417" y="-462" font-family="Helvetica,sans-Serif" font-size="10.00">+$queriesTemplates</text>
</g>
<!-- Node5 -->
<g id="node8" class="node"><title>Node5</title>
<polygon fill="white" stroke="#bfbfbf" points="315.917,-509.5 315.917,-572.5 356.917,-572.5 356.917,-509.5 315.917,-509.5"/>
<text text-anchor="middle" x="336.417" y="-559.5" font-family="Helvetica,sans-Serif" font-size="10.00">const</text>
<polyline fill="none" stroke="#bfbfbf" points="315.917,-551.5 356.917,-551.5 "/>
<text text-anchor="middle" x="336.417" y="-538.5" font-family="Helvetica,sans-Serif" font-size="10.00"> </text>
<polyline fill="none" stroke="#bfbfbf" points="315.917,-530.5 356.917,-530.5 "/>
<text text-anchor="middle" x="336.417" y="-517.5" font-family="Helvetica,sans-Serif" font-size="10.00"> </text>
</g>
<!-- Node5&#45;&gt;Node1 -->
<g id="edge12" class="edge"><title>Node5&#45;&gt;Node1</title>
<path fill="none" stroke="#404040" d="M340.206,-509.463C341.587,-493.958 342.56,-474.996 341.417,-458 336.962,-391.774 341.402,-373.296 321.417,-310 314.98,-289.614 306.278,-268.748 296.811,-248.867"/>
<polygon fill="none" stroke="#404040" points="296.74,-248.721 290.515,-245.079 291.483,-237.933 297.707,-241.575 296.74,-248.721"/>
<text text-anchor="middle" x="368.417" y="-372.5" font-family="Helvetica,sans-Serif" font-size="10.00"> +indexPrefix</text>
</g>
<!-- Node5&#45;&gt;Node2 -->
<g id="edge8" class="edge"><title>Node5&#45;&gt;Node2</title>
<path fill="none" stroke="#404040" d="M315.658,-521.306C307.621,-514.47 298.045,-507.219 288.417,-502 265.432,-489.543 247.913,-505.055 232.417,-484 225.423,-474.498 221.777,-463.16 220.262,-451.443"/>
<polygon fill="none" stroke="#404040" points="220.24,-451.128 215.831,-445.421 219.403,-439.157 223.812,-444.863 220.24,-451.128"/>
<text text-anchor="middle" x="286.917" y="-475" font-family="Helvetica,sans-Serif" font-size="10.00"> +indexPrefix</text>
<text text-anchor="middle" x="286.917" y="-462" font-family="Helvetica,sans-Serif" font-size="10.00">+createTableQueryTempl</text>
</g>
</g>
</svg>
        <g id="navigator" transform="translate(0 0)" fill="#404254">
                <rect fill="#f2f5e9" fill-opacity="0.5" stroke="#606060" stroke-width=".5" x="0" y="0" width="60" height="60"/>
                <use id="zoomplus" xlink:href="#zoomPlus" x="17" y="9" onmousedown="handleZoom(evt,'in')"/>
                <use id="zoomminus" xlink:href="#zoomMin" x="42" y="9" onmousedown="handleZoom(evt,'out')"/>
                <use id="reset" xlink:href="#resetDef" x="30" y="36" onmousedown="handleReset()"/>
                <g id="arrowUp" xlink:href="#dirArrow" transform="translate(30 24)" onmousedown="handlePan(0,-1)">
                  <use xlink:href="#rim" fill="#404040">
                        <set attributeName="fill" to="#808080" begin="arrowUp.mouseover" end="arrowUp.mouseout"/>
                  </use>
                  <path fill="none" stroke="white" stroke-width="1.5" d="M0,-3.0v7 M-2.5,-0.5L0,-3.0L2.5,-0.5"/>
                </g>
                <g id="arrowRight" xlink:href="#dirArrow" transform="rotate(90) translate(36 -43)" onmousedown="handlePan(1,0)">
                  <use xlink:href="#rim" fill="#404040">
                        <set attributeName="fill" to="#808080" begin="arrowRight.mouseover" end="arrowRight.mouseout"/>
                  </use>
                  <path fill="none" stroke="white" stroke-width="1.5" d="M0,-3.0v7 M-2.5,-0.5L0,-3.0L2.5,-0.5"/>
                </g>
                <g id="arrowDown" xlink:href="#dirArrow" transform="rotate(180) translate(-30 -48)" onmousedown="handlePan(0,1)">
                  <use xlink:href="#rim" fill="#404040">
                        <set attributeName="fill" to="#808080" begin="arrowDown.mouseover" end="arrowDown.mouseout"/>
                  </use>
                  <path fill="none" stroke="white" stroke-width="1.5" d="M0,-3.0v7 M-2.5,-0.5L0,-3.0L2.5,-0.5"/>
                </g>
                <g id="arrowLeft" xlink:href="#dirArrow" transform="rotate(270) translate(-36 17)" onmousedown="handlePan(-1,0)">
                  <use xlink:href="#rim" fill="#404040">
                        <set attributeName="fill" to="#808080" begin="arrowLeft.mouseover" end="arrowLeft.mouseout"/>
                  </use>
                  <path fill="none" stroke="white" stroke-width="1.5" d="M0,-3.0v7 M-2.5,-0.5L0,-3.0L2.5,-0.5"/>
                </g>
        </g>
        <svg viewBox="0 0 15 15" width="100%" height="30px" preserveAspectRatio="xMaxYMin meet">
         <g id="arrow_out" transform="scale(0.3 0.3)">
          <a xlink:href="a00043_org.svg" target="_base">
           <rect id="button" ry="5" rx="5" y="6" x="6" height="38" width="38"
                fill="#f2f5e9" fill-opacity="0.5" stroke="#606060" stroke-width="1.0"/>
           <path id="arrow"
             d="M 11.500037,31.436501 C 11.940474,20.09759 22.043105,11.32322 32.158766,21.979434 L 37.068811,17.246167 C 37.068811,17.246167 37.088388,32 37.088388,32 L 22.160133,31.978069 C 22.160133,31.978069 26.997745,27.140456 26.997745,27.140456 C 18.528582,18.264221 13.291696,25.230495 11.500037,31.436501 z"
             style="fill:#404040;"/>
          </a>
         </g>
        </svg>
</svg>
