<?xml version="1.0" encoding="UTF-8" standalone="no"?>
<!DOCTYPE svg PUBLIC "-//W3C//DTD SVG 1.1//EN"
 "http://www.w3.org/Graphics/SVG/1.1/DTD/svg11.dtd">
<!-- Generated by graphviz version 2.26.3 (20100126.1600)
 -->
<!-- Title: MySQLBackuper Pages: 1 -->
<svg width="192pt" height="304pt"
 viewBox="0.00 0.00 192.00 304.00" xmlns="http://www.w3.org/2000/svg" xmlns:xlink="http://www.w3.org/1999/xlink">
<g id="graph1" class="graph" transform="scale(1 1) rotate(0) translate(4 300)">
<title>MySQLBackuper</title>
<polygon fill="white" stroke="white" points="-4,5 -4,-300 189,-300 189,5 -4,5"/>
<!-- Node1 -->
<g id="node1" class="node"><title>Node1</title>
<polygon fill="#bfbfbf" stroke="black" points="45.5,-1 45.5,-129 156.5,-129 156.5,-1 45.5,-1"/>
<text text-anchor="middle" x="101" y="-116" font-family="Helvetica,sans-Serif" font-size="10.00">MySQLBackuper</text>
<polyline fill="none" stroke="black" points="45.5,-108 156.5,-108 "/>
<text text-anchor="start" x="53.5" y="-95" font-family="Helvetica,sans-Serif" font-size="10.00">+ $db</text>
<text text-anchor="start" x="53.5" y="-82" font-family="Helvetica,sans-Serif" font-size="10.00">+ $bases</text>
<polyline fill="none" stroke="black" points="45.5,-74 156.5,-74 "/>
<text text-anchor="start" x="53.5" y="-61" font-family="Helvetica,sans-Serif" font-size="10.00">+ __construct()</text>
<text text-anchor="start" x="53.5" y="-48" font-family="Helvetica,sans-Serif" font-size="10.00">+ prepareForBackup()</text>
<text text-anchor="start" x="53.5" y="-35" font-family="Helvetica,sans-Serif" font-size="10.00">+ makeBackup()</text>
<text text-anchor="start" x="53.5" y="-22" font-family="Helvetica,sans-Serif" font-size="10.00">+ needBackup()</text>
<text text-anchor="start" x="53.5" y="-9" font-family="Helvetica,sans-Serif" font-size="10.00">+ dumpDB()</text>
</g>
<!-- Node2 -->
<g id="node2" class="node"><title>Node2</title>
<a xlink:href="../../d7/dec/a00010.html" target="_top" xlink:title="{IBackuper\n||+ __construct()\l+ makeBackup()\l+ prepareForBackup()\l+ needBackup()\l}">
<polygon fill="white" stroke="black" points="-0.5,-193 -0.5,-295 110.5,-295 110.5,-193 -0.5,-193"/>
<text text-anchor="middle" x="55" y="-282" font-family="Helvetica,sans-Serif" font-size="10.00">IBackuper</text>
<polyline fill="none" stroke="black" points="-0.5,-274 110.5,-274 "/>
<text text-anchor="middle" x="55" y="-261" font-family="Helvetica,sans-Serif" font-size="10.00"> </text>
<polyline fill="none" stroke="black" points="-0.5,-253 110.5,-253 "/>
<text text-anchor="start" x="7.5" y="-240" font-family="Helvetica,sans-Serif" font-size="10.00">+ __construct()</text>
<text text-anchor="start" x="7.5" y="-227" font-family="Helvetica,sans-Serif" font-size="10.00">+ makeBackup()</text>
<text text-anchor="start" x="7.5" y="-214" font-family="Helvetica,sans-Serif" font-size="10.00">+ prepareForBackup()</text>
<text text-anchor="start" x="7.5" y="-201" font-family="Helvetica,sans-Serif" font-size="10.00">+ needBackup()</text>
</a>
</g>
<!-- Node2&#45;&gt;Node1 -->
<g id="edge2" class="edge"><title>Node2&#45;&gt;Node1</title>
<path fill="none" stroke="midnightblue" d="M70.7488,-182.717C75.1976,-165.405 80.0496,-146.524 84.5391,-129.054"/>
<polygon fill="none" stroke="midnightblue" points="67.2809,-182.149 68.1818,-192.706 74.0606,-183.892 67.2809,-182.149"/>
</g>
<!-- Node3 -->
<g id="node4" class="node"><title>Node3</title>
<polygon fill="white" stroke="#bfbfbf" points="127.5,-212.5 127.5,-275.5 168.5,-275.5 168.5,-212.5 127.5,-212.5"/>
<text text-anchor="middle" x="148" y="-262.5" font-family="Helvetica,sans-Serif" font-size="10.00">const</text>
<polyline fill="none" stroke="#bfbfbf" points="127.5,-254.5 168.5,-254.5 "/>
<text text-anchor="middle" x="148" y="-241.5" font-family="Helvetica,sans-Serif" font-size="10.00"> </text>
<polyline fill="none" stroke="#bfbfbf" points="127.5,-233.5 168.5,-233.5 "/>
<text text-anchor="middle" x="148" y="-220.5" font-family="Helvetica,sans-Serif" font-size="10.00"> </text>
</g>
<!-- Node3&#45;&gt;Node1 -->
<g id="edge4" class="edge"><title>Node3&#45;&gt;Node1</title>
<path fill="none" stroke="#404040" d="M139.706,-212.41C134.496,-192.569 127.539,-166.073 120.96,-141.019"/>
<polygon fill="none" stroke="#404040" points="120.919,-140.863 115.527,-136.076 117.872,-129.257 123.265,-134.044 120.919,-140.863"/>
<text text-anchor="middle" x="156" y="-165" font-family="Helvetica,sans-Serif" font-size="10.00"> +baseName</text>
<text text-anchor="middle" x="156" y="-152" font-family="Helvetica,sans-Serif" font-size="10.00">+baseDir</text>
</g>
</g>
</svg>
