<?xml version="1.0" encoding="UTF-8" standalone="no"?>
<!DOCTYPE svg PUBLIC "-//W3C//DTD SVG 1.1//EN"
 "http://www.w3.org/Graphics/SVG/1.1/DTD/svg11.dtd">
<!-- Generated by graphviz version 2.26.3 (20100126.1600)
 -->
<!-- Title: FileTreeDir Pages: 1 -->
<svg width="270pt" height="446pt"
 viewBox="0.00 0.00 270.00 446.00" xmlns="http://www.w3.org/2000/svg" xmlns:xlink="http://www.w3.org/1999/xlink">
<g id="graph1" class="graph" transform="scale(1 1) rotate(0) translate(4 442)">
<title>FileTreeDir</title>
<polygon fill="white" stroke="white" points="-4,5 -4,-442 267,-442 267,5 -4,5"/>
<!-- Node1 -->
<g id="node1" class="node"><title>Node1</title>
<polygon fill="#bfbfbf" stroke="black" points="64,-1 64,-129 162,-129 162,-1 64,-1"/>
<text text-anchor="middle" x="113" y="-116" font-family="Helvetica,sans-Serif" font-size="10.00">FileTreeDir</text>
<polyline fill="none" stroke="black" points="64,-108 162,-108 "/>
<text text-anchor="start" x="72" y="-95" font-family="Helvetica,sans-Serif" font-size="10.00">+ $children</text>
<text text-anchor="start" x="72" y="-82" font-family="Helvetica,sans-Serif" font-size="10.00">+ $path</text>
<text text-anchor="start" x="72" y="-69" font-family="Helvetica,sans-Serif" font-size="10.00"># $childrenIter</text>
<polyline fill="none" stroke="black" points="64,-61 162,-61 "/>
<text text-anchor="start" x="72" y="-48" font-family="Helvetica,sans-Serif" font-size="10.00">+ __construct()</text>
<text text-anchor="start" x="72" y="-35" font-family="Helvetica,sans-Serif" font-size="10.00">+ process()</text>
<text text-anchor="start" x="72" y="-22" font-family="Helvetica,sans-Serif" font-size="10.00">+ expandChildren()</text>
<text text-anchor="start" x="72" y="-9" font-family="Helvetica,sans-Serif" font-size="10.00">+ processChild()</text>
</g>
<!-- Node2 -->
<g id="node2" class="node"><title>Node2</title>
<a xlink:href="../../da/da0/a00009.html" target="_top" xlink:title="a class representing a file (or a folder) with some basic functionality">
<polygon fill="white" stroke="black" points="115.5,-168.5 115.5,-309.5 198.5,-309.5 198.5,-168.5 115.5,-168.5"/>
<text text-anchor="middle" x="157" y="-296.5" font-family="Helvetica,sans-Serif" font-size="10.00">FileTreeItem</text>
<polyline fill="none" stroke="black" points="115.5,-288.5 198.5,-288.5 "/>
<text text-anchor="start" x="123.5" y="-275.5" font-family="Helvetica,sans-Serif" font-size="10.00">+ $name</text>
<text text-anchor="start" x="123.5" y="-262.5" font-family="Helvetica,sans-Serif" font-size="10.00">+ $parent</text>
<text text-anchor="start" x="123.5" y="-249.5" font-family="Helvetica,sans-Serif" font-size="10.00">+ $hash</text>
<text text-anchor="start" x="123.5" y="-236.5" font-family="Helvetica,sans-Serif" font-size="10.00">+ $pathhash</text>
<polyline fill="none" stroke="black" points="115.5,-228.5 198.5,-228.5 "/>
<text text-anchor="start" x="123.5" y="-215.5" font-family="Helvetica,sans-Serif" font-size="10.00">+ showAtrs()</text>
<text text-anchor="start" x="123.5" y="-202.5" font-family="Helvetica,sans-Serif" font-size="10.00">+ __construct()</text>
<text text-anchor="start" x="123.5" y="-189.5" font-family="Helvetica,sans-Serif" font-size="10.00">+ hash()</text>
<text text-anchor="start" x="123.5" y="-176.5" font-family="Helvetica,sans-Serif" font-size="10.00">+ process()</text>
</a>
</g>
<!-- Node2&#45;&gt;Node1 -->
<g id="edge2" class="edge"><title>Node2&#45;&gt;Node1</title>
<path fill="none" stroke="midnightblue" d="M136.682,-158.652C134.183,-148.768 131.654,-138.769 129.227,-129.169"/>
<polygon fill="none" stroke="midnightblue" points="133.322,-159.642 139.167,-168.478 140.108,-157.925 133.322,-159.642"/>
</g>
<!-- Node3 -->
<g id="node4" class="node"><title>Node3</title>
<a xlink:href="../../d7/dd4/a00013.html" target="_top" xlink:title="an interface representing a node of file tree with some basic folder functionality such as hashing...">
<polygon fill="white" stroke="black" points="33,-361 33,-437 105,-437 105,-361 33,-361"/>
<text text-anchor="middle" x="69" y="-424" font-family="Helvetica,sans-Serif" font-size="10.00">IFileTreeItem</text>
<polyline fill="none" stroke="black" points="33,-416 105,-416 "/>
<text text-anchor="middle" x="69" y="-403" font-family="Helvetica,sans-Serif" font-size="10.00"> </text>
<polyline fill="none" stroke="black" points="33,-395 105,-395 "/>
<text text-anchor="start" x="41" y="-382" font-family="Helvetica,sans-Serif" font-size="10.00">+ hash()</text>
<text text-anchor="start" x="41" y="-369" font-family="Helvetica,sans-Serif" font-size="10.00">+ process()</text>
</a>
</g>
<!-- Node3&#45;&gt;Node2 -->
<g id="edge4" class="edge"><title>Node3&#45;&gt;Node2</title>
<path fill="none" stroke="midnightblue" d="M94.9783,-351.767C102.258,-338.531 110.333,-323.849 118.185,-309.573"/>
<polygon fill="none" stroke="midnightblue" points="91.8307,-350.227 90.0782,-360.676 97.9642,-353.601 91.8307,-350.227"/>
</g>
<!-- Node5 -->
<g id="node8" class="node"><title>Node5</title>
<a xlink:href="../../df/d86/a00012.html" target="_top" xlink:title="an interface representing a folder with some basic folder functionality such as expanding children...">
<polygon fill="white" stroke="black" points="0,-201 0,-277 98,-277 98,-201 0,-201"/>
<text text-anchor="middle" x="49" y="-264" font-family="Helvetica,sans-Serif" font-size="10.00">IFileTreeDir</text>
<polyline fill="none" stroke="black" points="0,-256 98,-256 "/>
<text text-anchor="middle" x="49" y="-243" font-family="Helvetica,sans-Serif" font-size="10.00"> </text>
<polyline fill="none" stroke="black" points="0,-235 98,-235 "/>
<text text-anchor="start" x="8" y="-222" font-family="Helvetica,sans-Serif" font-size="10.00">+ processChild()</text>
<text text-anchor="start" x="8" y="-209" font-family="Helvetica,sans-Serif" font-size="10.00">+ expandChildren()</text>
</a>
</g>
<!-- Node3&#45;&gt;Node5 -->
<g id="edge10" class="edge"><title>Node3&#45;&gt;Node5</title>
<path fill="none" stroke="midnightblue" d="M62.9409,-350.528C59.9937,-326.949 56.5027,-299.022 53.7514,-277.011"/>
<polygon fill="none" stroke="midnightblue" points="59.4961,-351.187 64.2095,-360.676 66.442,-350.319 59.4961,-351.187"/>
</g>
<!-- Node4 -->
<g id="node6" class="node"><title>Node4</title>
<polygon fill="white" stroke="#bfbfbf" points="136.5,-367.5 136.5,-430.5 177.5,-430.5 177.5,-367.5 136.5,-367.5"/>
<text text-anchor="middle" x="157" y="-417.5" font-family="Helvetica,sans-Serif" font-size="10.00">static</text>
<polyline fill="none" stroke="#bfbfbf" points="136.5,-409.5 177.5,-409.5 "/>
<text text-anchor="middle" x="157" y="-396.5" font-family="Helvetica,sans-Serif" font-size="10.00"> </text>
<polyline fill="none" stroke="#bfbfbf" points="136.5,-388.5 177.5,-388.5 "/>
<text text-anchor="middle" x="157" y="-375.5" font-family="Helvetica,sans-Serif" font-size="10.00"> </text>
</g>
<!-- Node4&#45;&gt;Node2 -->
<g id="edge6" class="edge"><title>Node4&#45;&gt;Node2</title>
<path fill="none" stroke="#404040" d="M157,-367.389C157,-354.181 157,-338.154 157,-321.964"/>
<polygon fill="none" stroke="#404040" points="157,-321.597 153,-315.597 157,-309.597 161,-315.597 157,-321.597"/>
<text text-anchor="middle" x="209.5" y="-332.5" font-family="Helvetica,sans-Serif" font-size="10.00"> +$attributesForHashing</text>
</g>
<!-- Node5&#45;&gt;Node1 -->
<g id="edge8" class="edge"><title>Node5&#45;&gt;Node1</title>
<path fill="none" stroke="midnightblue" d="M66.5159,-191.379C73.5834,-172.164 81.8455,-149.701 89.4279,-129.087"/>
<polygon fill="none" stroke="midnightblue" points="63.2123,-190.221 63.0451,-200.815 69.782,-192.638 63.2123,-190.221"/>
</g>
</g>
</svg>
