<?xml version="1.0" encoding="UTF-8" standalone="no"?>
<!DOCTYPE svg PUBLIC "-//W3C//DTD SVG 1.1//EN"
 "http://www.w3.org/Graphics/SVG/1.1/DTD/svg11.dtd">
<!-- Generated by graphviz version 2.26.3 (20100126.1600)
 -->
<!-- Title: Graph Legend Pages: 1 -->
<svg width="502pt" height="174pt"
 viewBox="0.00 0.00 502.00 174.00" xmlns="http://www.w3.org/2000/svg" xmlns:xlink="http://www.w3.org/1999/xlink">
<g id="graph1" class="graph" transform="scale(1 1) rotate(0) translate(4 170)">
<title>Graph Legend</title>
<polygon fill="white" stroke="white" points="-4,5 -4,-170 499,-170 499,5 -4,5"/>
<!-- Node9 -->
<g id="node1" class="node"><title>Node9</title>
<polygon fill="#bfbfbf" stroke="black" points="288,-21.5 236,-21.5 236,-0.5 288,-0.5 288,-21.5"/>
<text text-anchor="middle" x="262" y="-8.5" font-family="Helvetica,sans-Serif" font-size="10.00">Inherited</text>
</g>
<!-- Node10 -->
<g id="node2" class="node"><title>Node10</title>
<a xlink:href="$classPublicBase.html" xlink:title="PublicBase">
<polygon fill="none" stroke="black" points="66,-93.5 1.42109e-014,-93.5 0,-72.5 66,-72.5 66,-93.5"/>
<text text-anchor="middle" x="33" y="-80.5" font-family="Helvetica,sans-Serif" font-size="10.00">PublicBase</text>
</a>
</g>
<!-- Node10&#45;&gt;Node9 -->
<g id="edge2" class="edge"><title>Node10&#45;&gt;Node9</title>
<path fill="none" stroke="midnightblue" d="M75.8945,-69.5135C122.879,-54.741 196.736,-31.5196 235.781,-19.2434"/>
<polygon fill="midnightblue" stroke="midnightblue" points="74.7884,-66.1923 66.2986,-72.5306 76.888,-72.87 74.7884,-66.1923"/>
</g>
<!-- Node11 -->
<g id="node4" class="node"><title>Node11</title>
<a xlink:href="$classTruncated.html" xlink:title="Truncated">
<polygon fill="none" stroke="red" points="62,-165.5 4,-165.5 4,-144.5 62,-144.5 62,-165.5"/>
<text text-anchor="middle" x="33" y="-152.5" font-family="Helvetica,sans-Serif" font-size="10.00">Truncated</text>
</a>
</g>
<!-- Node11&#45;&gt;Node10 -->
<g id="edge4" class="edge"><title>Node11&#45;&gt;Node10</title>
<path fill="none" stroke="midnightblue" d="M33,-134.235C33,-120.969 33,-104.319 33,-93.6674"/>
<polygon fill="midnightblue" stroke="midnightblue" points="29.5001,-134.376 33,-144.376 36.5001,-134.376 29.5001,-134.376"/>
</g>
<!-- Node13 -->
<g id="node6" class="node"><title>Node13</title>
<a xlink:href="$classProtectedBase.html" xlink:title="ProtectedBase">
<polygon fill="none" stroke="black" points="164,-93.5 84,-93.5 84,-72.5 164,-72.5 164,-93.5"/>
<text text-anchor="middle" x="124" y="-80.5" font-family="Helvetica,sans-Serif" font-size="10.00">ProtectedBase</text>
</a>
</g>
<!-- Node13&#45;&gt;Node9 -->
<g id="edge6" class="edge"><title>Node13&#45;&gt;Node9</title>
<path fill="none" stroke="darkgreen" d="M153.552,-67.5817C180.065,-53.7486 218.281,-33.81 241.554,-21.6674"/>
<polygon fill="darkgreen" stroke="darkgreen" points="151.609,-64.6474 144.362,-72.3762 154.847,-70.8535 151.609,-64.6474"/>
</g>
<!-- Node14 -->
<g id="node8" class="node"><title>Node14</title>
<a xlink:href="$classPrivateBase.html" xlink:title="PrivateBase">
<polygon fill="none" stroke="black" points="250,-93.5 182,-93.5 182,-72.5 250,-72.5 250,-93.5"/>
<text text-anchor="middle" x="216" y="-80.5" font-family="Helvetica,sans-Serif" font-size="10.00">PrivateBase</text>
</a>
</g>
<!-- Node14&#45;&gt;Node9 -->
<g id="edge8" class="edge"><title>Node14&#45;&gt;Node9</title>
<path fill="none" stroke="#8b1a1a" d="M228.26,-63.8099C236.885,-50.3106 248.107,-32.7449 255.185,-21.6674"/>
<polygon fill="#8b1a1a" stroke="#8b1a1a" points="225.222,-62.0648 222.787,-72.3762 231.121,-65.8336 225.222,-62.0648"/>
</g>
<!-- Node15 -->
<g id="node10" class="node"><title>Node15</title>
<polygon fill="none" stroke="#bfbfbf" points="350,-93.5 268,-93.5 268,-72.5 350,-72.5 350,-93.5"/>
<text text-anchor="middle" x="309" y="-80.5" font-family="Helvetica,sans-Serif" font-size="10.00">Undocumented</text>
</g>
<!-- Node15&#45;&gt;Node9 -->
<g id="edge10" class="edge"><title>Node15&#45;&gt;Node9</title>
<path fill="none" stroke="midnightblue" d="M296.473,-63.8099C287.661,-50.3106 276.195,-32.7449 268.963,-21.6674"/>
<polygon fill="midnightblue" stroke="midnightblue" points="293.668,-65.9155 302.065,-72.3762 299.53,-62.0892 293.668,-65.9155"/>
</g>
<!-- Node16 -->
<g id="node12" class="node"><title>Node16</title>
<a xlink:href="$classTempl.html" xlink:title="Templ&lt; int &gt;">
<polygon fill="none" stroke="black" points="438,-93.5 368,-93.5 368,-72.5 438,-72.5 438,-93.5"/>
<text text-anchor="middle" x="403" y="-80.5" font-family="Helvetica,sans-Serif" font-size="10.00">Templ&lt; int &gt;</text>
</a>
</g>
<!-- Node16&#45;&gt;Node9 -->
<g id="edge12" class="edge"><title>Node16&#45;&gt;Node9</title>
<path fill="none" stroke="midnightblue" d="M373.162,-67.7634C346.059,-53.9236 306.774,-33.8633 282.89,-21.6674"/>
<polygon fill="midnightblue" stroke="midnightblue" points="371.697,-70.9454 382.195,-72.3762 374.881,-64.7112 371.697,-70.9454"/>
</g>
<!-- Node17 -->
<g id="node14" class="node"><title>Node17</title>
<a xlink:href="$classTempl.html" xlink:title="Templ&lt; T &gt;">
<polygon fill="none" stroke="black" points="436,-165.5 370,-165.5 370,-144.5 436,-144.5 436,-165.5"/>
<text text-anchor="middle" x="403" y="-152.5" font-family="Helvetica,sans-Serif" font-size="10.00">Templ&lt; T &gt;</text>
</a>
</g>
<!-- Node17&#45;&gt;Node16 -->
<g id="edge14" class="edge"><title>Node17&#45;&gt;Node16</title>
<path fill="none" stroke="orange" stroke-dasharray="5,2" d="M403,-134.235C403,-120.969 403,-104.319 403,-93.6674"/>
<polygon fill="orange" stroke="orange" points="399.5,-134.376 403,-144.376 406.5,-134.376 399.5,-134.376"/>
<text text-anchor="middle" x="417.5" y="-116.5" font-family="Helvetica,sans-Serif" font-size="10.00">&lt; int &gt;</text>
</g>
<!-- Node18 -->
<g id="node16" class="node"><title>Node18</title>
<a xlink:href="$classUsed.html" xlink:title="Used">
<polygon fill="none" stroke="black" points="494,-93.5 456,-93.5 456,-72.5 494,-72.5 494,-93.5"/>
<text text-anchor="middle" x="475" y="-80.5" font-family="Helvetica,sans-Serif" font-size="10.00">Used</text>
</a>
</g>
<!-- Node18&#45;&gt;Node9 -->
<g id="edge16" class="edge"><title>Node18&#45;&gt;Node9</title>
<path fill="none" stroke="#9a32cd" stroke-dasharray="5,2" d="M446.256,-71.8509C384.418,-49.6754 322.433,-29.8653 288.199,-19.1311"/>
<polygon fill="#9a32cd" stroke="#9a32cd" points="445.179,-75.1834 455.774,-75.2838 447.554,-68.5986 445.179,-75.1834"/>
<text text-anchor="middle" x="421" y="-44.5" font-family="Helvetica,sans-Serif" font-size="10.00">m_usedClass</text>
</g>
</g>
</svg>
