<?xml version="1.0" encoding="UTF-8" standalone="no"?>
<!DOCTYPE svg PUBLIC "-//W3C//DTD SVG 1.1//EN"
 "http://www.w3.org/Graphics/SVG/1.1/DTD/svg11.dtd">
<!-- Generated by graphviz version 2.26.3 (20100126.1600)
 -->
<!-- Title: Graphical Class Hierarchy Pages: 1 -->
<svg width="418pt" height="70pt"
 viewBox="0.00 0.00 418.00 70.00" xmlns="http://www.w3.org/2000/svg" xmlns:xlink="http://www.w3.org/1999/xlink">
<g id="graph1" class="graph" transform="scale(1 1) rotate(0) translate(4 66)">
<title>Graphical Class Hierarchy</title>
<polygon fill="white" stroke="white" points="-4,5 -4,-66 415,-66 415,5 -4,5"/>
<!-- Node1 -->
<g id="node1" class="node"><title>Node1</title>
<a xlink:href="d7/dd4/a00013.html" target="_top" xlink:title="an interface representing a node of file tree with some basic folder functionality such as hashing...">
<polygon fill="white" stroke="black" points="0,-20.5 0,-41.5 72,-41.5 72,-20.5 0,-20.5"/>
<text text-anchor="middle" x="36" y="-28.5" font-family="Helvetica,sans-Serif" font-size="10.00">IFileTreeItem</text>
</a>
</g>
<!-- Node2 -->
<g id="node3" class="node"><title>Node2</title>
<a xlink:href="da/da0/a00009.html" target="_top" xlink:title="a class representing a file (or a folder) with some basic functionality">
<polygon fill="white" stroke="black" points="108,-40.5 108,-61.5 178,-61.5 178,-40.5 108,-40.5"/>
<text text-anchor="middle" x="143" y="-48.5" font-family="Helvetica,sans-Serif" font-size="10.00">FileTreeItem</text>
</a>
</g>
<!-- Node1&#45;&gt;Node2 -->
<g id="edge2" class="edge"><title>Node1&#45;&gt;Node2</title>
<path fill="none" stroke="midnightblue" d="M82.1737,-39.6306C90.7965,-41.2423 99.678,-42.9024 107.899,-44.4391"/>
<polygon fill="midnightblue" stroke="midnightblue" points="82.6982,-36.1681 72.2253,-37.7711 81.412,-43.0489 82.6982,-36.1681"/>
</g>
<!-- Node5 -->
<g id="node9" class="node"><title>Node5</title>
<a xlink:href="df/d86/a00012.html" target="_top" xlink:title="an interface representing a folder with some basic folder functionality such as expanding children...">
<polygon fill="white" stroke="black" points="110.5,-0.5 110.5,-21.5 175.5,-21.5 175.5,-0.5 110.5,-0.5"/>
<text text-anchor="middle" x="143" y="-8.5" font-family="Helvetica,sans-Serif" font-size="10.00">IFileTreeDir</text>
</a>
</g>
<!-- Node1&#45;&gt;Node5 -->
<g id="edge8" class="edge"><title>Node1&#45;&gt;Node5</title>
<path fill="none" stroke="midnightblue" d="M82.3158,-22.3428C91.7783,-20.5742 101.546,-18.7484 110.406,-17.0923"/>
<polygon fill="midnightblue" stroke="midnightblue" points="81.412,-18.9511 72.2253,-24.2289 82.6982,-25.8319 81.412,-18.9511"/>
</g>
<!-- Node3 -->
<g id="node5" class="node"><title>Node3</title>
<a xlink:href="d4/dee/a00008.html" target="_top" xlink:title="a class representing a folder with some basic folder functionality such as expanding children...">
<polygon fill="white" stroke="black" points="214.5,-20.5 214.5,-41.5 277.5,-41.5 277.5,-20.5 214.5,-20.5"/>
<text text-anchor="middle" x="246" y="-28.5" font-family="Helvetica,sans-Serif" font-size="10.00">FileTreeDir</text>
</a>
</g>
<!-- Node2&#45;&gt;Node3 -->
<g id="edge4" class="edge"><title>Node2&#45;&gt;Node3</title>
<path fill="none" stroke="midnightblue" d="M188.043,-42.2539C196.947,-40.5249 206.113,-38.7451 214.453,-37.1257"/>
<polygon fill="midnightblue" stroke="midnightblue" points="187.308,-38.831 178.159,-44.1731 188.643,-45.7027 187.308,-38.831"/>
</g>
<!-- Node4 -->
<g id="node7" class="node"><title>Node4</title>
<a xlink:href="dd/dad/a00005.html" target="_top" xlink:title="a class representing a directory with backup functionality not for direct usage">
<polygon fill="white" stroke="black" points="314,-20.5 314,-41.5 410,-41.5 410,-20.5 314,-20.5"/>
<text text-anchor="middle" x="362" y="-28.5" font-family="Helvetica,sans-Serif" font-size="10.00">FileTreeBackupDir</text>
</a>
</g>
<!-- Node3&#45;&gt;Node4 -->
<g id="edge6" class="edge"><title>Node3&#45;&gt;Node4</title>
<path fill="none" stroke="midnightblue" d="M287.711,-31C296.17,-31 305.131,-31 313.792,-31"/>
<polygon fill="midnightblue" stroke="midnightblue" points="287.698,-27.5001 277.698,-31 287.697,-34.5001 287.698,-27.5001"/>
</g>
<!-- Node5&#45;&gt;Node3 -->
<g id="edge10" class="edge"><title>Node5&#45;&gt;Node3</title>
<path fill="none" stroke="midnightblue" d="M185.44,-19.2409C195.103,-21.117 205.204,-23.0785 214.326,-24.8498"/>
<polygon fill="midnightblue" stroke="midnightblue" points="186.074,-15.7985 175.59,-17.3281 184.739,-22.6702 186.074,-15.7985"/>
</g>
</g>
</svg>
