<?xml version="1.0" encoding="UTF-8" standalone="no"?>
<!DOCTYPE svg PUBLIC "-//W3C//DTD SVG 1.1//EN"
 "http://www.w3.org/Graphics/SVG/1.1/DTD/svg11.dtd">
<!-- Generated by graphviz version 2.26.3 (20100126.1600)
 -->
<!-- Title: Graphical Class Hierarchy Pages: 1 -->
<svg width="196pt" height="70pt"
 viewBox="0.00 0.00 196.00 70.00" xmlns="http://www.w3.org/2000/svg" xmlns:xlink="http://www.w3.org/1999/xlink">
<g id="graph1" class="graph" transform="scale(1 1) rotate(0) translate(4 66)">
<title>Graphical Class Hierarchy</title>
<polygon fill="white" stroke="white" points="-4,5 -4,-66 193,-66 193,5 -4,5"/>
<!-- Node1 -->
<g id="node1" class="node"><title>Node1</title>
<a xlink:href="d7/dec/a00010.html" target="_top" xlink:title="IBackuper">
<polygon fill="white" stroke="black" points="0,-20.5 0,-41.5 60,-41.5 60,-20.5 0,-20.5"/>
<text text-anchor="middle" x="30" y="-28.5" font-family="Helvetica,sans-Serif" font-size="10.00">IBackuper</text>
</a>
</g>
<!-- Node2 -->
<g id="node3" class="node"><title>Node2</title>
<a xlink:href="de/d21/a00006.html" target="_top" xlink:title="a class representing a plugin for backuping file tree takes array of adresses of roots of the backup...">
<polygon fill="white" stroke="black" points="96,-40.5 96,-61.5 188,-61.5 188,-40.5 96,-40.5"/>
<text text-anchor="middle" x="142" y="-48.5" font-family="Helvetica,sans-Serif" font-size="10.00">FileTreeBackuper</text>
</a>
</g>
<!-- Node1&#45;&gt;Node2 -->
<g id="edge2" class="edge"><title>Node1&#45;&gt;Node2</title>
<path fill="none" stroke="midnightblue" d="M69.9414,-38.1324C78.341,-39.6323 87.2671,-41.2263 95.872,-42.7629"/>
<polygon fill="midnightblue" stroke="midnightblue" points="70.4735,-34.6721 60.0139,-36.3596 69.2429,-41.5631 70.4735,-34.6721"/>
</g>
<!-- Node3 -->
<g id="node5" class="node"><title>Node3</title>
<a xlink:href="dd/d1b/a00015.html" target="_top" xlink:title="Makes backup of MySQL database in format similar to mysqldump.">
<polygon fill="white" stroke="black" points="96.5,-0.5 96.5,-21.5 187.5,-21.5 187.5,-0.5 96.5,-0.5"/>
<text text-anchor="middle" x="142" y="-8.5" font-family="Helvetica,sans-Serif" font-size="10.00">MySQLBackuper</text>
</a>
</g>
<!-- Node1&#45;&gt;Node3 -->
<g id="edge4" class="edge"><title>Node1&#45;&gt;Node3</title>
<path fill="none" stroke="midnightblue" d="M70.062,-23.8461C78.5655,-22.3276 87.6037,-20.7136 96.2989,-19.1609"/>
<polygon fill="midnightblue" stroke="midnightblue" points="69.2429,-20.4369 60.0139,-25.6404 70.4735,-27.3279 69.2429,-20.4369"/>
</g>
</g>
</svg>
