<?xml version="1.0" encoding="UTF-8" standalone="no"?>
<!DOCTYPE svg PUBLIC "-//W3C//DTD SVG 1.1//EN"
 "http://www.w3.org/Graphics/SVG/1.1/DTD/svg11.dtd">
<!-- Generated by graphviz version 2.26.3 (20100126.1600)
 -->
<!-- Title: FileTreeBackuper Pages: 1 -->
<svg width="189pt" height="368pt"
 viewBox="0.00 0.00 189.00 368.00" xmlns="http://www.w3.org/2000/svg" xmlns:xlink="http://www.w3.org/1999/xlink">
<g id="graph1" class="graph" transform="scale(1 1) rotate(0) translate(4 364)">
<title>FileTreeBackuper</title>
<polygon fill="white" stroke="white" points="-4,5 -4,-364 186,-364 186,5 -4,5"/>
<!-- Node1 -->
<g id="node1" class="node"><title>Node1</title>
<polygon fill="#bfbfbf" stroke="black" points="45.5,-0.5 45.5,-193.5 156.5,-193.5 156.5,-0.5 45.5,-0.5"/>
<text text-anchor="middle" x="101" y="-180.5" font-family="Helvetica,sans-Serif" font-size="10.00">FileTreeBackuper</text>
<polyline fill="none" stroke="black" points="45.5,-172.5 156.5,-172.5 "/>
<text text-anchor="start" x="53.5" y="-159.5" font-family="Helvetica,sans-Serif" font-size="10.00">+ $index</text>
<text text-anchor="start" x="53.5" y="-146.5" font-family="Helvetica,sans-Serif" font-size="10.00">+ $roots</text>
<text text-anchor="start" x="53.5" y="-133.5" font-family="Helvetica,sans-Serif" font-size="10.00">+ filesDir</text>
<text text-anchor="start" x="53.5" y="-120.5" font-family="Helvetica,sans-Serif" font-size="10.00">+ patchesDir</text>
<text text-anchor="start" x="53.5" y="-107.5" font-family="Helvetica,sans-Serif" font-size="10.00">+ $zip</text>
<polyline fill="none" stroke="black" points="45.5,-99.5 156.5,-99.5 "/>
<text text-anchor="start" x="53.5" y="-86.5" font-family="Helvetica,sans-Serif" font-size="10.00">+ __construct()</text>
<text text-anchor="start" x="53.5" y="-73.5" font-family="Helvetica,sans-Serif" font-size="10.00">+ prepareForBackup()</text>
<text text-anchor="start" x="53.5" y="-60.5" font-family="Helvetica,sans-Serif" font-size="10.00">+ makeBackup()</text>
<text text-anchor="start" x="53.5" y="-47.5" font-family="Helvetica,sans-Serif" font-size="10.00">+ needBackup()</text>
<text text-anchor="start" x="53.5" y="-34.5" font-family="Helvetica,sans-Serif" font-size="10.00">&#45; detectMoved()</text>
<text text-anchor="start" x="53.5" y="-21.5" font-family="Helvetica,sans-Serif" font-size="10.00">&#45; archivateAdded()</text>
<text text-anchor="start" x="53.5" y="-8.5" font-family="Helvetica,sans-Serif" font-size="10.00">&#45; archivateChanged()</text>
</g>
<!-- Node2 -->
<g id="node2" class="node"><title>Node2</title>
<a xlink:href="../../d7/dec/a00010.html" target="_top" xlink:title="{IBackuper\n||+ __construct()\l+ makeBackup()\l+ prepareForBackup()\l+ needBackup()\l}">
<polygon fill="white" stroke="black" points="-0.5,-257 -0.5,-359 110.5,-359 110.5,-257 -0.5,-257"/>
<text text-anchor="middle" x="55" y="-346" font-family="Helvetica,sans-Serif" font-size="10.00">IBackuper</text>
<polyline fill="none" stroke="black" points="-0.5,-338 110.5,-338 "/>
<text text-anchor="middle" x="55" y="-325" font-family="Helvetica,sans-Serif" font-size="10.00"> </text>
<polyline fill="none" stroke="black" points="-0.5,-317 110.5,-317 "/>
<text text-anchor="start" x="7.5" y="-304" font-family="Helvetica,sans-Serif" font-size="10.00">+ __construct()</text>
<text text-anchor="start" x="7.5" y="-291" font-family="Helvetica,sans-Serif" font-size="10.00">+ makeBackup()</text>
<text text-anchor="start" x="7.5" y="-278" font-family="Helvetica,sans-Serif" font-size="10.00">+ prepareForBackup()</text>
<text text-anchor="start" x="7.5" y="-265" font-family="Helvetica,sans-Serif" font-size="10.00">+ needBackup()</text>
</a>
</g>
<!-- Node2&#45;&gt;Node1 -->
<g id="edge2" class="edge"><title>Node2&#45;&gt;Node1</title>
<path fill="none" stroke="midnightblue" d="M68.3328,-246.843C71.9497,-230.253 75.9564,-211.874 79.889,-193.835"/>
<polygon fill="none" stroke="midnightblue" points="64.8458,-246.407 66.1353,-256.923 71.6851,-247.898 64.8458,-246.407"/>
</g>
<!-- Node3 -->
<g id="node4" class="node"><title>Node3</title>
<polygon fill="white" stroke="#bfbfbf" points="127.5,-276.5 127.5,-339.5 168.5,-339.5 168.5,-276.5 127.5,-276.5"/>
<text text-anchor="middle" x="148" y="-326.5" font-family="Helvetica,sans-Serif" font-size="10.00">const</text>
<polyline fill="none" stroke="#bfbfbf" points="127.5,-318.5 168.5,-318.5 "/>
<text text-anchor="middle" x="148" y="-305.5" font-family="Helvetica,sans-Serif" font-size="10.00"> </text>
<polyline fill="none" stroke="#bfbfbf" points="127.5,-297.5 168.5,-297.5 "/>
<text text-anchor="middle" x="148" y="-284.5" font-family="Helvetica,sans-Serif" font-size="10.00"> </text>
</g>
<!-- Node3&#45;&gt;Node1 -->
<g id="edge4" class="edge"><title>Node3&#45;&gt;Node1</title>
<path fill="none" stroke="#404040" d="M140.964,-276.411C136.7,-257.27 130.983,-231.604 125.209,-205.683"/>
<polygon fill="none" stroke="#404040" points="125.166,-205.49 119.957,-200.503 122.557,-193.777 127.766,-198.764 125.166,-205.49"/>
<text text-anchor="middle" x="156" y="-229" font-family="Helvetica,sans-Serif" font-size="10.00"> patchesDir</text>
<text text-anchor="middle" x="156" y="-216" font-family="Helvetica,sans-Serif" font-size="10.00">filesDir</text>
</g>
</g>
</svg>
