<?xml version="1.0" encoding="UTF-8" standalone="no"?>
<!DOCTYPE svg PUBLIC "-//W3C//DTD SVG 1.1//EN"
 "http://www.w3.org/Graphics/SVG/1.1/DTD/svg11.dtd">
<!-- Generated by graphviz version 2.26.3 (20100126.1600)
 -->
<!-- Title: FileTreeBackuper Pages: 1 -->
<svg width="194pt" height="342pt"
 viewBox="0.00 0.00 194.00 342.00" xmlns="http://www.w3.org/2000/svg" xmlns:xlink="http://www.w3.org/1999/xlink">
<g id="graph1" class="graph" transform="scale(1 1) rotate(0) translate(4 338)">
<title>FileTreeBackuper</title>
<polygon fill="white" stroke="white" points="-4,5 -4,-338 191,-338 191,5 -4,5"/>
<!-- Node1 -->
<g id="node1" class="node"><title>Node1</title>
<polygon fill="#bfbfbf" stroke="black" points="45.5,-0.5 45.5,-167.5 156.5,-167.5 156.5,-0.5 45.5,-0.5"/>
<text text-anchor="middle" x="101" y="-154.5" font-family="Helvetica,sans-Serif" font-size="10.00">FileTreeBackuper</text>
<polyline fill="none" stroke="black" points="45.5,-146.5 156.5,-146.5 "/>
<text text-anchor="start" x="53.5" y="-133.5" font-family="Helvetica,sans-Serif" font-size="10.00">+ $index</text>
<text text-anchor="start" x="53.5" y="-120.5" font-family="Helvetica,sans-Serif" font-size="10.00">+ $roots</text>
<text text-anchor="start" x="53.5" y="-107.5" font-family="Helvetica,sans-Serif" font-size="10.00">+ $zip</text>
<polyline fill="none" stroke="black" points="45.5,-99.5 156.5,-99.5 "/>
<text text-anchor="start" x="53.5" y="-86.5" font-family="Helvetica,sans-Serif" font-size="10.00">+ __construct()</text>
<text text-anchor="start" x="53.5" y="-73.5" font-family="Helvetica,sans-Serif" font-size="10.00">+ prepareForBackup()</text>
<text text-anchor="start" x="53.5" y="-60.5" font-family="Helvetica,sans-Serif" font-size="10.00">+ makeBackup()</text>
<text text-anchor="start" x="53.5" y="-47.5" font-family="Helvetica,sans-Serif" font-size="10.00">+ needBackup()</text>
<text text-anchor="start" x="53.5" y="-34.5" font-family="Helvetica,sans-Serif" font-size="10.00">&#45; detectMoved()</text>
<text text-anchor="start" x="53.5" y="-21.5" font-family="Helvetica,sans-Serif" font-size="10.00">&#45; archivateAdded()</text>
<text text-anchor="start" x="53.5" y="-8.5" font-family="Helvetica,sans-Serif" font-size="10.00">&#45; archivateChanged()</text>
</g>
<!-- Node2 -->
<g id="node2" class="node"><title>Node2</title>
<a xlink:href="../../d7/dec/a00010.html" target="_top" xlink:title="{IBackuper\n||+ __construct()\l+ makeBackup()\l+ prepareForBackup()\l+ needBackup()\l}">
<polygon fill="white" stroke="black" points="-0.5,-231 -0.5,-333 110.5,-333 110.5,-231 -0.5,-231"/>
<text text-anchor="middle" x="55" y="-320" font-family="Helvetica,sans-Serif" font-size="10.00">IBackuper</text>
<polyline fill="none" stroke="black" points="-0.5,-312 110.5,-312 "/>
<text text-anchor="middle" x="55" y="-299" font-family="Helvetica,sans-Serif" font-size="10.00"> </text>
<polyline fill="none" stroke="black" points="-0.5,-291 110.5,-291 "/>
<text text-anchor="start" x="7.5" y="-278" font-family="Helvetica,sans-Serif" font-size="10.00">+ __construct()</text>
<text text-anchor="start" x="7.5" y="-265" font-family="Helvetica,sans-Serif" font-size="10.00">+ makeBackup()</text>
<text text-anchor="start" x="7.5" y="-252" font-family="Helvetica,sans-Serif" font-size="10.00">+ prepareForBackup()</text>
<text text-anchor="start" x="7.5" y="-239" font-family="Helvetica,sans-Serif" font-size="10.00">+ needBackup()</text>
</a>
</g>
<!-- Node2&#45;&gt;Node1 -->
<g id="edge2" class="edge"><title>Node2&#45;&gt;Node1</title>
<path fill="none" stroke="midnightblue" d="M69.2723,-220.567C73.1617,-203.826 77.4421,-185.401 81.5658,-167.651"/>
<polygon fill="none" stroke="midnightblue" points="65.7598,-220.22 66.906,-230.753 72.5782,-221.804 65.7598,-220.22"/>
</g>
<!-- Node3 -->
<g id="node4" class="node"><title>Node3</title>
<polygon fill="white" stroke="#bfbfbf" points="127.5,-250.5 127.5,-313.5 168.5,-313.5 168.5,-250.5 127.5,-250.5"/>
<text text-anchor="middle" x="148" y="-300.5" font-family="Helvetica,sans-Serif" font-size="10.00">const</text>
<polyline fill="none" stroke="#bfbfbf" points="127.5,-292.5 168.5,-292.5 "/>
<text text-anchor="middle" x="148" y="-279.5" font-family="Helvetica,sans-Serif" font-size="10.00"> </text>
<polyline fill="none" stroke="#bfbfbf" points="127.5,-271.5 168.5,-271.5 "/>
<text text-anchor="middle" x="148" y="-258.5" font-family="Helvetica,sans-Serif" font-size="10.00"> </text>
</g>
<!-- Node3&#45;&gt;Node1 -->
<g id="edge4" class="edge"><title>Node3&#45;&gt;Node1</title>
<path fill="none" stroke="#404040" d="M140.449,-250.188C135.879,-230.936 129.785,-205.266 123.757,-179.871"/>
<polygon fill="none" stroke="#404040" points="123.676,-179.529 118.398,-174.615 120.905,-167.853 126.182,-172.767 123.676,-179.529"/>
<text text-anchor="middle" x="158" y="-203" font-family="Helvetica,sans-Serif" font-size="10.00"> +patchesDir</text>
<text text-anchor="middle" x="158" y="-190" font-family="Helvetica,sans-Serif" font-size="10.00">+filesDir</text>
</g>
</g>
</svg>
